<svg xmlns="http://www.w3.org/2000/svg" viewbox="0 0 160.053 46" width="160.053" height="46">
  <title>Logo Redegal</title>
  <path fill="#007fff" d="M0 32.23V.897h11.508a13.344 13.344 0 0 1 6.2 1.273 8.612 8.612 0 0 1 3.647 3.447 9.743 9.743 0 0 1 1.21 4.815 9.631 9.631 0 0 1-1.5 5.237 8.508 8.508 0 0 1-4.678 3.447l9.8 13.115-4.97 2.178-10.736-14.534H5.737V32.23Zm5.733-16.562h5.425a5.622 5.622 0 0 0 4.206-1.39 5.07 5.07 0 0 0 1.344-3.672 4.89 4.89 0 0 0-1.323-3.58 5.826 5.826 0 0 0-4.273-1.344H5.733Z" />
  <path fill="#007fff" d="M37.182 32.764a12.1 12.1 0 0 1-5.954-1.431 10.381 10.381 0 0 1-4.073-4.027 11.921 11.921 0 0 1-1.477-6 12.639 12.639 0 0 1 1.456-6.13 10.511 10.511 0 0 1 4.027-4.173 11.816 11.816 0 0 1 6.063-1.5 11.425 11.425 0 0 1 5.775 1.435 10.235 10.235 0 0 1 3.918 3.914 11.02 11.02 0 0 1 1.419 5.516c0 .33 0 .672-.025 1.031s-.038.73-.067 1.118H31.362a5.787 5.787 0 0 0 1.815 4.073 5.691 5.691 0 0 0 3.96 1.477 5.22 5.22 0 0 0 2.921-.784 4.861 4.861 0 0 0 1.765-2.036h5.821a10.561 10.561 0 0 1-2.086 3.826 10.22 10.22 0 0 1-3.58 2.708 11.267 11.267 0 0 1-4.794.985Zm.042-18.619a6.108 6.108 0 0 0-3.714 1.185 5.5 5.5 0 0 0-2.057 3.605h11.041a4.82 4.82 0 0 0-1.611-3.493 5.366 5.366 0 0 0-3.659-1.297Z" />
  <path fill="#007fff" d="M62.248 32.76a10.433 10.433 0 0 1-5.6-1.519 10.916 10.916 0 0 1-3.893-4.173 13.206 13.206 0 0 1 0-11.976 10.774 10.774 0 0 1 3.893-4.114 10.52 10.52 0 0 1 5.6-1.5 9.643 9.643 0 0 1 4.385.943 7.928 7.928 0 0 1 3.046 2.637V0h5.729v32.23h-5.1l-.626-3.18a10.152 10.152 0 0 1-2.846 2.6 8.4 8.4 0 0 1-4.588 1.11Zm1.21-5.007a5.984 5.984 0 0 0 4.54-1.857 7.307 7.307 0 0 0 0-9.535 6.32 6.32 0 0 0-10.853 4.723 6.652 6.652 0 0 0 1.79 4.786 5.971 5.971 0 0 0 4.523 1.878Z" />
  <path fill="#007fff" d="M90.898 32.764a12.121 12.121 0 0 1-5.954-1.431 10.406 10.406 0 0 1-4.06-4.018 11.921 11.921 0 0 1-1.477-6 12.639 12.639 0 0 1 1.456-6.13 10.512 10.512 0 0 1 4.027-4.173 11.821 11.821 0 0 1 6.067-1.5 11.437 11.437 0 0 1 5.775 1.435 10.251 10.251 0 0 1 3.914 3.914 10.979 10.979 0 0 1 1.41 5.529c0 .33 0 .672-.021 1.031s-.038.73-.067 1.118H85.077a5.767 5.767 0 0 0 1.811 4.073 5.692 5.692 0 0 0 3.96 1.477 5.213 5.213 0 0 0 2.921-.785 4.845 4.845 0 0 0 1.769-2.036h5.812a10.5 10.5 0 0 1-2.086 3.826 10.182 10.182 0 0 1-3.58 2.708 11.267 11.267 0 0 1-4.79.964Zm.046-18.619a6.109 6.109 0 0 0-3.714 1.185 5.483 5.483 0 0 0-2.061 3.605h11.058a4.836 4.836 0 0 0-1.611-3.492 5.374 5.374 0 0 0-3.676-1.3Z" />
  <path fill="#007fff" d="M137.265 32.765a10.541 10.541 0 0 1-4.7-.914 6.368 6.368 0 0 1-2.729-2.441 6.5 6.5 0 0 1-.9-3.338 6.1 6.1 0 0 1 2.433-5.016q2.424-1.919 7.252-1.924h5.641v-.538a4.117 4.117 0 0 0-1.3-3.359 4.908 4.908 0 0 0-3.226-1.072 5.533 5.533 0 0 0-3.042.835 3.568 3.568 0 0 0-1.611 2.441h-5.612a7.819 7.819 0 0 1 1.631-4.206 9.181 9.181 0 0 1 3.651-2.754 12.54 12.54 0 0 1 5.007-.964 11.018 11.018 0 0 1 7.477 2.374 8.4 8.4 0 0 1 2.729 6.714v13.653h-4.874l-.538-3.58a7.7 7.7 0 0 1-7.3 4.089Zm1.3-4.473a4.741 4.741 0 0 0 3.831-1.615 7.842 7.842 0 0 0 1.723-3.981h-4.882a5.069 5.069 0 0 0-3.267.835 2.57 2.57 0 0 0-.985 2.036 2.345 2.345 0 0 0 .985 2.015 4.307 4.307 0 0 0 2.593.709Z" />
  <path fill="#007fff" d="M154.324 32.23V0h5.729v32.23Z" />
  <path fill="#007fff" d="M126.571 10.027h-7.423a8.8 8.8 0 0 0-11.029 13.475l-.05-.042-3.789 4.068v1.039a7.671 7.671 0 0 0 1.139.939 9.608 9.608 0 0 0 1.544.835 6.384 6.384 0 0 0-2.921 5.191 5.8 5.8 0 0 0 2.921 5.308 14.616 14.616 0 0 0 7.657 1.765 13.073 13.073 0 0 0 5.729-1.093 7.7 7.7 0 0 0 3.309-2.867 7.1 7.1 0 0 0 1.077-3.755 5.821 5.821 0 0 0-2.016-4.7q-2.015-1.7-6.443-2.086c-1.944-.179-3.338-.359-4.21-.538a7.963 7.963 0 0 1-2.057-.668l1.2-1.189a8.8 8.8 0 0 0 11.362-11.951l4-.242Zm-14.863 21.619c1.047.179 2.178.313 3.4.417a5.911 5.911 0 0 1 3.472.985 2.637 2.637 0 0 1 .872 2.011 2.687 2.687 0 0 1-1.344 2.353 6.309 6.309 0 0 1-3.488.872 7.891 7.891 0 0 1-3.785-.834 2.662 2.662 0 0 1-1.544-2.483 3.15 3.15 0 0 1 .559-1.744 5.146 5.146 0 0 1 1.857-1.577Zm2.921-9.86a4.254 4.254 0 1 1 .013 0Z" />
  <path fill="#007fff" d="M43.179 38.265a8.635 8.635 0 0 1-6.259 2.47 8.749 8.749 0 0 1-6.322-2.5l-5.041 2.675a15.281 15.281 0 0 0 22.645.142Z" />
</svg>