<svg height="100" viewBox="0 0 100 100" width="100" xmlns="http://www.w3.org/2000/svg"><g fill="none" fill-rule="evenodd"><path d="m58 0v60l-52 30v-30l26-15v-30z" fill="#f0e300"/><path d="m46.9181287 5h5.988304c2.4095671 0 4.3759424 1.8975304 4.4863397 4.2798053l.0048884.21142277v1.49707603h4.4912281c2.4095671 0 4.3759423 1.8975304 4.4863396 4.2798053l.0048885.2114228h22.4561403c3.2320843 0 5.8661145 2.5605737 5.9841737 5.7638043l.0041304.2244998v46.4093567c0 3.2320843-2.5605738 5.8661145-5.7638043 5.9841737l-.2244998.0041304h-5.9883041l-1.2725146 16.5920935c-.1865809 2.4664723-2.24227 4.3725285-4.7157895 4.3725285-2.4007689 0-4.4079242-1.7955841-4.6945127-4.1563872l-.0212768-.2161413-.5853567-7.6096374h-4.5151813l2.2156726 5.9089591c.5169852 1.3791802.324871 2.9241967-.5141352 4.1347669-.7923947 1.1433164-2.0666762 1.8510631-3.446613 1.926225l-.2445384.0066572h-4.0840234c-1.7984666-.0058592-3.4141778-1.0780361-4.1244466-2.7156156l-.0808399-.1991914-3.3983626-9.0618012h-6.9075088l-3.3983626 9.0618012c-.6366772 1.6820102-2.2077041 2.8186545-3.990394 2.9090176l-.2148925.0057894h-4.0840234c-1.4728923-.000062-2.8521453-.7223119-3.6911514-1.9328822-.7923947-1.1433163-1.0077778-2.5849504-.5937443-3.9034538l.0796092-.2313131 2.2156725-5.9089591h-12.8104796c-2.4095671 0-4.3759423-1.8975305-4.4863396-4.2798053l-.0048884-.2114228v-4.491228h-4.4912281c-3.23208429 0-5.86611451-2.5605738-5.9841737-5.7638043l-.0041304-.2244998v-46.4093567c0-3.2320843 2.56057377-5.8661145 5.7638043-5.9841737l.2244998-.0041304h22.4561403c0-2.4095672 1.8975305-4.3759424 4.2798054-4.4863397l.2114227-.0048884h4.4912281v-1.49707603c0-2.40956715 1.8975305-4.37594233 4.2798053-4.48633963l.2114228-.00488844h5.988304zm-3.6573568 77.8479532h-7.2817777l-2.6094036 6.9599064c-.1722974.4596442-.1083151.9745531.1712362 1.3780507.2515961.3631478.6490316.5945245 1.0838513.6373027l.1461757.0071964h4.0840234c.5755582-.0024109 1.094924-.3316623 1.3457667-.8406863l.0569935-.1309161zm20.5847954 0h-7.2817778l3.0046316 8.0108538c.2021482.5392785.6934559.9106405 1.2585712.9647664l.1426919.006836h4.0840234c.4903779 0 .9496378-.2402761 1.2293866-.6430306.2486653-.3580039.3274687-.8040844.2217123-1.2215462l-.0483387-.1549788zm17.3406315-26.9458713h-8.6516023l-.0066537.3787048.0066537.188687 1.9117661 24.851462v.0434152l.6826666 8.86269c.0723775.9030671.8246632 1.6000376 1.7306199 1.6033685.854316-.0044891 1.5714741-.6251496 1.7106516-1.4536003l.0184712-.1482711 2.5974269-33.7590643.0073191-.188687zm-10.3148538 17.9634152h-52.3976608v4.491228c0 .7781762.5937285 1.4176798 1.3528976 1.4902229l.1441784.0068532h51.3616842zm-37.4269006-55.3918129h-22.4561403c-1.5945665 0-2.89800073 1.2464854-2.98906929 2.8182229l-.00508276.1759292v46.4093567c0 1.5945665 1.24648542 2.8980007 2.81822285 2.9890693l.1759292.0050827h59.648l-1.0898714-14.1698245c-.111667-1.4437642-.0126811-2.895231.2931238-4.3089044l.1095897-.4697623.1167719-.4685848c.2955387-1.1645462.9364012-2.2124712 1.8384094-3.0061286-2.4999752-1.6036469-4.016221-4.3655817-4.0271345-7.3356726 0-2.2351345 1.7410994-6.1290292 5.1738947-11.5723976.8318011-1.2982075 2.2674812-2.0834231 3.80931-2.0834231 1.5418287 0 2.9775089.7852156 3.8093099 2.0834231l.4629119.7415629c4.7094858 7.6195886 4.7094858 10.022621 4.7094858 10.8308347-.0119793 2.9693879-1.5287665 5.7301546-4.0286316 7.3326784.8333362.7333809 1.443941 1.6835857 1.7655604 2.7422578l.074346.266865.1167719.4670877c.3521577 1.4041819.4975324 2.851356.4322731 4.295838l-.0295596.4813316-1.0898713 14.1728187h5.7532631c1.5945665 0 2.8980007-1.2464854 2.9890693-2.8182228l.0050828-.1759292v-46.4093567c0-1.5945665-1.2464855-2.8980008-2.8182229-2.9890693l-.1759292-.0050828h-22.4561403v4.4912281c0 2.4095671-1.8975305 4.3759423-4.2798053 4.4863396l-.2114228.0048885h-23.9532164c-2.4095671 0-4.3759423-1.8975305-4.4863396-4.2798054l-.0048885-.2114227zm-4.9553216 11.9766082h15.8989474c2.1557323.0024001 3.9150868 1.6965022 4.0219916 3.8262342l.0051429.2009003v7.9869006c4.0287796.3079861 7.447102 3.0757541 8.586447 6.9523263 1.1393451 3.8765723-.2378183 8.0537589-3.459282 10.4926299-3.1366884 2.3746902-7.385156 2.6193027-10.7654822.6472819l-.272139-.1647527h-18.0427602c-.5267601-.0002764-1.0146138-.2773721-1.2846361-.7296598-.2430203-.4070588-.277409-.9021078-.0998366-1.3351757l.0670458-.1418546 3.1857778-5.9179415c-1.096738-.694544-1.7863054-1.873039-1.8615008-3.1597665l-.0068501-.2281166v-14.4018713c.0024001-2.1557323 1.6965022-3.9150868 3.8262342-4.0219917l.2009003-.0051428h15.8989474zm19.1775439 14.9707602c-3.7206552 0-6.7368421 3.0161869-6.7368421 6.7368421s3.0161869 6.7368421 6.7368421 6.7368421 6.7368421-3.0161869 6.7368421-6.7368421c-.0041254-3.718945-3.017897-6.7327167-6.7368421-6.7368421zm-12.7251462-2.8324678-7.9734269 14.809076h12.5125614c-1.5382137-2.3779535-1.9494797-5.3070328-1.1366943-8.0085876l.0992206-.3106638zm42.9017076 7.3236926h-1.9671579c-1.3119252.0028265-2.4615617.8579509-2.8501267 2.0968044l-.0482125.1712691-.1167719.4670877-.0434152.2589941h8.09469l-.0434152-.2604912-.1167719-.4670877c-.3196036-1.2758247-1.4311071-2.1865594-2.7305183-2.2615717zm-33.4551579-16.467833h-15.8989474c-.532148.0007697-.9700772.4032737-1.0267905.9204975l-.0062342.112485v14.4033684c-.0014327.2284821.0731756.4495721.2100044.6293976l.0894531.1026726 5.868538-10.889731c.2609497-.4847528.7668999-.787173 1.3174269-.787462.5001876-.0000071.9637357.2494128 1.240238.6585289l.0771889.127436 3.9073684 7.2443509c1.2745642-1.540922 2.9909559-2.6495093 4.9133924-3.1791867l.3413444-.0874332v-8.2219415c-.0007696-.532148-.4032736-.9700773-.9204974-1.0267731zm32.4723275-2.9944724c-.5139841 0-.9937652.2575775-1.2777544.6859812l-.455932.7308486c-2.6752502 4.3355719-4.2553663 7.7607242-4.2553663 9.245666.0537147 3.1808793 2.6129218 5.7331397 5.7672903 5.8047154l.2210138.0009455c3.1810172.0448066 5.8112995-2.4341428 5.9805155-5.5847823l.0077886-.2208786c0-.7530292-.4596023-3.2291929-4.7098012-9.9765146-.2839891-.4284037-.7637703-.6859812-1.2777543-.6859812zm-14.9715088-16.4675159h-23.9532164c-.7781762 0-1.4176797.5937285-1.4902228 1.3528977l-.0068532.1441784v7.4853801c0 .7781762.5937285 1.4176797 1.3528976 1.4902228l.1441784.0068532h23.9532164c.7781762 0 1.4176798-.5937285 1.4902228-1.3528976l.0068532-.1441784v-7.4853801c0-.7781763-.5937285-1.4176798-1.3528976-1.4902229zm-8.9824562-5.98830405h-5.988304c-.7781762 0-1.4176798.59372845-1.4902229 1.35289761l-.0068532.14417841v1.49707603h8.9824562v-1.49707603c0-.77817624-.5937286-1.41767977-1.3528977-1.49022283z" fill="#000" fill-rule="nonzero"/></g></svg>