<svg height="100" viewBox="0 0 100 100" width="100" xmlns="http://www.w3.org/2000/svg"><g fill="none" fill-rule="evenodd"><path d="m50 21 46 26.2857143-46 26.2857143-46-26.2857143z" fill="#f0e300"/><path d="m18.4894643 15.1346429v38.9696428h26.9789286v-22.4825h26.9789285c11.4026786 0 21.4480937 10.1662623 22.4059078 22.1197351l.0262351.3627649h.0503571v29.9764286h-13.4894643v-16.4871429h-62.9508928v16.4871429h-13.4894643v-68.9460714zm-2.9976786 2.9976785h-7.49410713v62.9508929h7.49410713v-16.4871429h68.94625v16.4871429h7.4941072v-23.9814286h-76.4403572zm56.9555357 16.4871429h-23.98125v19.4848214h43.4660715c-.7412285-10.3764914-9.399125-19.2869913-19.1590905-19.4815734zm-40.4683928-4.4964286c5.8453571 0 10.4917857 4.6464286 10.4917857 10.4917857 0 5.8453572-4.6464286 10.4917857-10.4917857 10.4917857-5.8453572 0-10.4917857-4.6464285-10.4917857-10.4917857 0-5.8453571 4.6464285-10.4917857 10.4917857-10.4917857zm0 2.9975c-4.1967857 0-7.4941072 3.2975-7.4941072 7.4941072 0 4.1966071 3.2975 7.4941071 7.4941072 7.4941071 4.1966071 0 7.4941071-3.2975 7.4941071-7.4941071 0-4.1966072-3.2973214-7.4941072-7.4941071-7.4941072z" fill="#000" fill-rule="nonzero"/></g></svg>