<svg height="100" viewBox="0 0 100 100" width="100" xmlns="http://www.w3.org/2000/svg"><g fill="none" fill-rule="evenodd"><path d="m0 69.9833395 51.9615242-30 51.9807618 30.033321-25.9807618 15-25.990381-15.0166605-25.9807621 15z" fill="#f0e300"/><path d="m85.8936115 13.0296266.1461225.1229308 4.0184019 3.6087035c.5775454.5187989.9185791 1.2313844.9605409 2.0072938.0374533.7046786-.1766742 1.3841361-.6056972 1.9363415l-.1351171.1617421-9.3437195 10.4019164h15.6478883c1.8216451 0 3.3153449 1.4322653 3.4129008 3.230665l.0050679.1873037v56.4376832c0 1.821645-1.4329782 3.315345-3.2307363 3.4129009l-.1872324.0050679h-10.6567383c-.8087159 0-1.4648438-.6561281-1.4648438-1.4648438 0-.7618625.5812068-1.3872087 1.3238157-1.4581426l.1410281-.0067011h10.6567383c.2393934 0 .439001-.1730083.4804027-.400605l.0078785-.0876763v-56.4376832c0-.2393934-.1730083-.439001-.400605-.4804027l-.0876762-.0078785h-18.2792665l-13.2667541 14.768982c-.5195617.578308-1.2321472.9185789-2.0072937.9605406-.0534057.0030518-.1060486.0045778-.1586914.0045778l-.1098633-.0053406-5.8036803 2.8854371c-.3326418.1647949-.6881715.2456664-1.0406496.2456664-.5607603 0-1.1146545-.2044678-1.5533445-.5989075-.67091-.6022454-.9294303-1.5169681-.6844076-2.3720115l.0557455-.1701027 2.2460937-6.0737611c-.0129701-.0900268-.0221254-.1800536-.027466-.2716063-.0374533-.7046786.1760437-1.3847667.6049521-1.9365135l.1350993-.1615701 6.5353392-7.2753906h-25.3471373c-.8087158 0-1.4648437-.6553651-1.4648437-1.4648438 0-.7618623.5812067-1.3872087 1.3238156-1.4581426l.1410281-.0067011h27.9785157l16.075897-17.8962707c1.027588-1.1447755 2.7660353-1.2812696 3.958492-.3426574zm-69.2226215-6.93197035c1.8223825 0 3.3153941 1.43297822 3.4129034 3.23073633l.0050654.18723242v10.2874756c0 .8094787-.655365 1.4648437-1.4648438 1.4648437-.7611443 0-1.3871242-.5805309-1.4581352-1.3236964l-.0067085-.1411473v-10.2874756c0-.2393934-.1730083-.439001-.400605-.48040277l-.0876763-.00787848h-3.0097962c-5.82191699 0-10.57592421 4.66010535-10.72776473 10.44605905l-.00374157.2854472v51.903534c2.42958064-3.0812207 6.15645218-5.0951413 10.3483992-5.2109418l.3823442-.0052752h3.0105591c.2393934 0 .439001-.1730083.4804028-.400605l.0078785-.0876763v-39.7758484c0-.8087158.6561279-1.4648437 1.4648437-1.4648437.7618624 0 1.3872088.5812067 1.4581427 1.3238156l.0067011.1410281v5.0865174h11.4128111c.8094789 0 1.4648438.655365 1.4648438 1.4648437 0 .7611443-.5805308 1.3871243-1.3236964 1.4581353l-.1411474.0067085h-11.4128111v31.7596435c0 1.821645-1.4322655 3.315345-3.2306651 3.4129009l-.1873037.0050679h-3.0105591c-5.82191717 0-10.57518572 4.6593667-10.72700242 10.4452967l-.00374098.2854467v.7743835c0 5.8219172 4.66010533 10.5759244 10.446059 10.7277649l.2854473.0037416h65.8851625c.8094787 0 1.4648437.6553648 1.4648437 1.4648437 0 .7611442-.580531 1.3871243-1.3236964 1.4581353l-.1411473.0067085h-65.8851625c-7.42788315 0-13.49068154-5.9596335-13.65765976-13.3481648l-.00353404-.3130292v-61.1221314c0-7.4286354 5.95963335-13.49070239 13.3481646-13.65766015l.3130292-.0035336zm29.4570922 71.20742795h4.0367127c.7611443 0 1.3871243.5812067 1.4581352 1.3238156l.0067086.1410281v4.0367127c0 .7618623-.5812068 1.3872087-1.3238157 1.4581427l-.1410281.0067011h-4.0367127c-.7618623 0-1.3872087-.580531-1.4581427-1.3236964l-.006701-.1411474v-4.0367127c0-.7611443.5805309-1.3871242 1.3236964-1.4581352l.1411473-.0067085h4.0367127zm-15.333557.0007631c.7611443 0 1.3871242.5805308 1.4581352 1.3236963l.0067085.1411474v4.0359496c0 .7618623-.5812067 1.3872087-1.3238156 1.4581427l-.1410281.0067011h-4.0367127c-.7611443 0-1.3871242-.580531-1.4581352-1.3236964l-.0067085-.1411474v-4.0359496c0-.7618625.5812067-1.3872087 1.3238156-1.4581427l.1410281-.006701zm5.6480408 0h4.0367125c.7611443 0 1.3871243.5805308 1.4581352 1.3236963l.0067086.1411474v4.0359496c0 .7618623-.5812068 1.3872087-1.3238157 1.4581427l-.1410281.0067011h-4.0367125c-.7611445 0-1.3871242-.580531-1.4581352-1.3236964l-.0067085-.1411474v-4.0359496c0-.7618625.5812065-1.3872087 1.3238156-1.4581427zm12.2573852 2.9296875h-1.1070252v1.1062621h1.1070252zm-9.6855164-.0007631h-1.107025v1.1070252h1.107025zm-9.6847534 0h-1.1070251v1.1070252h1.1070251zm48.8334655-33.5014342c6.2110902 0 11.2640383 5.0529479 11.2640383 11.2640379 0 6.0419234-4.7822345 10.9850856-10.760966 11.2495666l-.2902122.009131v6.2622071c0 .7618623-.5805308 1.3872087-1.3236963 1.4581427l-.1411474.006701h-16.7327881c-.7611443 0-1.3871242-.5805309-1.4581352-1.3236964l-.0067086-.1411473v-16.7327881c0-.7611443.5812068-1.3871243 1.3238157-1.4581352l.1410281-.0067086h6.7436219c.3509521-5.8967591 5.2574158-10.5873107 11.2411498-10.5873107zm8.7005617 27.3200988c.8094787 0 1.4648437.656128 1.4648437 1.4648438 0 .7618623-.5805309 1.3872087-1.3236963 1.4581427l-.1411474.006701h-3.2585145c-.8094789 0-1.4648437-.655365-1.4648437-1.4648437 0-.7611443.5805308-1.3871243 1.3236963-1.4581352l.1411474-.0067086zm-19.7372438-13.8031006h-5.4832459v13.8031006h13.8038635v-5.1254273c-4.1854857-1.0406494-7.4539183-4.4265746-8.3206176-8.6776733zm-36.3319396 6.7687989c.7611443 0 1.3871242.5805309 1.4581352 1.3236964l.0067085.1411473v4.0359496c0 .7618623-.5812067 1.3872087-1.3238156 1.4581427l-.1410281.0067011h-4.0367127c-.7611443 0-1.3871242-.580531-1.4581352-1.3236964l-.0067085-.1411474v-4.0359496c0-.7618623.5812067-1.3872087 1.3238156-1.4581427l.1410281-.006701zm9.6847533 0c.7611443 0 1.3871243.5805309 1.4581352 1.3236964l.0067086.1411473v4.0359496c0 .7618623-.5812068 1.3872087-1.3238157 1.4581427l-.1410281.0067011h-4.0367125c-.7611445 0-1.3871242-.580531-1.4581352-1.3236964l-.0067085-.1411474v-4.0359496c0-.7618623.5812065-1.3872087 1.3238156-1.4581427l.1410281-.006701zm9.6855164 0c.7611443 0 1.3871243.5805309 1.4581352 1.3236964l.0067086.1411473v4.0359496c0 .7618623-.5812068 1.3872087-1.3238157 1.4581427l-.1410281.0067011h-4.0367127c-.7618623 0-1.3872087-.580531-1.4581427-1.3236964l-.006701-.1411474v-4.0359496c0-.7618623.5805309-1.3872087 1.3236964-1.4581427l.1411473-.006701zm36.6989137 3.2539367c.8094787 0 1.4648437.655365 1.4648437 1.4648437 0 .7611443-.5805309 1.3871243-1.3236963 1.4581353l-.1411474.0067085h-3.2585145c-.8094789 0-1.4648437-.6561279-1.4648437-1.4648438 0-.7618623.5805308-1.3872087 1.3236963-1.4581426l.1411474-.0067011zm-38.1637574-.3242492h-1.1070252v1.1070252h1.1070252zm-9.6855164 0h-1.107025v1.1070252h1.107025zm-9.6847534 0h-1.1070251v1.1070252h1.1070251zm48.8342286-20.2857971c-4.2821847 0-7.8178562 3.2463791-8.280541 7.4069129l-.0240549.2507103h7.0526121c.7611445 0 1.3871242.5812068 1.4581352 1.3238157l.0067085.1410281v7.5408935c4.4967653-.1136781 8.1207278-3.8047791 8.1214906-8.3290101 0-4.5959473-3.7391664-8.3343504-8.3343505-8.3343504zm-2.7168276 10.5873107h-5.3054808c.7128851 2.5366647 2.5984365 4.58596 5.0327724 5.5246884l.2727084.0997013zm-28.4179687-.0556947c.8094789 0 1.4648437.6561281 1.4648437 1.4648438 0 .7618625-.5805308 1.3872087-1.3236963 1.4581426l-.1411474.0067011h-20.2713012c-.8087158 0-1.4648437-.6553648-1.4648437-1.4648437 0-.7611442.5812067-1.3871243 1.3238156-1.4581353l.1410281-.0067085zm-2.34375-4.2358398c.8094789 0 1.4648437.6561281 1.4648437 1.4648437 0 .7618625-.5805308 1.3872088-1.3236963 1.4581427l-.1411474.0067011h-17.9275512c-.8087158 0-1.4648437-.6553649-1.4648437-1.4648438 0-.7611441.5812067-1.3871242 1.3238156-1.4581352l.1410281-.0067085zm-6.6200256-4.2350768c.8094787 0 1.4648437.6553651 1.4648437 1.4648438 0 .7611443-.5805309 1.3871242-1.3236964 1.4581352l-.1411473.0067085h-11.3075256c-.8087158 0-1.4648438-.6561279-1.4648438-1.4648437 0-.7618624.5812068-1.3872088 1.3238157-1.4581427l.1410281-.0067011zm0-4.2358398c.8094787 0 1.4648437.655365 1.4648437 1.4648437 0 .7611443-.5805309 1.3871243-1.3236964 1.4581352l-.1411473.0067086h-11.3075256c-.8087158 0-1.4648438-.656128-1.4648438-1.4648438 0-.7618623.5812068-1.3872087 1.3238157-1.4581427l.1410281-.006701zm20.010376-.8651735-1.0696411 2.8930664 2.7618409-1.3725279zm25.4081726-24.3911742-21.5148926 23.9509582.9025575.8102416 21.5141297-23.9509582zm-54.3823242 20.9884643c.8087158 0 1.4648437.6561279 1.4648437 1.4648437 0 .7618625-.5812067 1.3872088-1.3238156 1.4581427l-.1410281.0067011h-2.34375c-.8087158 0-1.4648437-.6553649-1.4648437-1.4648438 0-.7611443.5812067-1.3871242 1.3238156-1.4581352l.1410281-.0067085zm8.9637756 0c.8094787 0 1.4648437.6561279 1.4648437 1.4648437 0 .7618625-.5805309 1.3872088-1.3236964 1.4581427l-.1411473.0067011h-2.34375c-.8087158 0-1.4648438-.6553649-1.4648438-1.4648438 0-.7611443.5812068-1.3871242 1.3238157-1.4581352l.1410281-.0067085zm8.9637756 0c.8094789 0 1.4648437.6561279 1.4648437 1.4648437 0 .7618625-.5805308 1.3872088-1.3236963 1.4581427l-.1411474.0067011h-2.34375c-.8087157 0-1.4648438-.6553649-1.4648438-1.4648438 0-.7611443.5812069-1.3871242 1.3238157-1.4581352l.1410281-.0067085zm33.3724976-23.7564086-21.5141297 23.9501953.9025575.8110047 21.5141297-23.9509584zm3.6979676-4.1168213-1.7402648 1.9371033 3.9840697 3.5781859 1.7402648-1.9363402z" fill="#000" fill-rule="nonzero"/></g></svg>