<svg height="100" viewBox="0 0 100 100" width="100" xmlns="http://www.w3.org/2000/svg"><g fill="none" fill-rule="evenodd"><path d="m73 37.5384615v53.0769231l-46-26.5384615v-53.0769231z" fill="#f0e300"/><path d="m93.5000586 41.0117188h-1.4999414v-28.4999415c0-2.3999414-1.9499414-4.49999996-4.5-4.49999996h-29.8501172-.1499414-14.85c-.0254883 0-.0499219.00228516-.0750586.00316407-.0251367-.00087891-.0493945-.00316407-.0750586-.00316407h-29.9998828c-2.3999414 0-4.50000001 1.94994141-4.50000001 4.49999996v28.4999415h-1.50011718c-.9 0-1.49994141.5999414-1.49994141 1.4999414v14.9999414c0 .9.59994141 1.4999414 1.49994141 1.4999414h1.4999414v28.4999414c0 2.3999414 1.94994141 4.5 4.49999999 4.5h30.0000586 14.9999414 30.0000586c2.3999414 0 4.5-2.1000586 4.5-4.5v-28.4997657h1.4999414c.9 0 1.4999415-.5999414 1.4999415-1.4999414v-14.9999414c0-.9001757-.5997657-1.5001171-1.4997657-1.5001171zm-4.5-28.4999415v28.4999415h-13.5750586c-.1509961-1.3213477-.4030664-2.5769532-.8249414-3.2999415-1.4999414-2.7-4.1999414-4.3500585-7.5000586-4.3500585h-.1499414c-2.9664844 0-5.6091797 1.9935351-7.7999414 4.3011914v-26.65125h28.35c.7498828 0 1.4999414.6001171 1.4999414 1.5001171zm-19.0715625 48.3078516c-.0425391.0481641-.084375.0979102-.1284961.1420313-.0520312.0520312-.1061719.1010742-.1606641.1492382-.0376171.0326953-.0759375.064336-.1147851.0952735-.0094922.0075586-.0188086.0151172-.0284766.0226758-1.1271094.8724023-2.7580078.9418359-4.2667383.64125-.9685546-.2174415-1.9444921-.611543-2.8307812-1.1191993-2.2296094-1.3698632-4.2561914-3.6991406-4.4395313-6.554707.2517188-.4751367.4631836-.9745312.6271875-1.494668l4.0136133 3.0102539c.3000586.1499414.5999414.3000586.9.3000586.45 0 .9-.1499414 1.2000586-.5999414.45-.5999414.3000586-1.6500586-.3000586-2.1000586l-4.3998047-3.3001172 4.3999805-3.2999414c.5999414-.45.7500586-1.4999414.3000586-2.1000586-.45-.5999414-1.4999414-.7500585-2.1000586-.3000585l-4.0136133 3.0102539c-.2766797-.8769727-.6858984-1.6959375-1.2019922-2.4358008.1627735-.210586.3434766-.446836.5654883-.7243946.3000586-.3000585.5999414-.7500585.9-1.2000585.0267188-.0536133.0532617-.1072266.0792774-.1608399 1.3957031-1.8692578 4.9078125-6.1391601 8.0207226-6.1391601 1.6080469 0 2.9075977.4623046 3.8480274 1.3816406.3114843.3346875.5797265.7238672.8020898 1.1682422.45.9.7500586 4.95.5999414 6.4499414v2.1000586c0 2.2598437-.0706641 6.5591015-.8375976 9.7676367-.5150391 1.8342773-1.024629 2.804414-1.4338477 3.2904492zm-13.1999414 7.6420898-.2942578.4577344c-.0685547.0515039-.1300781.1075781-.1843946.167168l-4.1322656-10.3304883c1.2411914-.3023437 2.3832422-.8636133 3.3660352-1.6231641.3397851.891211.7897851 1.7272266 1.3501758 2.5082227.7486523 1.0903711 1.6704492 2.0409961 2.6722265 2.8239258l1.9698047 4.3335351-2.4758789-.4369921c-.5999414 0-1.2000586.3000586-1.4999414.7500585zm-14.9784961-1.35c-.3000586-.45-.9-.7500585-1.35-.7500585-.1499414 0-.1499414 0-.1499414 0l-2.5500586.45 1.6498828-3.5998243c.001582-.0010547.0033399-.0021093.0049219-.003164 2.510332-1.4781446 4.2913476-3.6836719 5.2034765-6.0426563.9539649.7284375 2.0559375 1.2714258 3.2514258 1.5732422l-4.8083203 10.4581055zm-11.7-6.1500585c-.434707-.4347071-1.1487305-1.4329688-1.6024219-3.5288086-.0091406-.0733008-.0228515-.1471289-.0476367-.2211328-.7500586-3.15-.9-6.8999415-.9-9.45 0-.9 0-1.6500586 0-2.1000586s0-1.6500586.1499414-3.0000586c0-.0414844-.0026367-.0829688-.0050976-.1242774.001582-.0086133.0036914-.016875.0050976-.025664.1499414-2.1000586.45-3.0000586.5999414-3.2999414.8811914-1.7625586 2.483086-2.6597461 4.6617188-2.6964844.0464062-.0007031.0914062-.0035156.1383398-.0035156h.0005274c.1038867 0 .2083007.0050976.3130664.0142382 3.2204882.2856446 6.7742578 4.8378516 7.9363476 6.4357032.0439453.0660937.0986133.1248046.1601367.1778906.274043.3686133.5225977.7141992.7398633 1.022168.1499414.1499414.3000586.45.45.5999414-.5438672.7769531-.9657422 1.6349414-1.2473437 2.5519921l-4.0027149-3.0019921c-.5999414-.45-1.6500586-.3000586-2.1000586.3000586-.45.6001171-.3000586 1.6500585.3000586 2.1000585l4.4001563 3.2999415-4.3999805 3.2999414c-.5999414.45-.7500586 1.4999414-.3000586 2.1000586.3000586.45.7500586.5999414 1.2000586.5999414.3000586 0 .5999414-.1499414.9-.3000586l3.9505078-2.9629688c.1125.4600195.2464453.9045703.3995508 1.3129102-.1499414 3.4500586-2.8499414 6.1500586-5.7000586 7.3499414-.5081836.2344922-1.0573242.4276758-1.6203516.556875-1.6212304.3032226-3.2610937.1119726-4.3795898-1.0066992zm25.2228516-13.8042774c.0003515.0007031.0007031.0012305.0010546.0019336.0268946.0492188.0515039.0998438.0769922.1497656.3774024.7664063.6001172 1.5890625.6417774 2.4176953.0043945.0943946.007207.1893164.007207.2847657 0 .1283203-.0047461.2566406-.0137109.3846093-.0005274.0068555-.0010547.013711-.0015821.0205665-.0448242.6089062-.1937109 1.2100781-.4413867 1.7764453-.3127148.1291992-.588164.3582421-.7432031.6683203-1.0499414 1.8-3.0000586 3.0000586-5.0999414 3.0000586-.8400586 0-1.6548047-.1708594-2.398711-.4971094-.918457-.4665234-1.703496-1.1613867-2.2768945-2.0102344-.0203906-.1021289-.0566015-.2068945-.1244531-.3425976-.5227734-.7841602-.8173828-1.6822266-.884707-2.5948828-.0005274-.0068555-.0012305-.013711-.0015821-.0205665-.0089648-.1279687-.0137109-.256289-.0137109-.3846093 0-.0949219.0028125-.1891407.007207-.2830078.0713672-1.4034375.6778125-2.7736524 1.9427344-3.6170508.1724414-.2297461.2780859-.5037891.3185156-.7878516 1.0263867-.819668 2.3238281-1.312207 3.7314844-1.312207 2.2686328.0003515 4.2535547 1.2763476 5.2729102 3.145957zm.7270312-5.7241406c-.2079492.2696484-.4086914.5310351-.5999414.7785351-.0580078.0966797-.1133789.1879102-.1666406.2749219-.0620508.0383203-.1102149.0692578-.1269141.1270899-1.2763476-.8854102-2.7896484-1.4486133-4.4214258-1.5730664-.0098437-.000879-.0195117-.0014063-.0293554-.0022852-.0910547-.0066797-.1821094-.0130078-.2738672-.016875-.1272657-.0059766-.2545313-.009668-.3817969-.009668s-.254707.0038672-.3819727.009668c-.0914062.0038672-.1819336.0101953-.2726367.016875-.0105469.0008789-.0210937.001582-.0316406.0024609-1.3243359.10125-2.5708008.4909571-3.6759375 1.1083008-.2385352.1244531-.4744336.2589258-.7076953.4016602-.0100195-.0133594-.0200391-.0256641-.0300586-.0390235-.2801953-.3624609-.5813086-.7549804-.9-1.1645507v-30.335625h12.0000586v30.421582zm-45-28.9214649c0-.7500586.7500586-1.4999414 1.4999414-1.4999414h28.6500586v26.8498828c-2.3999414-2.3999414-5.0999414-4.3500585-8.1-4.3500585-3.4500586.1499414-5.9999414 1.6500585-7.5000586 4.3500585-.1499414.3000586-.45.9-.7500586 3.1500001h-13.7998828zm-2.99988281 31.5h1.49994141 14.9999414v1.9499414 1.8c.1499414 2.1000586.1499414 5.2500586.5999414 8.2499415h-15.5998828-1.49994141zm2.99988281 43.4998829v-28.4999415h14.7508594c.493418 1.7325 1.1975976 3.1983399 2.1991992 4.1999415 1.35 1.2000585 3.15 1.9499414 5.2500586 1.9499414.6292969 0 1.2592969-.0680274 1.9038867-.1982813l-1.4538867 3.1983399c-.3000586.45-.1499414 1.0499414.1499414 1.4999414.45.45.9.7500586 1.4999414.5999414l4.3500586-.7500586 1.35 2.3999414v17.1000001h-28.4999414c-.7500586.0003514-1.5001172-.5997657-1.5001172-1.4997657zm33.1500586-13.7998829c.1499414-.1499414.3000586-.3000586.45-.5999414l5.4-11.8501172 4.6499414 11.8499415c.0031641.0093164.007207.0188085.0105469.028125.159082.4405078.601875.871875 1.1895117.871875h.0840234.065918v14.9999414h-11.8499414zm44.8500586 13.7998829c0 .7500586-.5999414 1.4999414-1.4999414 1.4999414h-28.5001172v-18.4999219l.5999414-1.0000195 3.7499414.5999414c.1091602 0 .2176172-.0070313.3250195-.0179297l.1249805.0179297c.5999414 0 1.2000586-.1499414 1.4999414-.5999414s.45-1.0499414.1499414-1.4999414l-1.5713086-3.2853516c.9794532.2879297 1.9859766.4354101 2.9213086.4354101 2.1000586 0 3.9000586-.7500585 5.5499414-2.25.9430664-.9430664 1.6057618-2.2985156 2.0773828-3.9000586h14.5726172v28.4999415zm2.9998828-31.5h-1.4999414-15.4291992c.400957-2.6448047.5076562-5.6074219.5791992-8.4000586 0-.7500586 0-1.35 0-1.8 0-.3406641 0-.9958008-.024082-1.8h14.874082 1.4999414z" fill="#000" fill-rule="nonzero"/></g></svg>