<svg height="100" viewBox="0 0 100 100" width="100" xmlns="http://www.w3.org/2000/svg"><g fill="none" fill-rule="evenodd"><path d="m31 5v60l52 30v-30l-26-15v-30z" fill="#f0e300"/><path d="m17.1652961 5.1752399c2.2395832-.01487806 4.1234923 1.67645975 4.3489583 3.90439273-.0322095 1.58374457-.5783991 3.11403507-1.555647 4.35992337-.2446546.3714363-.4701206.7552082-.6750274 1.1492598-.7682291 1.5700384-1.3569079 3.220943-1.7550712 4.9225603-.3688323 1.9323602-.5278371 3.8980263-.4745169 5.8635259l.0256407.6551145v1.1972312l3.9795779 3.9692983c.5132378.5138661 1.1951993.8210027 1.9160304.8675678l.1974565.0061987h7.9104989c1.8704553-.0051939 3.6701778.6944799 5.0437232 1.9527647l.2249172.2148614 8.0434484 7.9680647c1.0163103 1.006716 1.4919133 2.4369518 1.2808388 3.8521107-.1987009 1.3358918-.9878955 2.5067388-2.1406978 3.1950167l-.207164.1163868-8.283306 4.3695176v16.2897477c1.8256579.8600604 2.9913651 2.6973684 2.9913651 4.7155977 0 1.9412639-1.0777618 3.7146226-2.7836698 4.6127535l-.2076953.1035293v10.247396c0 2.8940514-2.3464912 5.2398574-5.2398575 5.2398574-2.8217001 0-5.1222244-2.2299818-5.2354871-5.0238596l-.0043703-.2159978v-9.7313597l-6.6879112.0150767c-3.6300712-.0006852-6.9024123-2.1861293-8.2942707-5.5393367-1.35142553-3.2567355-.66960723-6.9933269 1.7200327-9.5613021l.2152743-.2235114 5.5612663-5.5838815v-19.162555l-6.3562224-6.3671875c-1.68722599-1.6803726-2.63294967-3.9658716-2.62609652-6.3473135-.16721508-4.1981907.25424878-8.3991228 1.25274106-12.4801261.52426-2.0614036 1.34662846-4.0364583 2.44037846-5.86074566 1.46089-2.27469214 3.2721636-3.57743437 5.1225012-3.68350783zm33.9878014 2.82229308c2.1520853.01193752 3.9890432 1.53147929 4.4202166 3.62013802l4.0371575 22.5085625c.0411182.3440242.2336896.6524123.5249451.8408718.2390743.1539004.5254766.212641.8026723.1675905l.1375689-.0312144 5.0185033-1.4583333c1.2920322-.3748174 2.6700293-.3030946 3.9127907.1990098l.2641555.1141754 10.5105538 4.8492325c2.2800827 1.0491828 3.6552179 3.4038008 3.4676572 5.8887263l-.0239895.2488833-.9703947 8.2791941c-.1754386 1.4631305-1.0540023 2.7480812-2.3533444 3.4429824-.8078627.4353414-1.7291675.6086717-2.6361721.4994045l-.2469144-.0368222 6.2349232 6.9195449c.6318531.7010691.8963816 1.658443.71409 2.5836076-.1822918.9258498-.790159 1.7118968-1.6406251 2.1203398l-.6252569.291716-.2238384.1016503 8.9679276 15.5400219c.6983279 1.198602.8874726 2.6281523.5235745 3.9672423-.5461896 2.0476974-2.272478 3.5649672-4.372944 3.843887-2.023331.2679298-4.0104393-.6620272-5.1027631-2.3694629l-.1220176-.2004383-9.9671053-17.283443c-3.3120889.8538925-6.7153235 1.3061951-10.1356908 1.3473135-.875-.0038377-1.7491228-.0432018-2.620614-.1177412l-.6530976-.0624946v15.8963818c0 2.8940514-2.3464912 5.2398574-5.2398574 5.2398574-2.8217003 0-5.1222246-2.2299818-5.2354872-5.0238596l-.0043703-.2159978v-19.18517c-.2994791-.1768093-.5989583-.3501919-.8984376-.5420779l-.1001404-.0708436-.0944868-.0785534-1.375411-1.0478344c-.7065516-.5393365-1.1376098-1.3637609-1.175987-2.2519188-.0354251-.8192055.2666615-1.6138858.8302591-2.2018549l.1463035-.1425803 5.4029605-4.9150221c2.6429354-2.385965 3.7454171-6.0291264 2.8877882-9.466968l-.0807706-.3027689-2.2532895-8.0331688c-.2642545-.9468202-.4899123-1.903728-.6766229-2.8682675l-.1327248-.7247972-4.2653509-24.6820175c-.3700656-2.4561404 1.30551-4.75260407 3.7575384-5.14871161l.3173685-.03050432c.1370724-.01154603.2463651-.01746709.3487499-.01746709zm-19.1029329 71.97916662h-4.4908171v9.7313597c0 1.2404056 1.0053455 2.2457511 2.2457511 2.2457511 1.1880655 0 2.1608803-.9233121 2.2398856-2.0919804l.0051804-.1537707zm19.4620338-7.9728619v17.7042216c0 1.2404056 1.0053455 2.2457511 2.2457511 2.2457511 1.1887222 0 2.1615643-.9233121 2.2405707-2.0919804l.0051805-.1537707v-16.3452577c-.6469298-.1350055-1.2842654-.2905702-1.90858-.4701207-.248538-.0726425-.4992081-.1474171-.7487614-.2296032l-.3730863-.1294977h-.0130207l-.0479716-.0178179c-.3166118-.1018823-.6283503-.2122929-.9376523-.3300135zm37.347862 14.192023-9.1666667-15.8867872c-1.1425439.4523026-2.2899123.8646929-3.4421054 1.237171l-.8650494.271875 9.5812776 16.6173245c.4550439.785362 1.3390898 1.2198465 2.2388979 1.0999178.8998082-.1192434 1.6392544-.7689144 1.8736295-1.6461074.1388888-.5080409.092051-1.0464046-.1289618-1.5193097l-.0910217-.174084-9.1666667-15.8867872zm-56.816749-27.1779056h-11.9771107v.6962719l-.0102796.0507126c-.0034265.1781799-.0390625.3543039-.104852.5194629-.0555098.1346627-.130294.2604594-.2217504.3733424l-.0969173.1084284-5.9957512 6.0156249c-1.7091556 1.7139529-2.2176535 4.2886513-1.2897477 6.5234376.8959088 2.1583862 2.9615692 3.5910283 5.2809889 3.6872648l.2645154.0051694 8.169545-.0150768h6.7372533c.1596765-.0034265.3179824-.0219299.4742324-.0555099.3624295-.0746006.6991811-.2378154.9809081-.4741085l.1361423-.1241644c.5783991-.5838816.7956416-1.4425715.5585253-2.2347862-.2371164-.7922151-.8908992-1.3904881-1.7009321-1.5563323-.0986843-.0182748-.1982822-.0313718-.2983877-.0388848l-.1504883-.0070308h-13.1044409c-.9080317-.0006852-1.7269737-.5475603-2.0744242-1.3870614-.3236477-.7835343-.1780703-1.6769128.3654134-2.3146252l.1225252-.1326062 5.6167761-5.6167763c.6421328-.6428179 1.6084157-.8353893 2.4472314-.4879386.7870324.325735 1.317476 1.0658666 1.3807071 1.9053058l.0063543.1691186v4.870477h4.4839639zm38.5882675-5.868284-2.627467-9.3777413c-1.4206415-.8929551-3.2010691-.988898-4.7094298-.2549342-.7531525.4111842-1.6488488.4721765-2.4506579.1665297-1.5915494-.7261971-3.4037698-.7769331-5.0273433-.1504761l-.2844714.1175813 1.4158442 5.0431744c1.283851 4.5068658-.0455482 9.3510939-3.4326174 12.5728264l-.2454254.227338-5.4077576 4.9163925 1.4466832 1.1019736c1.4322916.9183116 2.9742323 1.6529607 4.5901863 2.1875.3782895.1418586.7017544.2350604 1.0252193.3289474 5.8813049 1.4473684 12.0456414 1.2637063 17.8303179-.5311128 2.0909574-.5606668 4.1441373-1.2509316 6.1485211-2.0666625l.8560021-.3572686c.640762-.2697171 1.2140423-.5216024 1.7130976-.7526588l.5628069-.267078-11.0814144-12.3177082-.0376919-.0644188c-.0788103-.1021109-.1445998-.2145012-.1946272-.3337446-.026727-.0486568-.0507128-.0986842-.0719574-.1500823l-.0104508-.0199595-.0073671-.0184176-2.627467-9.3777413zm-46.0663377 13.2846764-3.0633223 3.0633225h3.0633223zm-11.9544956-52.1402138c-.1391174.4296875-.2645284.8518367-.3803454 1.2589091-.9148848 3.8137335-1.2979714 7.7350604-1.1389802 11.6536458-.004515 1.494453.553102 2.931843 1.5568679 4.0299256l.1934061.2018453 6.7948192 6.805784c.2452542.2458538.3960645.5672627.429935.9095937l.0072907.1478349v16.7221767h11.9764257v-1.0779881c-1.8160637.1788653-3.5615407-.7552082-4.4202304-2.3656798-.3433388-.6448739-.5215186-1.3651316-.5201481-2.0956688.0248581-1.5909091.8683336-3.0506896 2.2198903-3.8697275l.1965024-.1125916 2.5239858-1.3349781v-3.9946545c.0006852-.4995888.2508222-.9655976.6661182-1.2431471.4152961-.2775493.9416119-.3289473 1.4028235-.1384319.1372328.0560238.2648284.1320929.3790284.2256051l.1095955.0992303 3.2017544 3.2024397c.3358005.3358005.4920505.8120889.4207786 1.2815242-.0633529.4178851-.2994369.787037-.6461628 1.0193758l-.1350872.0805419-1.5672972.8299069 1.5433114 2.5685307 4.5093201-2.3711623c.4242051-.2220395.7161458-.633909.7860472-1.1081414.0621346-.4209309-.0582087-.8456521-.325894-1.1701999l-.10722-.1168068-8.0434484-7.9660088c-.708502-.6990131-1.6289708-1.1381773-2.6126388-1.251194l-.2471475-.021421-3.3963814 5.6606359c-.4063872.6757128-1.1369244 1.0896381-1.9257128 1.0896381-.73181 0-1.4145751-.356905-1.8332068-.9489049l-.0918206-.1407332-3.8486842-6.4151589-.0198739-.0541393c-.3865132-.2083334-.7489036-.458772-1.0805044-.7460526l-.2428235-.2222862-4.0419409-4.0302905c-.4778459-.474108-.7642589-1.1039675-.8108402-1.7706409l-.006731-.2009875v-1.2678179c-.113761-2.4177632.064419-4.8396383.5317983-7.2149123.1973684-.8327851.4359649-1.655044.714386-2.4643203l.216261-.6044846zm39.437363-2.9975328c-.3323739-.2453398-.7490405-.348136-1.1567982-.283717-.7527091.1386737-1.2717022.8194468-1.222743 1.5681028l.0159172.1410528 4.2543859 24.6463816c.1551536.8881578.3458334 1.7692982.5723905 2.6413158l.1883004.6940735c2.3444353-.8552632 4.9266721-.7860472 7.2217653.1932564 2.247807-1.1588542 4.9218751-1.1355536 7.1491228.0630483.5550987-.297174 1.2081793-.3411808 1.7944798-.1284164l.1737219.071536 5.2727523 2.4253014c1.1225982.5149594 1.8063513 1.6645658 1.7351343 2.8852411l-.0163843.1835639-.4701205 3.9823189-.2412281 2.0209705c-.1041667.6400767.1925712 1.2794681.7490405 1.6125274.444079.24534.982045.2494517 1.4295504.0102796.3935034-.2109375.6721013-.5828537.7668504-1.0143319l.0246792-.145893.9690241-8.2757673c.1432293-1.2220054-.4755208-2.4007164-1.5460155-2.980884l-.1727344-.0865504-10.5064419-4.8471765c-.5914885-.2732318-1.2540297-.3432977-1.8862069-.2042022l-.209462.0541201-5.0185032 1.4569626c-1.1478893.3337446-2.3841831.1548795-3.3915845-.4893093-.9396016-.6018823-1.5944444-1.5547879-1.8224476-2.6403024l-4.045151-22.530339c-.0589365-.4091282-.27892-.7778235-.6112939-1.0231633zm19.2077851 32.9989035 2.1600877 7.7117598.8970668 1.0101426c-.014163-.1973684-.0167519-.395346-.0075637-.5929175l.0226404-.2959258h.0178181l-.0075384-.0842926.7113487-6.0012337zm-38.02426 3.6348684-2.3231907 1.2280702c-.2896279.1433149-.5178672.3842217-.6461534.6777284l-.0487478.1288779c-.0678455.1651591-.1048522.341283-.1089639.5194628-.0027412.2398574.0548246.475603.1672149.687363.3631321.6888543 1.1845899.9813026 1.8930285.697371l.1313683-.0600356.4187227-.2151863.0947246-.060307 1.962567-1.0368697zm-5.3220942-12.8659539h-3.6944902l1.8469025 3.0797697zm47.3156524-13.212034c.9991776 4.0433114-1.1780428 8.1949012-5.0712719 9.6731084-.930647.3652688-1.9222863.5503016-2.9221491.5450509-3.4834156-.0016023-6.589227-2.1925288-7.7590462-5.4730935-.3179824-.8861019-.4783442-1.8201754-.4750236-2.7611019-.0046913-4.1639256 3.1011201-7.6761241 7.2348921-8.1818806 4.1337719-.5050714 7.993421 2.1552906 8.9925987 6.1979167zm-48.4141996-7.7467105c4.5470121 0 8.2339638 3.6862663 8.2339638 8.2339638 0 4.547012-3.6869517 8.2339637-8.2339638 8.2339637-4.5476974 0-8.2339639-3.6869517-8.2339639-8.2339637.0047972-4.5456415 3.6883225-8.2291666 8.2339639-8.2339638zm40.4207786 4.4908168c-1.3898027 0-2.7227249.5523576-3.7047698 1.5350877-.9827302.9827302-1.5351939 2.3156525-1.5351939 3.7047699-.0026351.5969023.0987903 1.1890075.2995854 1.750274.7415021 2.0922423 2.7206688 3.4902686 4.9403783 3.4895833.6297972.0047972 1.2541117-.111705 1.8400493-.3426535 2.3588268-.8977522 3.7417763-3.3497807 3.2915296-5.832648-.4509321-2.4835527-2.6075933-4.2927632-5.1315789-4.3044134zm-40.4207786-1.4967105c-2.8940516 0-5.2398574 2.345806-5.2398574 5.2398575 0 2.8940514 2.3458058 5.2398574 5.2398574 5.2398574 2.8933663 0 5.2391723-2.345806 5.2391723-5.2398574 0-2.8940515-2.345806-5.2398575-5.2391723-5.2398575zm-9.6532346-8.93434754c-.8580044.00890895-1.9195451.87582228-2.8433388 2.32456144-.1398026.219755-.2674221.4465155-.3897621.6762203l-.1804133.3462577 2.9941063 1.4973958c.2007949-.3762335.4324288-.7620614.6859923-1.1650219.5790844-.7284814.9587446-1.59608 1.1012884-2.51644738-.0884045-.68256579-.6805098-1.18558123-1.3678728-1.16296596z" fill="#000" fill-rule="nonzero"/></g></svg>