<svg height="100" viewBox="0 0 100 100" width="100" xmlns="http://www.w3.org/2000/svg"><g fill="none" fill-rule="evenodd"><path d="m73 34.5384615v53.0769231l-46-26.5384615v-53.0769231z" fill="#f0e300"/><path d="m43.5903125 51.9613672c2.6936719.1891406 4.8612305 2.2730273 5.1535547 4.9549219.8695898 7.9439062.8695898 16.0003125 0 23.9447461-.0587109.5480859-.1995117 1.0845703-.4187109 1.5911718-.8249415 1.9255078-2.640586 3.215918-4.7367774 3.3633985-4.2278906.2970044-8.5291287.4804211-12.8118617.5464819l-1.8442516.0211157c-.7235156 0-1.3125586-.5835937-1.3181836-1.3083398-.0054492-.728086.5802539-1.3227539 1.3083399-1.3283789 4.8316992-.0367383 9.7038281-.2253516 14.4812109-.560918 1.1060156-.0778711 2.0640235-.7581445 2.4997852-1.7757422.1154883-.2666601.1886133-.5452734.2191992-.8321484.8491992-7.7574024.8491992-15.6208008.0003516-23.3748633-.1541602-1.4132812-1.2970899-2.5112109-2.7175782-2.6110547-8.5888476-.6032812-17.3032031-.7258008-25.9011914-.3635156-2.1202734.0870117-4.3105078.2093555-6.511289.3635156-1.42119145.0998438-2.56482426 1.1977735-2.71898442 2.6107031-.84849609 7.7484375-.84902344 15.6083204-.00175781 23.3615039.14942139 1.3601221 1.20644714 2.4296558 2.54480553 2.6039889l.1761124.0176127.4981641.0326953c1.8806953.1291406 3.3615871 1.6516803 3.4582236 3.5063164l.0050186.193v4.7496094c0 .3434766.2385351.4985156.3410156.5493164.1023047.0508008.3698438.14625.6423047-.0615234 1.9891406-1.5141797 4.7475-3.8272852 6.5960156-6.2497266.4417383-.5788476 1.2691407-.6899414 1.8478125-.2483789.5788477.4415625.6901172 1.2689648.2483789 1.8478125-2.0267578 2.6564063-4.9767187 5.1358008-7.0943554 6.7478906-.5797266.4417383-1.2687891.6676172-1.9643555.6676172-.4906055 0-.9845508-.1123242-1.445625-.340664-1.0532031-.5214551-1.729477-1.5457439-1.8013679-2.7060675l-.0063665-.2061005v-4.7496094c0-.5205259-.3784615-.9623889-.8812075-1.0536785l-.1181089-.0147199-.499043-.0328711c-2.70404292-.189668-4.87318355-2.2774219-5.16814449-4.9654688-.86818359-7.9442578-.86765625-15.9969726.00158203-23.9352539.2925-2.6813672 2.4609375-4.7652539 5.15566406-4.9543945 2.2262695-.155918 4.4419922-.279668 6.5861719-.3677344 8.694668-.3663281 17.5086914-.2425781 26.1954492.3677344zm32.7970898-22.3662305c.728086.0110742 1.309043.6104883 1.2979688 1.3383985-.01125.7280859-.6125977 1.3099218-1.3383984 1.2979687-6.5620899-.10125-13.2089063.0812109-19.7572852.5419336-1.4204883.099668-2.5641211 1.198125-2.7196875 2.6117578-.8486719 7.7533594-.8486719 15.6167578 0 23.3708203.032168.2886328.1059961.5688281.219375.830918.4366406 1.0225195 1.3944727 1.7024414 2.5017188 1.7803125 5.0935937.3579687 10.2799652.5473264 15.4501022.5656038l1.9627884-.0011702c1.2139453 0 2.3489648.5900976 3.0382031 1.5823828 1.8068555 2.600332 4.8116602 5.145293 7.0141992 6.8224219.262793.2002148.5148633.1248047.6414258.0622265.1023047-.0508007.3406641-.2058398.3406641-.5496679v-4.7496094c0-1.9425586 1.5194531-3.5666016 3.4588476-3.697207l.5013281-.0348047c1.424004-.0998438 2.567461-1.2014649 2.7221485-2.6194922.8488476-7.7526563.8488476-15.6128906.0001758-23.3632617-.1555664-1.4131055-1.2999024-2.5113868-2.7210938-2.6112305-1.7566875-.1231875-3.509775-.2260125-5.2279425-.306945l-1.5311981-.0660628c-.7279102-.0237305-1.2984961-.6329883-1.2747656-1.3607227.0239062-.7277343.6349218-1.2960351 1.3605468-1.2745898l.2793164.0107226c2.141543.0878907 4.3572657.2116407 6.5786133.3673829 2.6936719.1889648 4.8626367 2.2725 5.1575977 4.9538671.8695898 7.9412696.8695898 15.9946875 0 23.9371875-.2928516 2.6866407-2.4612891 4.7742188-5.1558399 4.9631836l-.503789.0349805c-.5679492.0383203-1.0070508.5066016-1.0070508 1.0669922v4.7496094c0 1.2445312-.6924023 2.3603906-1.8070313 2.9125195-.4608984.2279883-.9544921.3404883-1.4449218.3404883-.6953907 0-1.3846289-.2258789-1.9647071-.6679688-2.3531836-1.7915625-5.5789453-4.5326953-7.5819726-7.4155078-.1714966-.2468628-.4431226-.4062469-.7444576-.4422357l-.1381401-.0077643c-5.875664.0279492-11.7921093-.1638281-17.5877929-.5711133-2.0988282-.1474804-3.9148243-1.4384179-4.7394141-3.3690234-.215332-.4972852-.3566602-1.0320117-.417832-1.5836133-.8697657-7.9463672-.8697657-16.0027734-.0001758-23.9470312.2949609-2.6820703 2.4632226-4.7656055 5.155664-4.9545703 6.6234375-.4658204 13.346543-.6502149 19.9828125-.548086zm-46.4721679 35.4909375c.7280859 0 1.3183594.5902735 1.3183594 1.3183594 0 .6825806-.5187951 1.2440369-1.1835688 1.3115526l-.1347906.0068068h-16.2987891c-.7280859 0-1.3183594-.5902735-1.3183594-1.3183594 0-.6825806.5187951-1.2440369 1.1835688-1.3115526l.1347906-.0068068zm10.8653906-5.5782422c.7280859 0 1.3183594.5902735 1.3183594 1.3183594 0 .6825806-.518795 1.2440369-1.1835687 1.3115526l-.1347907.0068068h-27.1641797c-.7280859 0-1.3183594-.5902735-1.3183594-1.3183594 0-.6825806.5187951-1.2440369 1.1835688-1.3115526l.1347906-.0068068zm18.4327734-12.2967773h15.2797852c.7282617 0 1.3183594.5902734 1.3183594 1.3183594 0 .6825805-.5186405 1.2440368-1.1835398 1.3115525l-.1348196.0068068h-15.2797852c-.7282617 0-1.3183593-.5902734-1.3183593-1.3183593 0-.6825806.5186405-1.2440369 1.1835397-1.3115526zm-15.6236132-41.56382814c2.6926171.18878906 4.8607031 2.27197266 5.1549609 4.95298824.8695898 7.9456641.8695898 16.0024219 0 23.9465039-.0608203.5535352-.2023242 1.0889649-.420293 1.591875-.8237109 1.9249805-2.6400586 3.2153907-4.7374804 3.3618165-5.1642188.363125-10.4126042.5554166-15.6303415.5728009l-1.9549906-.0016877c-.3607031 0-.6881836.1682227-.8843554.4505274-2.0010938 2.8803515-5.2277344 5.6228906-7.5821485 7.4163867-.5799023.4415625-1.2689648.6674414-1.9643554.6674414-.4907813 0-.9845508-.1125-1.445625-.3408398-1.0527051-.5214551-1.7287945-1.5457439-1.8006665-2.7060675l-.0063648-.2061005v-4.7497852c0-.5603906-.4385742-1.0291992-.9986133-1.0671679l-.5116992-.0351563c-2.61359318-.1828952-4.7338841-2.1546942-5.12571769-4.7278157l-.03082528-.2355437-.12378867-1.1925805c-.74271445-7.5556805-.7011-15.2010337.12484336-22.7439038.29443359-2.68171878 2.46322266-4.76490238 5.15759768-4.95369144 2.1817969-.15380859 4.3975195-.27773437 6.5847656-.3684375 8.6899219-.36544922 17.5035938-.24152344 26.1950977.3684375zm-26.085586 2.26582031c-2.1628125.08964844-4.3528711.21216797-6.5100586.36421875-1.42171872.09966797-2.56605466 1.19759766-2.72109372 2.61087888-.84832032 7.7493164-.84867188 15.6095508-.00087891 23.3622071.15574219 1.4189062 1.29972656 2.5207031 2.72056643 2.6201953l.5015039.0344531c1.8772969.1272715 3.3588967 1.6494203 3.4555841 3.5051439l.0050214.1931178v4.7497852c0 .3436523.2381835.4986914.340664.5494922.1023047.050625.3694922.1460742.6419531-.0615235l.7201483-.5579147c2.1027423-1.6571277 4.6789636-3.9404477 6.294051-6.2648587.6458313-.9302673 1.6850074-1.5076676 2.8156834-1.5762087l.2483595-.0068773c5.7925196.0293555 11.6423438-.160664 17.3870508-.5646093 1.1070703-.077168 2.0647266-.7572657 2.5001367-1.7746875.1154883-.2664844.1889649-.5459766.2209571-.8363672.8486718-7.7531836.8486718-15.616582-.0003516-23.371875-.1550391-1.41275392-1.2983203-2.51085939-2.718457-2.61035158-8.5937696-.60292968-17.3079493-.725625-25.9008399-.36421875zm68.8732031 33.71976563c.7282618 0 1.3183594.5902734 1.3183594 1.3183594 0 .6825805-.5186405 1.2440368-1.1835397 1.3115525l-.1348197.0068068h-27.1640039c-.7282617 0-1.3183593-.5902734-1.3183593-1.3183593 0-.6825806.5186405-1.2440369 1.1835397-1.3115526l.1348196-.0068068zm0-5.578418c.7282618 0 1.3183594.5902735 1.3183594 1.3183594 0 .6825806-.5186405 1.2440369-1.1835397 1.3115526l-.1348197.0068068h-27.1640039c-.7282617 0-1.3183593-.5902735-1.3183593-1.3183594 0-.6825806.5186405-1.2440369 1.1835397-1.3115526l.1348196-.0068068zm-57.4811718-12.6708398c.7280859 0 1.3183593.5902734 1.3183593 1.3183594 0 .6825805-.518795 1.2440368-1.1835687 1.3115525l-.1347906.0068068h-15.2797852c-.7280859 0-1.3183594-.5902734-1.3183594-1.3183593 0-.6825806.5187951-1.2440369 1.1835688-1.3115526l.1347906-.0068068zm11.8843945-5.578418c.7280859 0 1.3183594.5902735 1.3183594 1.3183594 0 .6825806-.518795 1.2440369-1.1835687 1.3115526l-.1347907.0068068h-27.1641797c-.7280859 0-1.3183594-.5902735-1.3183594-1.3183594 0-.6825806.5187951-1.2440369 1.1835688-1.3115526l.1347906-.0068068zm0-5.5782422c.7280859 0 1.3183594.5902735 1.3183594 1.3183594 0 .6825806-.518795 1.2440369-1.1835687 1.3115526l-.1347907.0068068h-27.1641797c-.7280859 0-1.3183594-.5902735-1.3183594-1.3183594 0-.6825806.5187951-1.2440369 1.1835688-1.3115526l.1347906-.0068068z" fill="#000" fill-rule="nonzero"/></g></svg>