<svg height="100" viewBox="0 0 100 100" width="100" xmlns="http://www.w3.org/2000/svg"><g fill="none" fill-rule="evenodd"><path d="m83 36.5384615v53.0769231l-46-26.5384615v-53.0769231z" fill="#f0e300"/><path d="m11.9167825 61.581197c-.8605787.4037552-1.2402618 1.4202557-.856749 2.2890407l3.9308692 8.4383753c.193124.4201681.5454526.7473303.9787509.9087228.1898415.0689339.391172.104495.5935968.104495.2533044.0021884.5033263-.0519739.7336528-.1564688l29.6995361-13.8721114-2.6900605 28.1266413c-.0519739.5536589.1613928 1.0980173.5755428 1.4678528 1.3020833 1.0777748 2.9247637 1.6916141 4.6130952 1.7468706.4655769 0 .9284183-.0590862 1.3797707-.1739758 2.4110426-.629158 4.2804622-2.7775954 5.5557378-6.4469538l11.6875657-34.608062 23.1475404-10.797444c6.8135065-3.1791622 10.3247546-9.6255689 7.9667804-14.6571911-1.3381915-2.6298799-3.9013262-4.4188768-6.8310136-4.769564-3.2552084-.4912903-6.582086.0207895-9.5385811 1.4683999l-26.7124038 12.5257134-28.7202381-11.2334778c-3.6168373-1.3622636-6.4814206-1.3272496-8.4903492.1230962-1.6855962 1.3830532-2.6446516 3.4620098-2.6036196 5.6421787.017507.5531119.2959778 1.0646447.7511598 1.3808649l19.3392202 13.2943802-11.0753678 5.241159-18.57164732-4.7175902c-.76100756-.1871061-1.55319944.1559218-1.93890056.8386949l-4.62896092 8.3327862c-.24017423.4415047-.27792367.9656206-.1034007 1.4372155.17342871.472142.54216988.845807 1.01212353 1.026348l13.74901527 5.678287zm8.0001531-34.7470238c.1028536-.7385767.4765187-1.410955 1.0487788-1.8869266.996258-.716693 2.8131566-.611651 5.2411591.2965248l25.5766369 9.9757091-11.6706058 5.4506958zm-15.72238267 25.226497 3.03965337-5.398175 17.8719143 4.436931c.385154.0973828.7916448.0607274 1.153821-.1039478l58.0882353-27.1314776c2.309283-1.1390494 4.9101672-1.5537465 7.4596244-1.1882878 1.7879028.1646752 3.3804928 1.1964941 4.2629551 2.7600884 1.4662115 3.1452424-1.4158787 7.7397365-6.2904848 10.0107231l-20.1253939 9.4346332 1.2233017-3.6173845c.3091081-.9306067-.1958595-1.9361651-1.1264661-2.244726-.9317008-.3085609-1.9367122.1964067-2.2452731 1.1270133l-14.3781731 42.7838323c-.856202 2.4290967-1.9219408 3.8794423-3.1096815 4.1929272-.7358412.1416972-1.4973958-.0027356-2.1314776-.4010199l3.4942884-36.6881127c.0913647-.9645265-.6160276-1.8207283-1.5816484-1.9120929-.9645263-.0924589-1.8207283.6160276-1.91264 1.5805541l-.5410758 5.6077118-29.979648 13.9760592-2.4619223-5.241159 4.9254859-2.3054535c.6340816-.279565 1.0427607-.9065344 1.0427607-1.5986081 0-.6926209-.4086791-1.3195903-1.0427607-1.5986083z" fill="#000" fill-rule="nonzero"/></g></svg>