<svg height="100" viewBox="0 0 100 100" width="100" xmlns="http://www.w3.org/2000/svg"><g fill="none" fill-rule="evenodd"><path d="m78 95v-60l-52-30v30l26 15v30z" fill="#f0e300" transform="matrix(-.5 .8660254 -.8660254 -.5 121.30127 29.966679)"/><path d="m99.4912807 54.2689373c-.4359673-.4359673-8.7193461-10.6811989-26.8119891-11.0081744-1.7438693-3.0517711-8.3923706-12.9700272-19.1825614-12.9700272h-.3269754l-4.7956404-9.1553134c-.3269754-.5449591-.8719346-.8719346-1.4168937-.8719346h-7.4114441c-.653951 0-1.1989101.3269755-1.4168938.8719346l-4.359673 9.0463216h-1.4168937c-.4359673 0-10.6811989-.7629428-21.3623978 12.9700272h-8.28337879c-.76294278 0-1.41689373.5449591-1.63487738 1.3079019-.10899183.653951-3.3787466 16.3487739 2.07084468 23.1062671 1.74386921 2.0708446 4.03269755 3.1607629 6.86648499 3.1607629h2.2888284c.7629427 5.4495913 5.4495912 9.5912807 11.1171662 9.5912807 5.6675749 0 10.3542234-4.1416894 11.1171662-9.5912807h31.8256131c.7629427 5.4495913 5.4495912 9.5912807 11.1171662 9.5912807 5.6675749 0 10.3542234-4.1416894 11.1171662-9.5912807h9.5912806c.8719347 0 1.6348774-.7629428 1.6348774-1.6348774v-13.8419618c0-.3269755-.1089918-.7629428-.3269754-.9809265zm-45.9945505-20.8174387c7.6294278 0 12.8610355 6.3215259 15.2588556 9.8092643h-23.6512261v-9.8092643zm-12.8610354-9.9182561h5.3405995l3.4877384 6.7574932h-5.9945504-6.1035422zm-8.3923705 9.9182561h9.7002724v9.8092643h-26.7029972c8.8283378-10.1362397 16.7847411-9.8092643 17.0027248-9.8092643zm-8.8283379 43.7057221c-4.359673 0-7.9564033-3.5967302-7.9564033-7.9564033 0-4.359673 3.5967303-7.9564032 7.9564033-7.9564032s7.9564032 3.5967302 7.9564032 7.9564032c.1089919 4.3596731-3.4877384 7.9564033-7.9564032 7.9564033zm54.0599455 0c-4.359673 0-7.9564033-3.5967302-7.9564033-7.9564033 0-4.359673 3.5967303-7.9564032 7.9564033-7.9564032s7.9564032 3.5967302 7.9564032 7.9564032c0 4.3596731-3.4877384 7.9564033-7.9564032 7.9564033zm19.0735695-9.5912806h-7.9564033c-.7629428-5.4495913-5.4495913-9.5912807-11.1171662-9.5912807-5.667575 0-10.3542235 4.1416894-11.1171662 9.5912807h-31.8256131c-.7629428-5.4495913-5.4495913-9.5912807-11.1171662-9.5912807-5.667575 0-10.3542235 4.1416894-11.1171662 9.5912807h-2.2888284c-1.85286101 0-3.26975474-.653951-4.359673-1.9618529-3.37874659-4.2506812-2.50681199-14.1689373-1.63487738-19.0735695h7.73841958 59.9455041c15.1498638 0 23.1062671 7.520436 24.8501363 9.373297z" fill="#000" fill-rule="nonzero"/></g></svg>