<svg height="100" viewBox="0 0 100 100" width="100" xmlns="http://www.w3.org/2000/svg"><g fill="none" fill-rule="evenodd"><path d="m50 29 46 26.2857143-46 26.2857143-46-26.2857143z" fill="#f0e300"/><path d="m92.4993201 16.2418006 1.7863942 12.1615607h4.0336134c.7909046.0790905 1.4329331.6048094 1.5057291 1.3669788l.006876.1456263v18.3193277c-.0840336.7563025-.6722689 1.4285714-1.5126051 1.4285714-3.697479 0-6.6386554 2.9411765-6.6386554 6.6386555s2.9411764 6.6386555 6.6386554 6.6386555c.7118142.0790904 1.3491902.6048094 1.4217126 1.3669787l.0068589.1456263v18.1512605c-.0790905.7909046-.6048094 1.4329331-1.3669787 1.5057291l-.1456264.006876h-96.63865544c-.7909046-.0790905-1.43293304-.6048094-1.5057291-1.3669787l-.00687595-.1456264v-18.2352941c.08403362-.7563025.67226891-1.4285714 1.51260505-1.4285714 3.69747899 0 6.63865546-2.9411765 6.63865546-6.6386555s-2.94117647-6.6386555-6.63865546-6.6386555c-.71181414-.0790904-1.3491902-.6048094-1.42171259-1.3669787l-.00685884-.1456263v-18.2352941c0-.9287926.78563281-1.2814544 1.11642557-1.3887783l.14407863-.0397931 66.55462187-10h.0840336l22.7731092-3.3613446c.7909046-.0790904 1.5073711.3628857 1.658984 1.1157502zm4.4754698 15.1027372h-21.7647059v4.0336135c0 .8403361-.6722689 1.512605-1.512605 1.512605-.7936508 0-1.4373898-.5996473-1.5064668-1.3741916l-.0061383-.1384134v-3.9495799h-68.99159659v15.4621849c4.11764706.5882353 7.31092439 3.8655462 7.98319329 7.9831933.8258476 5.120255-2.64983164 9.9158664-7.7151447 10.8773259l-.26804859.0470438v15.4621849h68.90756299v-4.0336134c0-.8403362.6722689-1.5126051 1.5126051-1.5126051.7936508 0 1.4373897.5996473 1.5064668 1.3741917l.0061382.1384134v4.0336134h21.7647059v-15.4621849c-4.10831-.6573296-7.2525366-3.7248677-7.8615808-7.7886253l-.0375789-.2786016c-.8258475-5.120255 2.6498317-9.9158664 7.7151447-10.8773258l.2680486-.0470439zm-77.815126 37.4789916h36.4705882c.8403361 0 1.512605.6722689 1.512605 1.5126051 0 .7936507-.5996472 1.4373897-1.3741916 1.5064667l-.1384134.0061383h-36.4705882c-.8403362 0-1.5126051-.6722689-1.5126051-1.512605 0-.7936508.5996473-1.4373898 1.3741917-1.5064668l.1384134-.0061383h36.4705882zm54.4537815-10.2521008c.7936508 0 1.4373897.5996472 1.5064668 1.3741916l.0061382.1384134v9.6638656c0 .8403361-.6722689 1.512605-1.512605 1.512605-.7936508 0-1.4373898-.5996473-1.5064668-1.3741917l-.0061383-.1384133v-9.7478992c.0840336-.7563025.6722689-1.4285714 1.5126051-1.4285714zm-54.4537815.9243697h36.4705882c.8403361 0 1.512605.6722689 1.512605 1.5126051 0 .7936508-.5996472 1.4373897-1.3741916 1.5064667l-.1384134.0061383h-36.4705882c-.8403362 0-1.5126051-.6722689-1.5126051-1.512605 0-.7936508.5996473-1.4373898 1.3741917-1.5064668zm54.4537815-18.0672269c.7909046 0 1.432933.5955047 1.5057291 1.2960984l.0068759.1324731v9.7478991c0 .8403362-.6722689 1.5126051-1.512605 1.5126051-.7936508 0-1.4373898-.5996473-1.5064668-1.3741917l-.0061383-.1384134v-9.7478991c.0840336-.7563026.6722689-1.4285715 1.5126051-1.4285715zm-17.9831933 8.7394958c.8403361 0 1.512605.6722689 1.512605 1.5126051 0 .7936508-.5996472 1.4373897-1.3741916 1.5064668l-.1384134.0061382h-36.4705882c-.8403362 0-1.5126051-.6722689-1.5126051-1.512605 0-.7936508.5996473-1.4373898 1.3741917-1.5064668l.1384134-.0061383zm-18.2352941-9.3277311c.8403361 0 1.512605.5882353 1.512605 1.4285715 0 .7936508-.5996472 1.4373897-1.3741916 1.5064667l-.1384134.0061383h-18.2352941c-.8403362 0-1.5126051-.5882353-1.5126051-1.4285714 0-.7936508.5996473-1.4373898 1.3741917-1.5064668l.1384134-.0061383zm52.4369748-22.5210084-19.9159664 2.9411765.5882353 3.9495798c.0790904.7909046-.3628857 1.5073711-1.1157502 1.658984l-.144754.0216883h-.2521009c-.6302521 0-1.2605042-.443146-1.4060653-1.1217133l-.6107414-4.0883707-45.4621849 6.8067227h69.8319328z" fill="#000" fill-rule="nonzero"/></g></svg>