<svg height="100" viewBox="0 0 100 100" width="100" xmlns="http://www.w3.org/2000/svg"><g fill="none" fill-rule="evenodd"><path d="m74 1v60l-52 30v-30l26-15v-30z" fill="#f0e300"/><path d="m92.1231579 5.58052632c.3813659.51592731.3694271 1.21655657-.0127799 1.71799428l-.094764.11200572-14.0691228 14.98771928c2.2192713 3.2527935 4.4062535 6.2375584 6.5169289 8.8931663l.5260536.6570092c3.8031579 4.7115789 4.4305263 10.1547368 1.6782456 14.56-2.3770175 3.8047368-6.7135088 6.01-11.4096491 6.0101754-.3377193 0-.6775439-.0126316-1.0184211-.0357895.5507018 1.6952632 1.0259649 3.8159649 1.1003509 6.2149123.0229515.7430341-.525058 1.371534-1.2479447 1.4632349l-.1601255.0113484-.0226316.0001535c-.7694736 0-1.4049122-.6115789-1.4289473-1.3861403-.0882456-2.8482456-.8270176-5.2535088-1.4980702-6.8803509-1.1115789-.3203509-2.2075439-.762807-3.2680702-1.3245614l-.504859-.2722095c-3.7886461-2.0764485-13.7586066-8.2788917-15.0049655-16.579194-.5828071-3.8815789.8261403-7.5540351 4.1880701-10.9159649.5584211-.5585965 1.4642106-.5585965 2.0228071 0 .5585964.5585965.5585964 1.4642105 0 2.022807-2.6847369 2.6845614-3.8224562 5.5338597-3.3817544 8.4682456.577193 3.8435088 4.5633333 9.7364912 14.02 14.7480702 1.11.5878947 2.2607017 1.0207017 3.4205263 1.2868421 4.7363158 1.0847368 9.4650877-.6626316 11.7673684-4.3475439.8642105-1.384035 1.282807-2.8898245 1.2661404-4.445614l-.0628071.0052632c-.621228 0-1.1905263-.4214035-1.3682456-1.0163158-.1754386-.5870176.0461404-1.2385965.5512281-1.5880702.1278947-.0884211.2615789-.15.397193-.1908772-.4470176-1.3473684-1.2024562-2.6992982-2.2621053-4.0121053-1.3852631-1.7171929-2.8035088-3.575614-4.2421052-5.5571929-.2236843-.0819299-.4619299-.118772-.6984211-.1028071-.8908587.0590028-1.5789124.79397-1.5968109 1.6702759l.0033021.147268c.0512281.7882456-.5463158 1.4689474-1.3345614 1.5201754l-.0943859.0029825c-.7475439 0-1.3768421-.5807018-1.425965-1.3375439-.1392982-2.1407017 1.2273685-4.038421 3.1884211-4.6563158l-.6492982-.938421c-1.0331579.8508772-2.3077193 1.2866667-3.5817544 1.2868421-1.1480075 0-2.2946536-.3523102-3.2632321-1.0694322l-.2760662-.2184845-.06-.0519079c-1.4278947-1.2198245-2.14-3.0638596-1.9054386-4.9349122.1859237-1.4826007.9424974-2.8020252 2.0842583-3.7059677l.2185487-.1645587v-6.13087715c-.2445614.1345614-.5014035.30280702-.7577193.51280705-1.551228 1.2714035-2.3822807 3.4324561-2.4698245 6.4233333-.0073684.182807-.0087719.35-.0087719.5226316 0 .7898245-.6403509 1.4303509-1.4303509 1.4303509-.7898246 0-1.4303509-.6403509-1.4303509-1.4303509l.0052632-.46-.0035527-.0520834-.0017105-6.46896925c-.9875439.50684215-2.2021053 1.54087715-2.8175439 3.64122805-.2768421.9464912-.4171929 2.0452632-.4171929 3.2654386 0 .6746711-.4699836 1.2509663-1.1169338 1.3956819l-.4147374.0727651c-1.466319.2955611-7.9242938 2.0904103-7.9242938 10.7626056 0 .7898246-.6405263 1.4303509-1.4303508 1.4303509-.7898246 0-1.4303509-.6403509-1.4303509-1.4303509 0-6.302807 2.8982456-9.6859649 5.3296491-11.414035 1.5614035-1.11 3.1275439-1.6854386 4.1636842-1.9726316.0273684-.4126316.0740351-.8107018.1310527-1.2001755-2.0826316-.0387719-5.9103509.2557895-8.9333334 2.5633334-2.5194737 1.9231579-4.0357894 4.9133333-4.5077193 8.8870175-.6291591 5.3056987-.2135127 9.4314964.2256351 12.8051066l.2843371 2.1397454c.4972462 3.8378013.6931719 7.0177334-1.8736564 9.5081305.2308772.1759649.4580702.3559649.6784211.5429824 1.0901754.9236842 2.6445614 1.1045614 3.8661403.4494737l.3321053-.1991228c3.8685867-2.3743242 3.4327171-5.2676506 2.0358607-10.9809471l-.3778481-1.5456017c-.4011845-1.6658863-.8064337-3.4891003-1.065381-5.422574-.1049123-.782807.4449122-1.5026316 1.2278947-1.6075439.7833333-.1047368 1.5026316.4447369 1.6075439 1.2278948.2357894 1.7603703.5964934 3.404635.9770317 4.9909884l.6595014 2.7069599c1.1790418 4.9587223 1.8226168 9.578417-3.2785254 12.8862639l-.5521333.3415046c-.0808799.0481291-.162278.0955551-.215699.1241077-2.1691954 1.1631942-4.8920008.9077732-6.8593554-.6213033l-.2078376-.1686967c-.6192982-.5257894-1.2896491-.9998245-1.9938596-1.4094736-1.8992983-1.1078948-4.0664913-1.748772-6.2682456-1.8540351-.4117544-.0192983-.8289474-.0205263-1.2378948-.0035088-6.7829824.2742105-12.8368421 6.2257895-13.2214035 12.9959649-.2329825 4.0784211 1.3278947 8.0249123 4.2826316 10.8280702 1.2654251 1.2024291 2.7473061 2.1522267 4.3551235 2.7998553l.4045256.1555833c.4564912.1675438 5.3345614 1.6340351 5.3510526 1.637193.6263158.1226432 1.091094.6435524 1.1502808 1.2684651l.0063859.1353945v8.2105263h2.237193v-9.9692982c.0017544-.1426316.0249123-.287193.0717544-.4298246.2470175-.7503509 1.055614-1.158421 1.8059649-.9114035 1.3375438.4401754 2.8049123.7763158 4.3614035.9992983 5.4150508.7751892 10.7339649.0291565 13.0997917-.4028868l.185296-.0343062v-5.8140351c0-.7898246.6403509-1.4303509 1.4303509-1.4303509.7433643 0 1.3544782.5672312 1.4238018 1.2925925l.0065491.1377584v16.3773684h3.4349122v-12.3110526c0-.5289474.2921053-1.0147369.7589474-1.2629825 1.6647369-.885614 3.1389474-1.8975438 4.381579-3.0078947 2.3338596-2.0829825 3.9236842-4.5612281 4.7264912-7.3664912.217193-.7594737 1.0094737-1.198772 1.7685965-.981579.7594737.217193 1.1989474 1.0092983.9815789 1.7687719-.8501253 2.9715957-2.4320802 5.6235032-4.7084317 7.8984366l-.346656.3384055v20.5796492c0 .7433643-.5672312 1.3544782-1.2925924 1.4238018l-.1377585.006549h-10.9970175c-.7433643 0-1.3544782-.5672312-1.4238018-1.2925924l-.0065491-.1377584v-13.307193l-.495388.0843299c-1.8259037.300336-4.6004625.6428631-7.7621558.6428631-.9761404 0-1.9889965-.033572-3.0218611-.1105965l-.7781389-.0660702v12.7566667c0 .7433643-.5672313 1.3544782-1.2925925 1.4238018l-.1377584.006549h-9.7040351c-.7433643 0-1.3544782-.5672312-1.4238018-1.2925924l-.0065491-.1377584v-12.5524562l-.7997258-.2068374c-1.8945112-.5013896-6.3538172-1.8014424-8.3053619-3.7529871-3.4386084 4.9971751-10.4123354 5.3473756-10.9569149 5.366978l-.0651904.0012676c-.591228 0-1.12350874-.3645614-1.33578944-.9196491-.20064778-.5246964-.07451885-1.1133728.31173897-1.5093731l.19676347-.1857698c.6078912-.6138354 3.6991374-4.237616.9044264-12.0649338l-.1422271-.3883444c-1.61684209-4.305614-2.18859648-9.9061403-1.5291228-14.9814035.7594737-5.845614 3.0449123-10.3778947 6.4347368-12.7619298.6461404-.4540351 1.5385965-.2989474 1.9928071.3473684.4543859.6461403.2989473 1.5382456-.347193 1.992807-5.7235495 4.0248462-6.8194696 16.1113671-4.0004165 24.0498704l.1269077.347498c2.2582456 6.0157895 1.5319298 10.1656141.4135088 12.6882456 1.9957895-.5514035 4.4749123-1.6763157 5.8621052-3.9552631-3.004035-3.3031579-4.5645614-7.6768421-4.3070175-12.1833333.2257895-3.9778948 2.0257895-7.8157895 5.0685965-10.8063158.9542105-.9377193 1.9898246-1.7517544 3.0845614-2.4328071-1.6845614-.9985964-3.4114035-.9107017-5.1533333.2708772-.6538597.4435088-1.5433334.2731579-1.9868421-.3807017-.4436843-.6538597-.2731579-1.5433334.3807017-1.9868421 3.18-2.157193 6.6526316-1.9019298 9.6408772.6677193 1.4673684-.5589474 2.9973684-.8975439 4.5484211-.9991228-.3864913-1.3003509-1.0149123-2.7389474-2.0364913-3.9284211-1.5980701-1.8612281-3.9035087-2.8049123-6.8522807-2.8049123-.7898245 0-1.4303509-.6403508-1.4303509-1.4303508 0-.7898246.6403509-1.4303509 1.4303509-1.4303509 6.2036842 0 10.382807 3.4221052 11.8698246 9.6663158 1.9714035.2287719 3.8970175.8107017 5.6601754 1.7114035 2.1650877-1.6295531 2.0880731-3.5911332 1.4768782-8.1942298l-.2415905-1.8268961c-.4286584-3.3706137-.8316736-7.7358566-.1866912-13.1762425.5678948-4.7829825 2.4635088-8.4301755 5.634386-10.8405264 4.0959649-3.1135087 9.1450877-3.2410526 11.4105263-3.111228 1.9696491-4.71631582 6.3115789-5.03684213 6.5087719-5.04859652.392807-.02438596.7792983.11614035 1.0664913.38631579.2509868.23655702.4070093.55464638.4420932.89456277l.0075559.14684074v.34350877c.2578947-.26473684.5366666-.5168421.8408772-.7522807 1.7859649-1.38122807 3.5401754-1.53052632 3.7343859-1.5431579.3935088-.02543859.7819299.11350878 1.0703509.38403509.2522149.23671053.4090625.55535636.4443336.89623218l.0075962.14727659v6.59526319l18.3529825-8.99719301c.62-.30421053 1.3692982-.12140351 1.78.43421053zm-51.3236842 85.20456138h-1.7450877v1.1785965h1.7450877zm21.2140351-.1849123h-3.4349123v1.3636842h3.4349123zm4.7014035 0h-1.8405263v1.3636842h1.8405263zm-30.5214035.1849123h-2.237193v1.1785965h2.237193zm2.8608772-10.9164912v8.0557895h1.7450877v-7.68c-.5954386-.1094737-1.1773684-.2352632-1.7450877-.3757895zm27.6605263 7.8707017v-12.6194736c-.4397369.3011842-.8944737.5932894-1.3648767.8749835l-.4756496.2781744v11.4663157zm12.108421-47.0715789c-.0838596.7085965-.7071929 1.2550877-1.4192982 1.2550877-1.2849123 0-1.912807-1.6457895-.9498246-2.4991228.9696491-.8589474 2.5207018-.0350877 2.3691228 1.2440351zm-12.4682456-14.1738597c1.2173684-.0794736 2.3931579.3189474 3.3107018 1.1233334.9173684.8042105 1.4668421 1.9177193 1.5468421 3.1352631.0517544.7882457-.5452632 1.4692983-1.3336842 1.5214035-.7413829.0490403-1.3889007-.4772318-1.5056618-1.1964813l-.0155663-.1370274c-.03-.4550877-.2350877-.8712281-.5780702-1.1717544-.3426316-.3007018-.7822807-.45-1.237193-.4198246-.8896953.058338-1.5773728.7923254-1.5947874 1.6682317l.0033839.1472069c.0517544.7882456-.5454386 1.4692983-1.3336842 1.5210527l-.0950877.0029824c-.7473684 0-1.3763158-.5805263-1.4259649-1.3368421-.1650877-2.5133333 1.7454386-4.6926316 4.2587719-4.8575439zm4.9219298-8.8145614-.0877193.0429825c-.8503508.4168421-1.4057894 1.1963158-1.524035 2.1384211-.1081705.8619423.1760562 1.6800161.7832897 2.2742843l.2109208.1892244c.3791228.3117544.8235088.4966667 1.2829824.564386-.5945614-2.1514035-.7294736-3.8829825-.6654386-5.2092983zm6.5705264-3.2208771-3.44 1.6864912-.0511594.1826125c-.2089152.8045048-.4447214 2.498867.1725107 5.1262665l.0784732.3207701 3.08-3.2812281c-.2552631-1.3789473-.1142105-2.8024561.1601755-4.0349122zm6.72-3.2947369-3.1489474 1.5436842c-.2559474.5783684-.5747053 1.4436474-.7842553 2.3959374l-.0655693.3203784z" fill="#000" fill-rule="nonzero"/></g></svg>