<svg height="100" viewBox="0 0 100 100" width="100" xmlns="http://www.w3.org/2000/svg"><g fill="none" fill-rule="evenodd"><path d="m24 95v-60l52-30v30l-26 15v30z" fill="#f0e300"/><path d="m90.7824561 23.8182456-8.9824561 3.3684211c-.8073093.3101917-1.4410581.954312-1.7381053 1.7665497h-6.1963976v-1.497076c0-2.4804367-2.0107914-4.4912281-4.4912281-4.4912281h-4.1289357l5.9778246-5.9883041h13.1218713c3.3072491 0 5.9883041-2.6810551 5.9883041-5.9883041 0-3.30724904-2.681055-5.9883041-5.9883041-5.9883041h-13.4736842c-3.1472282.00933966-5.7484559 2.45674539-5.9493801 5.5975673l-6.0601637 6.0511812c-.1711735-2.3389369-2.1131257-4.1524256-4.4582924-4.1633684h-22.2151111c-1.6113956.0021591-3.098741.8654474-3.8998831 2.263579l-4.6948304 8.2159532h-5.12c-2.4804368 0-4.4912281 2.0107914-4.4912281 4.4912281v2.4537076l-5.49726312-.9162106c-.86803309-.1443114-1.75560192.1005194-2.42689295.6694442-.67129103.568925-1.05830003 1.4043395-1.05830003 2.2842868v7.4853801c0 .8799473.387009 1.7153619 1.05830003 2.2842868s1.55885986.8137556 2.42689295.6694442l5.49726312-.9162105v12.9332398c0 2.4804367 2.0107913 4.491228 4.4912281 4.491228h8.9824562v4.4912281c0 1.6536245 1.3405275 2.9941521 2.994152 2.9941521h1.497076c.0132786 4.0021584 3.1723442 7.2858719 7.1709942 7.4539415l-8.5333334 18.8766316c-.2320795.4891192-.1820038 1.0654296.1309599 1.5071901.3129638.4417603.840049.6801348 1.3784545.6234064.5384055-.0567286 1.0042359-.3997204 1.2182582-.8970059l3.0315789-6.7024094c.4027135.1392281-.0269474.09731 6.084117.09731v5.9883041c0 .8268122.6702638 1.497076 1.497076 1.497076s1.497076-.6702638 1.497076-1.497076v-5.9883041h6.1290292l2.9866667 6.6050994c.2140223.4972855.6798526.8402773 1.2182582.8970059.5384054.0567284 1.0654907-.1816461 1.3784545-.6234064.3129637-.4417605.3630394-1.0180709.1309598-1.5071901l-8.5333333-18.8766316c3.9974725-.1696235 7.1547926-3.4528936 7.168-7.4539415h1.497076c1.6536245 0 2.9941521-1.3405276 2.9941521-2.9941521v-4.4912281h8.9824561c2.4804367 0 4.4912281-2.0107913 4.4912281-4.491228v-1.4970761h6.1963976c.2970472.8122377.930796 1.456358 1.7381053 1.7665498 9.7100351 3.6423859 9.2818713 3.5585497 10.0304094 3.5585497 1.6536245 0 2.994152-1.3405276 2.994152-2.9941521v-28.6151111c0-.9812532-.4812781-1.9001127-1.2875298-2.4594124-.8062517-.5592998-1.8353867-.6880497-2.7545755-.344611zm-31.8877193-.8533333v-2.1198597l6.8401404-6.8281637c.5137135.8690757 1.2388073 1.5941694 2.107883 2.107883l-6.8296608 6.8401404zm11.9766082-14.97076025h13.4736842c1.6536246 0 2.9941521 1.34052753 2.9941521 2.99415205 0 1.6536245-1.3405275 2.994152-2.9941521 2.994152h-13.4736842c-1.6536245 0-2.994152-1.3405275-2.994152-2.994152 0-1.65362452 1.3405275-2.99415205 2.994152-2.99415205zm-14.9707602 8.98245615v5.9883041h-19.4619883v-7.4853801h17.9649123c.8268122 0 1.497076.6702637 1.497076 1.497076zm-25.0131462-.748538c.2682208-.4645776.764515-.7501324 1.3009591-.7485447h1.2560467v7.4853868h-6.4029941zm-22.89328655 23.2046783v-7.4853801l5.98830405.9985497v5.4882807zm29.65707605 44.9122807 4.7382456-10.4795321h.0374269v10.4795321zm7.7698245 0v-10.4795321h.0374269l4.7382456 10.4795321zm2.9941521-13.4736842h-8.9824562c-2.4804367 0-4.491228-2.0107913-4.491228-4.491228h17.9649122c0 2.4804367-2.0107913 4.491228-4.491228 4.491228zm8.9824561-7.4853801h-26.9473684v-4.4912281h26.9473684zm13.4736842-8.9824561c0 .8268122-.6702638 1.497076-1.497076 1.497076h-50.9005848c-.8268122 0-1.497076-.6702638-1.497076-1.497076v-26.9473684c0-.8268122.6702638-1.4970761 1.497076-1.4970761h50.9005848c.8268122 0 1.497076.6702639 1.497076 1.4970761zm2.9941521-22.4561404h5.9883041v17.9649123h-5.9883041zm17.9649123 23.2915088-8.9824562-3.3699181v-21.878269l8.9824562-3.3684211z" fill="#000" fill-rule="nonzero"/></g></svg>