<svg height="100" viewBox="0 0 100 100" width="100" xmlns="http://www.w3.org/2000/svg"><g fill="none" fill-rule="evenodd"><path d="m17 24.5384615v53.0769231l46-26.5384615v-53.0769231z" fill="#f0e300"/><path d="m64.9021053 5c2.4084611.00255639 4.3733957 1.89875088 4.486124 4.27990365l.005104.21132442v6.30982453c12.8561404 6.7310527 21.3119299 19.6373685 22.3491228 34.1117544 1.037193 14.474386-5.4919298 28.454386-17.2568421 36.9498246-.0457894.0433333-.0947368.0833333-.1461403.1198245-6.8899442 4.9654028-15.1318875 7.697636-23.6139901 7.8372757l-.5921503.0055364h-.2019298c-17.9703509.0087669-33.9454386-11.4429875-39.7066667-28.4647419-5.70378943-16.8515368-.1391801-35.4461041 13.8304247-46.3992083l.4258911-.3295636v-10.14052633c.0025564-2.40846115 1.8987509-4.37339577 4.2799037-4.48612406l.2113244-.00510401zm-40.4210527 18.4903509c-12.0524561 10.408421-16.54298242 27.1122807-11.3342105 42.1610526 5.2087719 15.0487719 19.0645614 25.4024561 34.9724561 26.1329825-1.2303655-5.6444152-1.430992-11.4626825-.594159-17.1745479l.1150362-.7443995h-18.6678947c-2.4084612-.0025564-4.3733958-1.8987509-4.4861241-4.2799037l-.005104-.2113244zm44.9724562 25.4731579v18.9133333c.0188651 2.5503618-1.5965361 4.8157232-3.9909656 5.63971l-.2955257.0920444c-.1439766.0502924-.291306.0902144-.4408447.1195581l-.2258219.0360559c-.3607018.0703509-.7275439.1040351-1.0950877.1008772-1.5657895-.0226316-3.061579-.6517544-4.1726316-1.7550877-1.0608875-1.0539525-1.6833752-2.4662709-1.7498666-3.9534948l-.0059229-.2796631v-14.9707017c0-1.6536843-1.3405263-2.9942106-2.9942105-2.9942106-1.5946241 0-2.8980592 1.2464843-2.9891278 2.8182752l-.0050827.1759354v16.4678947c.0002339.0816374-.0064718.1631189-.0199611.2435607l-.2311228 1.0430049c-.0921863.4397273-.2073086 1.0231187-.328239 1.7208669l-.1425105.8434749c-.7164264 4.4014541-1.4408381 11.9825774.4520088 18.5583908 7.3131721-.2159317 14.409273-2.5100672 20.4604523-6.6076954l.5018284-.3456379 4.1163158-13.9922807c.4938596-1.2347368.6722807-2.5731579.5189474-3.8940351-.81-6.2973684-4.6638597-13.5408772-7.3626316-17.9801754zm-.0601755-29.7596492v24.1585965l.5047064.7314169c2.2069784 3.2500357 8.7317849 13.484487 9.888627 22.4696358.2013534 1.6461779.0207474 3.314744-.5253835 4.8768909l-.1325113.3585477-2.8645614 9.7501754c8.011579-7.3710526 12.5766667-17.7559649 12.5910527-28.642807.0449122-13.9163158-7.3863158-26.7850877-19.4619299-33.7024562zm-4.491228-11.20964907h-35.9298246c-.7778741.00066047-1.4168154.59403873-1.4900247 1.35289675l-.0069928.14412079v59.88315793c.0006604.7778741.5940387 1.4168154 1.3528967 1.4900246l.1441208.0069929h19.17l.1722835-.8584589c.0647228-.3092492.1192088-.554665.1581728-.7239448l.0214735-.0923331v-2.8164913h-15.0307017c-1.5937782-.0018609-2.8962044-1.2474328-2.9889323-2.8183697l-.0052783-.1758408v-7.4852631c.0018609-1.5937782 1.2474329-2.8962044 2.8183697-2.9889323l.1758409-.0052783h15.0307017c0-3.3073684 2.6810527-5.9880701 5.9882456-5.9880701 3.2320295 0 5.8660562 2.5605714 5.9841153 5.7637495l.0041304.2244961v14.9707017c-.001579.7942105.3149122 1.5561404.8787719 2.1154386.5515789.5496491 1.2945614.8645614 2.0731579.8785965.2022807-.0007017.4040351-.0210526.6022807-.0607017l.1943859-.0424562c.0710527-.0270175.1438597-.0489474.2178948-.0657895 1.0098658-.3408049 1.7474607-1.2042396 1.933566-2.2432189l.0283638-.1967811v-58.77122803c-.0007017-.82649123-.6705263-1.49614035-1.4970175-1.49701754zm-16.4080702 47.90631577h-15.0307018v7.4854386h2.9942106v-1.4970175c0-.8268421.6701754-1.4970176 1.4970175-1.4970176.7782043 0 1.4176313.5936502 1.4901652 1.3528351l.0068523.1441825v1.4970175h2.9942106v-2.9942105c0-.397193.1577193-.7780702.438421-1.0587719.2808772-.2808772.6617544-.4385965 1.058772-.4384211.3971929 0 .7780701.1577193 1.0587719.4384211.2457675.2457675.3972423.5680975.4311534.9108107l.0072676.1479612v2.9942105h3.0538597zm-4.8866667-27.9050877c.3064737.3738947.4114421.8697158.28971 1.33092l-.0490082.1522379-4.4912281 11.9766667c-.2191228.5843859-.7778947.9714035-1.4019298.9714035-.5760324 0-1.0963065-.3297665-1.3454242-.8401351l-.0565056-.1312684-4.4912281-11.9766667c-.191579-.5017544-.0996491-1.0677193.2407017-1.4831579.3405264-.4154386.8773685-.6166667 1.4070176-.5273684.4814992.0811802.8899231.3911556 1.0995255.8255328l.0567903.1339409 3.0891228 8.2382456 3.0891228-8.2382456c.1854386-.5040351.6266667-.8701755 1.1563158-.9594737.5296491-.0892983 1.0664912.1121052 1.4070175.5273684zm4.8268421-.5392985c.397193-.0001752.7778948.1575441 1.0584211.4382459.2457675.2457675.3972423.5680976.4311534.9108107l.0072678.1479612v11.9766667c0 .8266666-.6701756 1.4970175-1.4970177 1.4970175-.7782043 0-1.4176313-.5936502-1.4901652-1.352835l-.0068524-.1441825v-11.9764913c0-.3971929.1577193-.7780701.4384211-1.0587719.2808772-.2808772.6617544-.4385965 1.0587719-.4384213zm5.9884211-.0001753h2.9942105c2.4803509 0 4.4912281 2.0107019 4.4912281 4.4912282 0 2.4096541-1.8976115 4.3759473-4.2798123 4.4863398l-.2114158.0048883h-1.4970175v4.491228c0 .397193-.1577193.7780702-.4384211 1.058772-.2808772.2808771-.6617544.4385964-1.0587719.4384213-.397193.0001751-.7780702-.1575442-1.058772-.4382459-.2457675-.2457676-.3972423-.5680976-.4311534-.9108107l-.0072677-.1479612v-11.9766667c0-.397193.157544-.7778947.4384211-1.0587719.2457676-.2457676.5680976-.3972424.9108108-.4311535l.1479612-.0072677h2.9942105zm2.9940351 2.9943861h-1.4970176v2.9940351h1.4970176c.8268421 0 1.4970175-.6701755 1.4970175-1.4970176 0-.7780392-.5936502-1.4176118-1.352835-1.4901635zm-10.4794737-19.4621053c2.4803509 0 4.4912281 2.0107018 4.4912281 4.4912281s-2.0108772 4.4912281-4.4912281 4.4912281c-2.4792983-.0026316-4.4885965-2.0119299-4.4912281-4.4912281 0-2.4805263 2.0108772-4.4912281 4.4912281-4.4912281zm0 2.994386c-.8264912.0007017-1.4961404.6705263-1.4970176 1.4970175 0 .8268421.6701755 1.4970176 1.4970176 1.4970176s1.4970175-.6701755 1.4970175-1.4970176-.6701754-1.4970175-1.4970175-1.4970175z" fill="#000" fill-rule="nonzero"/></g></svg>