<svg role="img" viewBox="0 0 24 24" xmlns="http://www.w3.org/2000/svg" width="24" height="24">
    <path d="M22.762 14.645l-3.059-3.058c-.823-.823-1.823-1.235-3-1.235-1.195 0-2.214.431-3.058 1.294l-1.293-1.294c.862-.843 1.293-1.867 1.293-3.073 0-1.177-.406-2.171-1.22-2.985L9.395 1.25C8.583.417 7.583 0 6.397 0 5.22 0 4.225.407 3.411 1.22L1.25 3.369C.417 4.18 0 5.176 0 6.352c0 1.177.412 2.177 1.235 3l3.059 3.059c.823.823 1.823 1.235 3 1.235 1.195 0 2.215-.432 3.058-1.294l1.294 1.294c-.863.843-1.294 1.867-1.294 3.073 0 1.176.406 2.17 1.22 2.985l3.03 3.043c.813.833 1.813 1.25 2.999 1.25 1.176 0 2.17-.406 2.985-1.22l2.162-2.147c.833-.814 1.25-1.809 1.25-2.985s-.412-2.176-1.236-3zm-12.41-6.292l-.272-.28a9.12 9.12 0 00-.316-.316 3.556 3.556 0 00-.28-.22 1.185 1.185 0 00-.374-.192 1.498 1.498 0 00-.405-.051c-.392 0-.725.137-1 .411a1.36 1.36 0 00-.411 1c0 .147.017.282.051.405.034.122.098.247.191.375.093.127.167.22.22.279.054.059.16.164.317.316l.28.272a1.421 1.421 0 01-1.06.456c-.401 0-.735-.132-1-.397L3.236 7.352a1.362 1.362 0 01-.412-1c0-.382.137-.71.412-.985L5.396 3.22a1.42 1.42 0 011-.396c.392 0 .726.137 1 .411l3.03 3.044c.274.274.41.608.41 1 0 .411-.16.77-.484 1.074zm10.41 10.277l-2.16 2.147a1.417 1.417 0 01-1 .382c-.403 0-.736-.132-1-.397l-3.03-3.044a1.36 1.36 0 01-.411-1c0-.41.162-.769.485-1.073l.272.28c.152.156.258.262.317.316.058.054.151.127.279.22.127.094.252.158.375.192.122.034.257.051.404.051.392 0 .726-.137 1-.411.274-.275.412-.608.412-1 0-.147-.018-.282-.052-.404a1.176 1.176 0 00-.191-.375 3.55 3.55 0 00-.22-.28 9.762 9.762 0 00-.317-.316l-.28-.272a1.4 1.4 0 011.06-.47c.391 0 .725.137.999.411l3.058 3.058c.275.275.412.609.412 1 0 .382-.137.711-.411.985z" fill="#000" fill-rule="nonzero"/>
</svg>
