<svg viewBox="0 0 3823 974" xmlns="http://www.w3.org/2000/svg" xml:space="preserve" fill-rule="evenodd" clip-rule="evenodd" stroke-linejoin="round" stroke-miterlimit="2"><path fill="none" d="M0 0h3822.49v973.595H0z"/><g fill="#231f20" fill-rule="nonzero"><path d="M853.631 118.514H672.602l19.679-108.1h451.275v108.1H984.748v548.884H853.631V118.514Z"/><path d="M1215.62 551.779c56.871 0 98.55-36.467 98.55-85.088v-33.425l-95.946 6.079c-49.05 3.034-74.671 23.871-74.671 56.863v.875c0 34.296 28.213 54.696 72.067 54.696m-197.529-48.188v-.867c0-84.658 65.554-134.15 181.033-141.529l115.046-6.946v-28.65c0-41.245-26.913-66.858-76.409-66.858-47.316 0-75.975 22.133-82.05 52.096l-.87 3.904h-115.913l.433-5.208c6.946-85.959 80.746-147.604 203.613-147.604 120.25 0 197.962 62.083 197.962 155.858V636.87H1314.17v-69.458h-2.609c-26.479 47.754-75.975 76.842-137.187 76.842-93.338 0-156.283-58.613-156.283-140.663M1480.59 171.476h126.763v81.184h2.608c13.892-57.309 51.659-90.734 105.925-90.734 13.896 0 26.913 2.171 36.467 4.775v111.575c-10.413-4.345-27.788-6.945-46.017-6.945-62.516 0-98.983 37.333-98.983 105.062v260.475H1480.59V171.476ZM1789.83 471.904V171.475h126.763v273.941c0 60.78 28.658 95.95 85.533 95.95 56.871 0 92.908-41.679 92.908-102.462V171.475h126.763v465.396h-126.763v-76.846h-2.608c-23.875 53.404-71.637 86.4-141.958 86.4-102.463 0-160.638-65.563-160.638-174.521M2591.87 408.073v-.446c0-85.016-42.288-137.991-105.488-137.991-64.55 0-105.945 52.529-105.945 137.991v.446c0 85.904 40.954 138.871 105.945 138.871 63.642 0 105.488-53.413 105.488-138.871m-329.829 270.621-.442-4.008h126.417l1.333 3.12c10.238 23.588 44.95 44.071 99.25 44.071 67.208 0 102.817-34.725 102.817-88.137v-73h-2.659c-24.933 49.85-78.337 81.458-147.337 81.458-119.292 0-193.183-89.021-193.183-237.246v-.441c0-152.23 74.787-242.584 195.412-242.584 67.213 0 119.279 35.609 145.108 91.242h2.659v-81.45h129.979v463.8c0 106.383-89.467 178.937-232.796 178.937-131.304 0-214.092-59.208-226.558-135.762M581.018 583.151l-21.35 112.412h171.275l19.625-112.412h-169.55ZM3011.1 296.692V166.967c-34.666 0-68.329 6.804-100.058 20.225-30.613 12.946-58.092 31.467-81.671 55.05-23.583 23.584-42.104 51.063-55.054 81.671-13.417 31.725-20.225 65.396-20.225 100.063 0 34.662 6.808 68.329 20.225 100.058 12.95 30.608 31.471 58.087 55.054 81.671 23.579 23.579 51.058 42.104 81.671 55.05 31.729 13.421 65.392 20.225 100.058 20.225V551.255c-33.996 0-65.962-13.242-90-37.284-24.041-24.037-37.279-56-37.279-89.995 0-34 13.238-65.963 37.279-90.005 24.038-24.037 56.004-37.279 90-37.279M3571.23 840.206h-145.775l72.887 126.242h145.775l-72.887-126.242Z"/><path d="M3715.97 840.206h-145.775l72.887 126.242h145.775l-72.887-126.242ZM3790.26 313.725c-14.333-33.891-34.841-64.312-60.95-90.421-26.112-26.112-56.533-46.62-90.425-60.95-35.116-14.858-72.383-22.387-110.766-22.387v43.637c-32.359.05-63.779 6.417-93.4 18.942-28.684 12.133-54.434 29.496-76.534 51.592-22.095 22.1-39.454 47.85-51.587 76.533-12.575 29.729-18.95 61.275-18.95 93.763h121.562c0-31.855 12.409-61.813 34.938-84.338 22.525-22.525 52.479-34.933 84.337-34.933v-39.859c42.388.096 82.225 16.63 112.209 46.613 30.071 30.071 46.633 70.054 46.633 112.579 0 42.525-16.562 82.508-46.633 112.579-29.959 29.959-69.759 46.484-112.109 46.604l-.1-.479c-34.662 0-68.329 6.804-100.062 20.225-30.613 12.95-58.092 31.471-81.667 55.046-23.583 23.579-42.1 51.058-55.05 81.671-13.425 31.733-20.229 65.4-20.229 100.062h153.904c0-27.541 10.721-53.433 30.196-72.908 19.475-19.471 45.367-30.196 72.908-30.196v-28.075l.013-.012c38.246-.05 75.387-7.567 110.387-22.375 33.892-14.329 64.313-34.838 90.425-60.95 26.109-26.113 46.617-56.529 60.95-90.421 14.855-35.121 22.388-72.388 22.388-110.771 0-38.383-7.533-75.65-22.388-110.771M3053.85 840.206h-145.775l72.888 126.242h145.775l-72.888-126.242Z"/><path d="M3198.59 840.206h-145.775l72.888 126.242h145.775l-72.888-126.242ZM3272.88 313.2c-14.333-33.887-34.842-64.312-60.95-90.416-26.112-26.113-56.533-46.621-90.421-60.955-35.121-14.854-72.387-22.383-110.775-22.383v125.317c42.529 0 82.509 16.562 112.579 46.629 30.071 30.075 46.634 70.054 46.634 112.583 0 42.525-16.563 82.504-46.634 112.575-30.07 30.071-70.05 46.629-112.579 46.629v.03c-34.529.045-68.071 6.841-99.691 20.216-30.613 12.95-58.092 31.471-81.667 55.046-23.579 23.579-42.1 51.058-55.05 81.671-13.425 31.733-20.229 65.4-20.229 100.062h153.904c0-27.541 10.725-53.433 30.196-72.908 19.475-19.471 45.366-30.196 72.908-30.196v-28.6l.008-.008c38.25-.05 75.392-7.571 110.396-22.375 33.888-14.333 64.309-34.842 90.421-60.954 26.108-26.109 46.617-56.529 60.95-90.417 14.854-35.121 22.388-72.387 22.388-110.771 0-38.387-7.534-75.654-22.388-110.775M355.56 449.748h-76.537l37.258-193.971h76.538L355.56 449.748Zm288.588-193.971 25.462-132.562H564.527L586.281 9.969H440.035l-21.75 113.246h-76.537l21.75-113.246H217.26l-21.754 113.246H93.398L67.931 255.777h102.113l-37.263 193.971H30.198L4.735 582.311h102.584l-21.755 113.25h146.242l21.754-113.25h76.538l-21.754 113.25h146.241l21.754-113.25h105.084l25.462-132.563H501.802l37.262-193.971h105.084Z"/></g></svg>