<?xml version="1.0" encoding="UTF-8"?>
<svg width="500px" height="500px" viewBox="0 0 500 500" version="1.1" xmlns="http://www.w3.org/2000/svg" xmlns:xlink="http://www.w3.org/1999/xlink">
    <!-- Generator: Sketch 63.1 (92452) - https://sketch.com -->
    <title>amadeus</title>
    <desc>Created with Sketch.</desc>
    <g id="amadeus" stroke="none" stroke-width="1" fill="none" fill-rule="evenodd">
        <path d="M358.339041,388.246575 C366.660959,388.246575 369.126712,393.94863 369.126712,406.739726 L369.118066,407.974133 C368.941488,420.255273 366.008452,426.465753 355.565068,426.465753 C351.40411,426.465753 347.243151,425.695205 343.390411,424.15411 L343.236301,424.15411 L343.236301,438.486301 C343.236301,438.794521 343.236301,438.94863 342.928082,438.94863 L340.924658,438.94863 C340.667808,438.94863 340.625,438.94863 340.617865,438.681079 L340.616438,389.325342 L340.714392,389.040859 C340.782011,388.863014 340.812578,388.863014 340.924658,388.863014 L342.928082,388.863014 C343.210616,388.863014 343.234161,388.863014 343.236123,389.219125 L343.236301,393.332192 L343.791761,393.007503 C347.243151,391.012864 352.791096,388.246575 358.339041,388.246575 Z M442.328767,388.092466 C445.873288,388.092466 449.417808,388.554795 452.962329,389.633562 C453.270548,389.787671 453.424658,389.941781 453.270548,390.25 L453.116438,391.020548 L453.114298,391.1504 C453.103596,391.328767 453.039384,391.328767 452.65411,391.328767 L451.140126,391.164669 C448.428938,390.879281 444.89726,390.558219 442.328767,390.558219 C436.010274,390.558219 433.082192,392.715753 433.082192,398.109589 C433.082192,403.51671 436.130941,404.350707 441.702794,405.342397 L443.581042,405.671467 C450.292373,406.874705 454.657534,408.473459 454.657534,415.986301 C454.657534,423.84589 449.726027,426.465753 441.866438,426.465753 C438.167808,426.465753 434.315068,426.003425 430.770548,425.078767 C430.462329,424.924658 430.308219,424.770548 430.462329,424.462329 L430.616438,423.691781 C430.616438,423.383562 430.770548,423.383562 431.232877,423.383562 L431.948892,423.460178 C434.874795,423.762795 439.752055,424.15411 442.020548,424.15411 L442.595523,424.14817 C448.010191,424.034399 452.037671,422.26039 452.037671,416.60274 C451.729452,410.438356 449.109589,409.05137 442.482877,407.818493 L441.475595,407.647211 C434.654803,406.459338 430.308219,405.025553 430.308219,398.263699 C430.308219,391.791096 434.160959,388.092466 442.328767,388.092466 Z M81.0958904,388.092466 C93.9345291,388.092466 95.8184256,396.974689 95.8883205,406.033669 L95.8892052,407.141797 C95.8482466,416.247178 94.6883562,426.311644 81.0958904,426.311644 C67.8224315,426.311644 66.7834401,416.191776 66.7639876,406.867903 L66.7656256,406.12858 C66.8298425,398.600952 68.5606164,388.092466 81.0958904,388.092466 Z M199.914384,388.092466 C211.934932,388.092466 214.400685,395.952055 214.400685,404.582192 C214.400685,406.739726 213.938356,407.818493 211.934932,407.818493 L188.510274,407.818493 L188.512508,408.394893 C188.577777,416.633864 190.124922,423.84589 199.914384,423.84589 C203.921233,423.84589 207.465753,423.383562 211.472603,423.075342 L211.678796,423.076769 C211.982021,423.083904 212.089041,423.126712 212.089041,423.383562 L212.087189,424.166267 C212.078852,424.41011 212.033001,424.616438 211.780822,424.616438 C207.773973,425.695205 203.613014,426.311644 199.606164,426.311644 C186.969178,426.311644 185.582192,417.219178 185.582192,407.047945 L185.59368,406.496031 C185.815298,397.560999 187.834682,388.092466 199.914384,388.092466 Z M389.931507,388.092466 C401.952055,388.092466 404.417808,395.952055 404.417808,404.582192 C404.417808,406.739726 403.955479,407.818493 401.952055,407.818493 L378.527397,407.818493 L378.53252,408.681873 C378.631994,416.800611 380.255876,423.84589 389.931507,423.84589 C393.938356,423.84589 397.482877,423.383562 401.489726,423.075342 L401.713191,423.077195 C402.008095,423.085532 402.134184,423.131382 402.260274,423.383562 L402.260274,424 C402.260274,424.308219 402.260274,424.616438 401.952055,424.616438 C397.945205,425.849315 393.784247,426.311644 389.777397,426.311644 C377.140411,426.311644 375.753425,417.219178 375.753425,407.047945 L375.746794,406.496031 C375.684476,397.560999 377.851806,388.092466 389.931507,388.092466 Z M267.722603,388.092466 C279.613897,388.092466 282.154772,395.78394 282.20804,404.304076 L282.208904,404.582192 C282.208904,406.739726 281.592466,407.818493 279.743151,407.818493 L256.318493,407.818493 L256.323616,408.681873 C256.42309,416.800611 258.046972,423.84589 267.722603,423.84589 C271.729452,423.84589 275.273973,423.383562 279.280822,423.075342 L279.504287,423.077195 C279.799191,423.085532 279.92528,423.131382 280.05137,423.383562 L280.05137,424 C280.05137,424.308219 280.05137,424.616438 279.743151,424.616438 C275.736301,425.849315 271.575342,426.311644 267.568493,426.311644 C254.931507,426.311644 253.544521,417.219178 253.544521,407.047945 L253.53789,406.496031 C253.475571,397.560999 255.642902,388.092466 267.722603,388.092466 Z M317.808219,388.092466 C330.343493,388.092466 332.666295,396.972877 332.754192,406.030896 L332.754192,407.420821 C332.689719,416.451527 331.416096,426.311644 317.962329,426.311644 C304.791091,426.311644 303.557612,416.78986 303.480433,407.708906 L303.476027,406.585616 C303.476027,399.034247 305.017123,388.092466 317.808219,388.092466 Z M292.688356,372.681507 C292.996575,372.681507 292.996575,372.835616 292.996575,373.143836 L292.99782,421.414091 C293.017272,423.705154 293.304795,423.838885 296.541096,423.691781 L296.744884,423.695163 C296.978691,423.707002 297.191781,423.760274 297.311644,424 L297.465753,425.078767 L297.463509,425.220461 C297.451163,425.478175 297.370917,425.718915 296.849315,425.849315 C295.890411,426.123288 295.053272,426.153729 294.121427,426.157534 L293.767123,426.157534 C291.609589,426.157534 290.376712,425.232877 290.376712,422.150685 L290.376712,372.989726 C290.376712,372.835616 290.530822,372.681507 290.839041,372.681507 L292.688356,372.681507 Z M247.996575,388.863014 C248.458904,388.863014 248.458904,389.017123 248.304795,389.325342 L235.359589,425.232877 C235.359589,425.541096 235.05137,425.695205 234.743151,425.695205 L232.585616,425.695205 C232.277397,425.695205 231.969178,425.541096 231.815068,425.232877 L218.715753,389.325342 L218.719136,389.224294 C218.730974,389.11035 218.784247,389.017123 219.023973,389.017123 L220.873288,389.017123 C221.181507,389.017123 221.489726,389.171233 221.643836,389.479452 L233.664384,422.767123 L233.818493,422.767123 L245.530822,389.325342 C245.684932,389.017123 245.839041,388.863014 246.455479,388.863014 L247.996575,388.863014 Z M119.006849,388.863014 L119.315068,390.40411 C119.623288,390.866438 119.623288,391.174658 119.006849,391.328767 C115.308219,392.561644 111.763699,393.94863 108.219178,395.643836 L108.219178,425.232877 C108.219178,425.541096 108.065068,425.695205 107.756849,425.695205 L105.985303,425.693065 C105.860445,425.682363 105.753425,425.618151 105.753425,425.232877 L105.753425,389.325342 C105.753425,389.017123 105.907534,388.863014 106.061644,388.863014 L107.756849,388.863014 C108.065068,388.863014 108.219178,388.863014 108.219178,389.325342 L108.219178,393.794521 C111.30137,391.482877 114.691781,389.633562 118.390411,388.400685 C118.85274,388.246575 119.006849,388.400685 119.006849,388.863014 Z M158.150685,375.763699 C173.407534,375.763699 177.487216,386.336695 177.567284,400.155602 L177.568493,400.575342 C177.568493,414.599315 173.715753,425.695205 158.150685,425.695205 L144.126712,425.695205 C143.510274,425.695205 143.356164,425.541096 143.356164,425.232877 L143.356164,376.226027 C143.356164,375.917808 143.664384,375.763699 144.126712,375.763699 L158.150685,375.763699 Z M426.455479,388.863014 L426.763699,390.40411 C427.071918,390.866438 427.071918,391.174658 426.455479,391.328767 C422.756849,392.561644 419.212329,393.94863 415.667808,395.643836 L415.667808,425.232877 C415.667808,425.541096 415.513699,425.695205 415.205479,425.695205 L413.433933,425.693065 C413.309075,425.682363 413.202055,425.618151 413.202055,425.232877 L413.202055,389.325342 C413.202055,389.017123 413.356164,388.863014 413.510274,388.863014 L415.205479,388.863014 C415.513699,388.863014 415.667808,388.863014 415.667808,389.325342 L415.667808,393.794521 C418.75,391.482877 422.140411,389.633562 425.839041,388.400685 C426.30137,388.246575 426.455479,388.400685 426.455479,388.863014 Z M59.5205479,372.219178 C62.140411,372.219178 64.760274,372.527397 67.2260274,373.452055 C67.8424658,373.606164 68.1506849,373.760274 67.9965753,374.222603 L67.8424658,374.993151 L67.7927166,375.13763 C67.6755581,375.453346 67.5795729,375.437349 66.7636986,375.30137 C64.6061644,374.839041 62.4486301,374.684932 60.2910959,374.684932 C55.5136986,374.684932 52.739726,376.688356 52.739726,381.619863 L52.739726,388.708904 L63.3732877,388.708904 C63.6815068,388.708904 63.8356164,388.708904 63.8356164,389.017123 L63.8356164,390.40411 C63.8356164,390.558219 63.8356164,390.712329 63.3732877,390.712329 L52.739726,390.712329 L52.739726,424.924658 C52.739726,425.232877 52.739726,425.386986 52.4315068,425.386986 L50.7363014,425.386986 C50.4280822,425.386986 50.119863,425.386986 50.119863,424.924658 L50.119863,390.712329 L45.9589041,390.712329 C45.8240582,390.712329 45.5712222,390.594339 45.5101201,390.4616 L45.4965753,390.40411 L45.4965753,389.171233 C45.4965753,388.863014 45.6506849,388.708904 45.9589041,388.708904 L50.119863,388.708904 L50.119863,381.465753 C50.119863,375.14726 53.9726027,372.219178 59.5205479,372.219178 Z M81.25,390.712329 C71.499066,390.712329 69.7313629,397.791798 69.692447,406.887614 L69.6944837,407.849878 C69.7730545,417.082342 71.6111457,424 81.25,424 C91.1926658,424 93.1832302,417.373249 93.2676729,407.862496 L93.2705479,407.202055 L93.2676063,406.534631 C93.1821897,397.04125 91.1900685,390.712329 81.25,390.712329 Z M317.808219,390.712329 C308.057285,390.712329 306.289582,397.791798 306.250666,406.887614 L306.252703,407.849878 C306.331274,417.082342 308.169365,424 317.808219,424 C327.865169,424 329.786159,417.220034 329.828058,407.533401 L329.828767,407.202055 C329.828767,397.339041 327.979452,390.712329 317.808219,390.712329 Z M357.722603,390.558219 C353.253425,390.558219 345.856164,394.256849 343.236301,395.643836 L343.236301,421.842466 C347.39726,423.229452 351.712329,424 356.027397,424 C363.795596,424 366.445214,418.88142 366.505783,406.858708 L366.506849,406.431507 C366.506849,394.10274 363.732877,390.558219 357.722603,390.558219 Z M158.613014,378.075342 L146.130137,378.075342 L146.130137,423.229452 L158.150685,423.229452 C171.866438,423.229452 174.486301,412.59589 174.486301,401.037671 L174.483275,400.379975 C174.383295,389.619877 171.752397,378.075342 158.613014,378.075342 Z M200.068493,390.712329 C190.821918,390.712329 188.818493,397.030822 188.510274,405.660959 L211.626712,405.660959 L211.615056,405.142266 C211.42622,397.633602 210.312452,390.712329 200.068493,390.712329 Z M267.722603,390.712329 C258.476027,390.712329 256.472603,397.030822 256.164384,405.660959 L279.280822,405.660959 L279.269165,405.142266 C279.08033,397.633602 277.966561,390.712329 267.722603,390.712329 Z M389.931507,390.712329 C380.684932,390.712329 378.681507,397.030822 378.373288,405.660959 L401.489726,405.660959 L401.47807,405.142266 C401.289234,397.633602 400.175466,390.712329 389.931507,390.712329 Z" id="Shape" fill="#000000" fill-rule="nonzero"></path>
        <rect id="Rectangle_24" fill="#000000" fill-rule="nonzero" x="170" y="173" width="51" height="51"></rect>
        <rect id="Rectangle_25" fill="#000000" fill-rule="nonzero" x="224" y="173" width="51" height="51"></rect>
        <rect id="Rectangle_26" fill="#000000" fill-rule="nonzero" x="278" y="173" width="51" height="51"></rect>
        <rect id="Rectangle_27" fill="#000000" fill-rule="nonzero" x="278" y="119" width="51" height="51"></rect>
        <rect id="Rectangle_28" fill="#000000" fill-rule="nonzero" x="224" y="65" width="51" height="51"></rect>
        <rect id="Rectangle_29" fill="#000000" fill-rule="nonzero" x="278" y="65" width="51" height="51"></rect>
        <path d="M199.586305,273.42531 L200.376712,273.434932 C213.033165,273.282444 220.559621,278.109071 221.015259,290.004929 L221.027397,290.386986 L221.027397,331.071918 C211.472603,331.071918 209.469178,328.760274 208.69863,328.760274 C207.928082,328.760274 201.763699,333.229452 191.284247,333.229452 C182.191781,333.229452 172.328767,329.222603 172.328767,316.431507 C172.328767,306.819692 177.766308,298.265176 196.267542,298.095047 L196.832192,298.092466 L207.928082,298.092466 L207.928082,293.931507 C207.928082,286.534247 204.229452,284.530822 196.832192,284.530822 C191.108121,284.677593 185.523833,285.663056 180.212452,287.354084 L179.417808,287.613014 L176.643836,278.058219 C183.802475,274.926315 191.682751,273.382011 199.586305,273.42531 L199.586305,273.42531 Z M53.6445243,273.2712 L54.4349315,273.280822 L55.2453329,273.296728 C67.5609455,273.635679 74.7784513,278.365301 75.0782932,290.004979 L75.0856164,290.386986 L75.0856164,331.071918 C65.5308219,331.071918 63.5273973,328.760274 62.7568493,328.760274 C61.9863014,328.760274 55.8219178,333.075342 45.3424658,333.075342 C36.25,333.075342 26.3869863,329.068493 26.3869863,316.277397 C26.3869863,306.665582 31.8245274,298.111067 50.325761,297.940938 L50.890411,297.938356 L61.9863014,297.938356 L61.9863014,293.777397 C61.9863014,286.380137 58.2876712,284.376712 50.890411,284.376712 C45.1663405,284.523483 39.582052,285.508946 34.2706711,287.199975 L33.4760274,287.458904 L30.7020548,277.90411 C37.8606938,274.772205 45.7409697,273.227902 53.6445243,273.2712 Z M331.061644,273.434932 C336.551798,273.290454 342.041952,273.687768 347.405124,274.626873 L348.476027,274.821918 L348.476027,284.839041 C343.236301,283.914384 337.996575,283.452055 332.60274,283.452055 C328.788527,283.452055 324.974315,283.711045 321.278806,284.229024 L320.273973,284.376712 L320.273973,297.784247 L345.702055,297.784247 L345.702055,307.64726 L320.273973,307.64726 L320.273973,321.671233 C324.743151,322.441781 329.058219,322.75 333.527397,322.75 C338.535959,322.75 343.544521,322.351359 348.429693,321.554078 L349.554795,321.363014 L349.554795,331.380137 L349.022475,331.497086 C347.266856,331.85658 341.126801,332.921233 329.982877,332.921233 C322.774751,332.921233 315.707043,332.078725 308.645718,330.393708 L307.636986,330.14726 L307.482877,276.054795 C315.188356,274.205479 323.047945,273.280822 331.061644,273.434932 Z M452.65411,273.280822 C459.052315,273.132026 465.306855,274.419877 471.001599,277.005663 L471.609589,277.287671 L468.373288,286.842466 C463.75,284.993151 458.972603,283.760274 453.886986,283.606164 C446.181507,283.606164 444.640411,287.458904 444.640411,289.462329 C444.640411,293.396326 449.186364,295.401738 454.76173,297.432196 L455.736301,297.784247 C466.832192,301.791096 473.767123,305.797945 473.767123,315.044521 C473.767123,329.222603 460.513699,332.767123 450.034247,332.767123 C444.031678,332.913527 437.890026,332.225428 432.005679,330.967085 L431.078767,330.763699 L433.236301,320.746575 C438.476027,321.825342 443.869863,322.287671 449.263699,322.441781 C458.818493,322.441781 460.821918,319.359589 460.821918,315.660959 C460.821918,312.104584 456.547428,310.115521 451.149516,308.323743 L448.552168,307.478099 C440.738984,304.888946 431.695205,301.034247 431.695205,290.232877 C431.695205,278.828767 442.020548,273.280822 452.65411,273.280822 Z M375.136986,273.89726 L376.986301,273.89726 L376.986301,308.417808 C376.986301,317.510274 378.527397,321.517123 387.311644,321.517123 C392.480736,321.221747 397.649829,319.935627 402.412009,317.794402 L403.030822,317.510274 L403.030822,273.89726 L405.650685,273.89726 C408.840753,273.89726 411.905993,274.146918 414.95875,274.533887 L415.976027,274.667808 L415.976027,330.763699 C411.506849,330.917808 407.191781,329.993151 403.339041,328.143836 C397.174658,331.226027 390.547945,332.767123 383.767123,332.767123 C368.362329,332.767123 364.354062,325.662795 364.199893,310.87395 L364.195205,309.958904 L364.195205,274.667808 C367.523973,274.251712 370.727911,273.960445 374.031712,273.906353 L375.136986,273.89726 Z M262.791096,273.280822 C280.946747,273.280822 292.154428,284.004861 292.227234,302.013695 L292.226027,302.561644 C292.226027,323.828767 283.441781,332.767123 260.633562,332.767123 C253.816479,332.767123 247.135908,332.357586 240.463367,331.281548 L239.212329,331.071918 L239.212329,276.825342 C245.376712,274.513699 255.547945,273.280822 262.791096,273.280822 Z M147.517123,273.434932 L148.105079,273.44211 C149.147142,273.465267 150.464194,273.540527 151.520731,273.609998 L153.373288,273.743151 L159.229452,332.150685 L146.438356,332.150685 L143.664384,293.006849 L131.489726,322.59589 C130.565068,324.907534 128.715753,325.832192 125.171233,325.832192 C121.734122,325.832192 119.891034,324.962725 118.939368,322.802232 L118.85274,322.59589 L106.678082,293.006849 L103.90411,332.150685 L91.1130137,332.150685 L96.9691781,273.743151 L98.8738383,273.609998 C100.165997,273.526633 101.816625,273.434932 102.825342,273.434932 L103.449311,273.437989 C108.356784,273.488624 111.254045,274.208436 113.040472,278.552516 L113.150685,278.828767 L124.400685,307.64726 C124.708904,308.417808 125.017123,309.958904 125.325342,310.883562 C125.46661,310.177226 125.866866,308.693921 126.170002,307.858091 L137.191781,278.828767 C139.041096,274.05137 142.123288,273.434932 147.517123,273.434932 Z M208.082192,306.722603 L194.520548,307.184932 C187.277397,307.493151 184.503425,310.267123 184.503425,315.35274 C184.503425,321.054795 188.510274,322.90411 193.75,322.90411 C198.275955,322.612112 202.940225,321.628543 207.21867,319.953402 L207.928082,319.667808 L208.082192,306.722603 Z M62.140411,306.568493 L48.7328767,307.030822 C41.489726,307.339041 38.7157534,310.113014 38.7157534,315.19863 C38.7157534,320.900685 42.7226027,322.75 47.9623288,322.75 C52.4882841,322.458003 57.1525538,321.474434 61.4309991,319.799292 L62.140411,319.513699 L62.140411,306.568493 Z M262.174658,283.452055 C259.092466,283.452055 256.010274,283.706781 252.928082,284.216235 L252.003425,284.376712 L251.849315,284.376712 L251.849315,322.133562 L253.884661,322.335659 C256.240487,322.563546 258.544521,322.75 260.941781,322.75 C275.119863,322.75 278.664384,316.431507 278.664384,302.715753 C278.664384,288.691781 271.421233,283.452055 262.174658,283.452055 Z" id="Shape" fill="#000000" fill-rule="nonzero"></path>
    </g>
</svg>