<?xml version="1.0" encoding="UTF-8"?>
<svg width="500px" height="500px" viewBox="0 0 500 500" version="1.1" xmlns="http://www.w3.org/2000/svg" xmlns:xlink="http://www.w3.org/1999/xlink">
    <!-- Generator: Sketch 63.1 (92452) - https://sketch.com -->
    <title>autentia</title>
    <desc>Created with Sketch.</desc>
    <g id="autentia" stroke="none" stroke-width="1" fill="none" fill-rule="evenodd">
        <path d="M335.337978,343.576715 L335.337978,355.027175 L275.453244,355.027175 L275.453244,343.576715 L335.337978,343.576715 Z M96.1952331,274.413245 L96.1952331,304.419783 C96.1952331,312.636548 100.332214,317.349679 107.545948,317.349679 C111.205219,317.349679 114.952024,315.404322 118.407062,311.715269 L118.895268,311.181525 L118.895268,274.413245 L137.424143,274.413245 L137.424143,332.126604 L118.895268,332.126604 L118.895268,327.672252 L117.999654,328.360005 C113.042392,332.169152 108.02305,333.942941 102.203656,333.942941 C87.4412254,333.942941 77.8505141,323.751955 77.6601761,307.932976 L77.65729,307.451895 L77.65729,274.413245 L96.1952331,274.413245 Z M176.153566,250.699437 L176.153566,274.412966 L196.161878,274.412966 L196.161878,290.157348 L176.153566,290.157348 L176.153566,307.580657 C176.153566,313.644881 179.623022,316.984598 185.923705,316.984598 C188.225515,316.984598 190.786119,316.594614 194.140527,315.967068 L195.886358,315.634203 L197.930784,331.195835 C190.527325,333.513689 186.288507,333.942662 180.70836,333.942662 C166.822265,333.942662 157.79926,324.034673 157.618394,308.654446 L157.615623,308.181918 L157.615623,290.157348 L146.100294,290.157348 L146.100294,274.412966 L157.615623,274.412966 L157.615623,260.237999 L176.153566,250.699437 Z M372.490033,245.551054 L372.490033,274.412966 L392.496252,274.412966 L392.496252,290.157348 L372.490033,290.157348 L372.490033,307.580657 C372.490033,313.644881 375.958791,316.984598 382.258079,316.984598 C384.543079,316.984598 387.079049,316.601087 390.391593,315.982707 L392.220732,315.634203 L394.266553,331.195835 C386.863094,333.513689 382.625671,333.942662 377.044827,333.942662 C363.156661,333.942662 354.133634,324.034673 353.952768,308.654446 L353.949997,308.181918 L353.949997,290.157348 L342.435366,290.157348 L342.435366,274.412966 L353.949997,274.412966 L353.949997,255.091709 L372.490033,245.551054 Z M235.070563,273.080775 C252.453416,273.080775 264.594419,284.972067 264.594419,302.00058 L264.590668,303.440534 C264.579416,304.887135 264.534407,306.347687 264.354373,307.768247 L264.252635,308.474945 L222.198561,308.474945 L222.410606,309.189204 C224.295998,315.546385 229.180719,319.047927 236.167062,319.047927 C240.139173,319.047927 243.333044,317.642012 245.239582,315.071496 L245.432197,314.801436 L263.829241,314.801436 C260.868276,326.160521 249.998849,333.458655 235.920838,333.458655 C217.329186,333.458655 204.344186,321.018416 204.344186,303.205195 C204.344186,285.468002 216.979032,273.080775 235.070563,273.080775 Z M28.6728836,273.080706 C34.3981136,273.080706 39.5532371,274.458949 44.0081666,277.177911 L44.5002707,277.485534 L45.3561256,278.033783 L45.3561256,274.412966 L63.8940687,274.412966 L63.8940687,332.126325 L45.3561256,332.126325 L45.3561256,328.386929 L44.5002707,328.935876 C39.9336186,331.85778 34.6087641,333.340007 28.6728836,333.340007 C12.5943899,333.340007 0,320.103202 0,303.205125 C0,286.313325 12.5943899,273.080706 28.6728836,273.080706 Z M464.778117,273.080706 C470.503347,273.080706 475.659119,274.458949 480.11347,277.177911 L480.605504,277.485534 L481.461359,278.033783 L481.461359,274.412966 L500,274.412966 L500,332.126325 L481.461359,332.126325 L481.461359,328.386929 L480.605504,328.935876 C476.038852,331.85778 470.713998,333.340007 464.778117,333.340007 C448.700321,333.340007 436.105234,320.103202 436.105234,303.205125 C436.105234,286.313325 448.700321,273.080706 464.778117,273.080706 Z M310.793147,272.596209 C325.554196,272.596209 335.14421,282.78788 335.334534,298.605519 L335.33742,299.086558 L335.33742,332.126604 L316.681596,332.126604 L316.681596,302.236551 C316.681596,294.020483 312.591349,289.307352 305.459922,289.307352 C300.735179,289.307352 297.943137,291.217191 294.729197,294.759481 L293.982259,295.600362 L293.982259,332.126604 L275.453383,332.126604 L275.453383,274.413245 L293.982259,274.413245 L293.982259,279.020353 L294.885545,278.302606 C299.711674,274.462768 304.914463,272.596209 310.793147,272.596209 Z M424.303922,274.413035 L424.302527,332.126395 L405.764584,332.125697 L405.764584,274.413035 L424.303922,274.413035 Z M32.5538753,287.974813 C24.3552455,287.974813 18.1724435,294.522417 18.1724435,303.205125 C18.1724435,311.82087 24.3552455,318.317556 32.5538753,318.317556 C42.1942753,318.317556 47.7221076,312.810649 47.7221076,303.208612 L47.7124065,302.563348 C47.5666034,297.702102 45.6356134,287.974813 32.5538753,287.974813 Z M468.660504,287.974813 C460.461177,287.974813 454.278375,294.522417 454.278375,303.205125 C454.278375,311.82087 460.461177,318.317556 468.660504,318.317556 C478.160501,318.317556 483.667626,312.969113 483.825257,303.623507 L483.828736,303.208612 C483.828736,298.62801 482.350695,287.974813 468.660504,287.974813 Z M235.070563,287.125306 C228.590381,287.125306 223.937873,290.721566 222.251405,297.009586 L222.157407,297.375337 L221.98791,298.063787 L247.37339,298.063787 L247.263182,297.415095 C246.141573,290.780302 241.81138,287.125306 235.070563,287.125306 Z M414.414787,243.011948 C417.541761,242.870352 420.545973,243.993357 422.697817,246.055918 C424.749915,248.024315 425.88129,250.703482 425.882686,253.598183 C425.884778,259.144849 420.998662,263.945867 415.214143,264.08258 C412.03067,264.170468 409.119228,263.049556 406.992495,260.957699 C405.010846,259.008135 403.928297,256.369423 403.947828,253.527036 C403.985494,247.967118 408.681187,243.249802 414.414787,243.011948 Z" id="Shape" fill="#000000" fill-rule="nonzero"></path>
    </g>
</svg>