<?xml version="1.0" encoding="UTF-8"?>
<svg width="500px" height="500px" viewBox="0 0 500 500" version="1.1" xmlns="http://www.w3.org/2000/svg" xmlns:xlink="http://www.w3.org/1999/xlink">
    <!-- Generator: Sketch 63.1 (92452) - https://sketch.com -->
    <title>corunet</title>
    <desc>Created with Sketch.</desc>
    <g id="corunet" stroke="none" stroke-width="1" fill="none" fill-rule="evenodd">
        <g id="Group" transform="translate(73.000000, 71.000000)" fill-rule="nonzero">
            <path d="M122.541764,326.038687 C122.438262,325.948255 119.955981,325.703101 117.025426,325.493624 C93.8487516,323.837592 72.1122739,314.693739 56.5633077,300.058981 C33.9437073,278.769364 21.8578187,247.564043 20.4254289,206.75176 C19.2114883,172.16302 26.8992488,136.476735 42.0755019,106.253447 C62.4138195,65.7495509 94.3701473,37.3758757 131.115473,27.1953775 C139.823064,24.782898 148.301396,22.9064387 149.409185,23.1465068 C149.637384,23.1959617 151.153529,22.9842948 152.778475,22.6761556 C162.741866,20.7870147 191.294992,20.7766645 207.308834,22.6563737 C216.290899,23.7107163 232.73076,26.1239023 233.291013,26.4702984 C233.504375,26.6020603 234.872156,26.8863199 236.330368,27.1020138 C237.788934,27.317743 242.312289,28.2814419 246.382425,29.2436219 C298.603948,41.5887246 334.295179,67.3593071 344.922325,100.393751 C347.959561,109.835747 348.512042,114.261252 348.416665,128.321979 C348.335418,140.052676 348.140778,142.401076 346.456133,151.998854 C345.427471,157.858904 344.357126,164.118478 344.07806,165.909098 C343.79864,167.699718 342.769625,173.027068 341.791478,177.747535 C340.813331,182.468003 339.586497,188.461228 339.065101,191.065734 C334.017525,216.282068 331.920991,224.692223 327.630074,236.939723 C320.636448,256.902537 311.243908,271.044865 298.721933,280.467785 C291.613501,285.816683 278.343698,291.54921 267.991027,293.743593 C266.688597,294.019481 263.092168,294.83372 259.998765,295.552582 C256.905363,296.271797 253.841633,296.937672 253.190595,297.032696 C252.539204,297.12772 248.942775,297.918998 245.198334,298.79117 C241.45354,299.662989 236.658184,300.751703 234.541868,301.210573 C232.425199,301.669091 228.82877,302.600962 226.549607,303.280966 C224.27009,303.960971 220.673661,304.994224 218.557346,305.577439 C216.440677,306.160653 209.780518,308.24447 203.756561,310.208888 C172.678411,320.342192 161.979202,322.998625 142.482323,325.422267 C139.362427,325.810135 122.864281,326.320227 122.541764,326.038687 L122.541764,326.038687 Z" id="Path" fill-opacity="0.5" fill="#000000"></path>
            <path d="M188.417425,332.671646 C180.339324,331.886726 174.239419,330.042413 165.2298,325.662124 C161.802224,323.995141 158.195197,322.157892 157.214578,321.578564 C155.121223,320.342898 145.573606,314.393124 143.613074,313.103058 C142.868071,312.612748 140.575838,311.141819 138.519221,309.834797 C136.462958,308.527422 133.943939,306.909541 132.921989,306.239428 C129.092062,303.729239 115.856525,295.81328 114.862128,295.438129 C114.293044,295.223707 112.356886,294.202464 110.558848,293.168151 C108.761163,292.134191 100.336172,287.728468 91.8373512,283.377852 C73.37302,273.926318 67.5532409,270.638276 57.449963,263.950563 C26.5026913,243.465294 7.98911727,218.745628 1.69259313,189.501546 C-0.895309877,177.481892 -0.347950376,159.983344 3.02388306,146.941034 C9.96010602,120.111763 27.7673585,93.0567671 53.7415538,69.884685 C80.249014,46.2371297 110.647866,30.0954114 143.544543,22.2004704 C165.069778,17.0345907 189.968542,16.3945739 210.355961,20.4832205 C246.439652,27.7196699 278.790912,51.4546191 311.13758,94.4231347 C337.912803,129.991081 352.570875,164.092691 354.181691,194.552302 C355.693597,223.20787 346.451187,244.998042 324.832695,263.737554 C319.626156,268.250665 311.812992,274.273209 305.503256,278.637248 C302.822802,280.490747 301.16889,281.652936 294.506612,286.364926 C292.753436,287.605184 262.984427,307.213689 260.247453,308.931186 C237.217024,323.384727 218.363412,331.052352 202.087106,332.585453 C195.313201,333.223421 194.169733,333.230486 188.417425,332.671646 L188.417425,332.671646 Z" id="Path" fill-opacity="0.5" fill="#000000"></path>
            <path d="M174.70924,352.955916 C173.733213,352.821682 170.539134,352.426043 167.611052,352.072794 C164.68297,351.719544 161.488892,351.203801 160.512864,350.924734 C159.536837,350.645667 157.540273,350.105196 156.076409,349.723687 C148.066132,347.64305 142.119183,345.387554 133.007122,340.981478 C101.837834,325.910458 71.0207342,294.831601 51.1727263,258.451888 C48.3573308,253.291271 46.0537934,248.949486 46.0537934,248.803241 C46.0537934,248.657349 45.3568329,247.024632 44.504796,245.17502 C40.7854361,237.098685 35.164183,220.955201 33.1404188,212.536921 C29.4613999,197.233816 28.1513756,186.41203 28.190681,171.655755 C28.2419487,153.153626 31.0611945,137.905275 37.3638652,122.049688 C47.3018225,97.0467158 63.6070951,76.7695103 94.8721143,50.5312259 C103.504463,43.2867931 123.005933,29.8640333 134.485823,23.2651985 C140.351878,19.8932591 157.351285,11.7752413 158.194844,11.4542791 C159.033457,11.1352245 159.39801,11.0808242 160.423492,10.624391 C165.204013,8.49592377 177.303501,4.57524719 182.694789,3.40772354 C183.833311,3.16112034 185.031179,2.89053152 185.356521,2.8064229 C191.948503,1.10231386 197.759098,0.0884889028 209.688674,0.0617385939 C222.002584,0.0359607597 223.004046,0.603808709 229.720371,2.2017664 C233.62448,3.13059961 236.981407,4.27547999 237.380578,4.41960563 C238.407826,4.79034057 238.195524,4.63130782 238.859632,4.95248192 C240.26839,4.9584165 251.768061,10.9457417 255.708908,13.7252117 C266.848266,21.5822491 278.519263,34.564366 290.353815,52.2621465 C291.767518,54.3766957 293.079132,56.2393783 293.268473,56.4022261 C293.783511,56.8452005 309.279843,80.0441295 309.279843,80.3726512 C309.279843,80.5284341 310.435321,82.3179941 311.847611,84.3495297 C325.886084,104.543015 335.553099,123.904599 339.677635,140.088001 C341.737431,148.169634 342.048643,150.747646 341.997776,159.309345 C341.912289,173.796797 338.477295,183.752417 327.203703,202.187075 C326.805944,202.83776 326.289847,203.769278 326.056703,204.257115 C325.823558,204.744952 325.480554,205.277299 325.294038,205.439793 C324.688922,205.967901 322.293187,209.521587 322.293187,209.891085 C322.293187,210.088552 321.628019,211.122512 320.814486,212.188618 C320.001307,213.254723 319.335785,214.402076 319.335785,214.738016 C319.335785,215.07431 318.921071,215.693202 318.414158,216.113922 C317.907599,216.534288 317.106783,217.697891 316.635196,218.699705 C316.163255,219.70152 315.180516,221.367442 314.451057,222.401403 C312.026708,225.838516 308.521417,231.59789 306.451024,235.546509 C305.325925,237.691437 303.089505,241.800784 301.481162,244.678351 C299.872819,247.555919 297.423036,252.213508 296.03724,255.028197 C288.440618,270.460238 279.998671,285.685981 273.852842,295.040018 C252.900578,326.929581 227.482185,345.747162 197.523834,351.546452 C191.631285,352.687447 178.614762,353.492855 174.70924,352.955916 L174.70924,352.955916 Z" id="Path" fill-opacity="0.5" fill="#000000"></path>
            <path d="M174.708533,352.955916 C173.732506,352.821682 170.538428,352.426043 167.610346,352.072794 C164.682264,351.719544 161.488185,351.203801 160.512158,350.924734 C159.536131,350.645667 157.53992,350.105196 156.075702,349.727219 C148.065425,347.64305 142.118477,345.387554 133.006416,340.981831 C101.837127,325.910458 71.0203809,294.831601 51.172373,258.451888 C48.3569776,253.291625 46.0530869,248.94984 46.0530869,248.803595 C46.0530869,248.657349 45.3564796,247.024632 44.5044428,245.17502 C40.7847296,237.098685 35.1638297,220.955554 33.1400655,212.537274 C29.460976,197.233816 28.1509517,186.412383 28.1902571,171.656108 C28.2415248,153.153979 31.0608413,137.905628 37.3631587,122.050041 C47.3014692,97.0470691 63.6063886,76.7698635 94.8717611,50.5315791 C103.50411,43.2874996 123.00558,29.8643865 134.48547,23.2656224 C140.351525,19.8937184 157.291586,11.454703 158.194491,11.454703 C158.394783,11.454703 159.397657,11.0812834 160.422786,10.6248502 C165.203306,8.49634767 177.303148,4.57567109 182.694083,3.40814744 C183.832958,3.16157956 185.030472,2.89099074 185.355815,2.80688213 C191.94815,1.10277308 197.678557,0.567530025 209.608133,0.538208302 C221.922044,0.515001882 223.003339,0.604267933 229.720018,2.20222562 C233.623774,3.13105884 237.071132,4.12905823 237.380225,4.42006485 C237.688964,4.71103615 238.354486,4.95082164 238.858926,4.95294114 C240.268036,4.95887572 251.767355,10.9461656 255.708202,13.7256709 C266.847559,21.582673 278.518557,34.5647192 290.353109,52.2624998 C291.766811,54.377049 293.078425,56.2400848 293.267767,56.4025794 C293.782804,56.8455538 309.279136,80.0444828 309.279136,80.3730045 C309.279136,80.5287873 310.434614,82.3183473 311.846904,84.349883 C325.885377,104.543369 335.552392,123.904952 339.676929,140.088354 C341.736724,148.169987 342.047584,150.747999 341.997069,159.309345 C341.911583,173.796797 338.476588,183.752417 327.202996,202.187429 C326.805238,202.83776 326.289141,203.769278 326.055996,204.257115 C325.822852,204.745305 325.479847,205.277652 325.293332,205.440146 C324.688216,205.967901 322.29248,209.521587 322.29248,209.891439 C322.29248,210.088905 321.627312,211.122865 320.81378,212.188971 C320.0006,213.255077 319.335079,214.40243 319.335079,214.73837 C319.335079,215.07431 318.920364,215.693555 318.413452,216.113922 C317.906893,216.534641 317.106077,217.698244 316.634489,218.700058 C316.162548,219.701873 315.179809,221.367442 314.45035,222.401756 C312.026001,225.83887 308.52071,231.598243 306.450317,235.546509 C305.325219,237.69179 303.088799,241.801137 301.480456,244.678705 C299.872112,247.556272 297.42233,252.213508 296.036533,255.02855 C288.439911,270.460238 279.997964,285.685981 273.852136,295.040018 C252.899871,326.929581 227.481478,345.747162 197.523127,351.546452 C191.630579,352.687447 178.614056,353.492855 174.708533,352.955916 L174.708533,352.955916 Z" id="Path" fill-opacity="0.5" fill="#000000"></path>
            <path d="M193.604888,358.46307 C192.696331,358.339433 189.723034,357.968521 186.997717,357.64 C184.272047,357.311478 181.299102,356.831059 180.390545,356.573187 C179.481989,356.311783 177.623898,355.810169 176.261063,355.45692 C168.805034,353.517582 163.269621,351.419283 154.787756,347.317354 C125.775053,333.288772 97.0901655,304.360142 78.6152369,270.497682 C75.9948349,265.693848 73.8506128,261.652678 73.8506128,261.516677 C73.8506128,261.380676 73.2016942,259.860645 72.4090032,258.139262 C68.9464554,250.621415 63.7144828,235.595257 61.8306053,227.759132 C58.4062084,213.514715 57.1867924,203.441816 57.2234033,189.706431 C57.271219,172.484477 59.8955066,158.291281 65.7615614,143.532533 C75.0124492,120.259422 90.1894441,101.385321 119.291166,76.9623843 C127.326523,70.2192119 145.478582,57.7247908 156.164368,51.5828485 C161.624539,48.4442301 177.392873,40.5890296 178.2329,40.5890296 C178.419769,40.5890296 179.353053,40.2414325 180.307179,39.8164738 C184.757058,37.8350995 196.019699,34.1856829 201.037603,33.0990886 C202.097703,32.8694767 203.212558,32.6176101 203.515292,32.5395421 C209.651229,30.9531003 214.985644,30.455019 226.089677,30.427723 C237.551551,30.4059174 238.557957,30.4892842 244.810113,31.976463 C248.443987,32.8412168 251.652549,33.770262 251.940093,34.0408508 C252.227991,34.3117929 252.847237,34.5350463 253.316705,34.5371658 C254.628319,34.5424645 265.332121,40.1156758 269.000259,42.7028723 C279.368827,50.0161887 290.232297,62.1001343 301.248018,78.5735535 C302.564224,80.5415043 303.785053,82.2756042 303.960971,82.427148 C304.440683,82.8393898 318.864904,104.433155 318.864904,104.738715 C318.864904,104.883901 319.940548,106.549823 321.254988,108.440766 C334.322026,127.237151 343.32034,145.258861 347.159452,160.322816 C349.077241,167.845256 349.366905,170.244878 349.320983,178.214178 C349.239736,191.699462 346.042125,200.966246 335.548507,218.125675 C335.178301,218.731144 334.697883,219.598018 334.480988,220.052296 C334.264093,220.506574 333.944756,221.00183 333.77131,221.153373 C333.207878,221.644743 330.97817,224.952568 330.97817,225.296632 C330.97817,225.480322 330.358571,226.442572 329.601558,227.435202 C328.844545,228.427479 328.224946,229.495351 328.224946,229.80833 C328.224946,230.120955 327.839198,230.697105 327.367257,231.088858 C326.89567,231.480258 326.150314,232.56332 325.711225,233.495898 C325.272137,234.428122 324.357221,235.978532 323.678277,236.941136 C321.421721,240.140867 318.159112,245.501422 316.231785,249.176626 C315.184402,251.173543 313.102705,254.998524 311.605635,257.676859 C310.108565,260.355547 307.828342,264.69062 306.53863,267.310669 C299.467289,281.674838 291.609616,295.847192 285.889099,304.554076 C266.386216,334.237599 242.72665,351.751337 214.840812,357.152516 C209.355913,358.212263 197.239822,358.961151 193.604888,358.46307 L193.604888,358.46307 Z" id="Path" fill-opacity="0.5" fill="#000000"></path>
            <path d="M109.28927,112.203187 C103.853826,112.205695 98.4180289,113.176424 93.3181715,115.056769 C88.4588767,116.901082 83.9959274,119.787481 80.3242561,123.465864 C76.6914422,127.078189 73.7993917,131.421034 71.8664126,136.164816 C69.8769136,141.114896 68.8786316,146.468386 68.9556399,151.802448 C68.8192857,158.833871 70.610612,165.893908 74.077752,172.012889 C77.5780975,178.177086 82.8906109,183.300258 89.1791516,186.573111 C92.0655501,188.162379 95.1702566,189.341171 98.3837637,190.069218 C101.866447,190.998263 105.414128,191.300997 108.977351,191.307003 C111.946057,191.297112 114.922534,190.988019 117.832247,190.399859 C120.856413,189.780613 123.822645,188.881948 126.677605,187.707041 L126.677605,187.640983 L127.320165,167.912374 C129.232302,172.380268 132.042399,176.463122 135.542038,179.836297 C139.308733,183.469111 143.760025,186.384476 147.004972,187.707041 C150.249918,189.029606 151.942335,189.575376 153.66725,190.012698 L153.705048,262.256734 L179.778365,262.256734 L179.806625,224.981887 L201.920372,262.275456 L279.288993,262.256734 L279.288993,241.866488 L255.011594,241.838229 L255.011594,234.099953 L276.472891,234.062156 L276.472891,214.80584 L255.011594,214.768043 L255.011594,207.69105 L288.41801,207.69105 L288.41801,262.218936 L288.493605,262.218936 L288.493605,262.294531 L315.445806,262.256734 L315.483604,207.69105 L330.442997,207.653252 L330.442997,187.272545 L318.044306,187.234747 C322.803279,184.874336 326.904147,181.217855 329.772177,176.746781 C331.463181,174.109776 332.627136,171.132239 333.155244,168.044489 C333.938044,163.69034 334.204394,154.835445 334.204394,154.835445 L334.166596,114.036232 L307.120078,114.07403 L307.186135,156.696714 C307.317544,158.354866 306.708189,161.740052 305.314975,164.756446 C304.695376,165.67878 303.82285,166.431553 302.820329,166.910559 C301.817455,167.389918 300.69271,167.59233 298.775627,167.543582 C296.858191,167.495186 294.959124,166.610651 293.842503,164.841579 C293.84109,164.839813 293.833672,164.843345 293.832966,164.841579 L293.832966,164.832041 C292.462006,161.780322 291.878791,158.377474 292.150793,155.043155 L292.112996,114.036232 L265.02868,114.036232 L264.990882,128.237553 C263.715299,125.264961 261.735338,122.602523 259.245285,120.537075 L259.245285,120.527538 C256.005991,118.166421 252.351629,116.385339 248.500154,115.274017 C244.650445,114.163048 240.609628,113.727139 236.611908,113.998434 C236.610495,113.998434 236.603783,113.998434 236.60237,113.998434 L202.581655,114.036232 L202.543857,138.442213 C202.302235,137.729356 202.051781,137.021445 201.769182,136.325544 C199.84468,131.59236 196.941679,127.260112 193.3018,123.673927 C189.577142,120.010028 185.108894,117.10738 180.241474,115.207959 C175.214033,113.229411 169.805436,112.241726 164.402844,112.307078 C159.008023,112.350174 153.613909,113.333266 148.555029,115.207959 L148.611549,115.340074 C148.608369,115.343254 148.605543,115.346786 148.602011,115.349612 C148.585055,115.302983 148.572338,115.254235 148.555029,115.207959 C143.697853,117.097842 139.240203,120.002256 135.542038,123.673927 C131.919115,127.746183 128.840196,132.062181 127.027321,136.335082 L126.989524,116.067768 L126.979986,116.010894 C124.203801,114.754387 121.293735,113.787191 118.314079,113.148164 C115.350319,112.512315 112.320501,112.199337 109.28927,112.203187 L109.28927,112.203187 Z M234.06039,133.339883 C234.193565,133.337324 234.32462,133.335644 234.457442,133.339883 C236.334254,133.399935 238.190578,134.09407 239.636074,135.295823 C241.082275,136.741672 241.864016,138.82019 241.73402,140.86091 C241.73402,140.862323 241.73402,140.868681 241.73402,140.870448 C241.858364,142.864539 241.074151,144.896781 239.636074,146.284343 L239.5792,146.218286 L239.626536,146.284343 C237.961673,147.624571 235.787071,148.321531 233.654153,148.183411 L233.644615,148.183411 L229.439185,148.183411 L229.439185,148.107815 L229.373127,148.107815 L229.373127,133.424663 L229.439185,133.424663 L229.439185,133.349067 L233.644615,133.349067 C233.647441,133.349067 233.650974,133.349421 233.654153,133.349067 C233.786622,133.340589 233.927215,133.342002 234.06039,133.339883 Z M110.555668,136.779116 C110.801177,136.77735 111.047391,136.777703 111.292546,136.788654 C114.089219,136.779823 116.883773,137.387411 119.429286,138.546068 C121.548781,139.510792 123.530508,140.779309 125.288276,142.306405 L125.241294,142.363278 L125.316889,142.372463 C124.641477,145.465512 124.302711,148.636629 124.315075,151.802448 C124.327085,154.895497 124.646422,157.984661 125.269554,161.014831 L125.203496,161.033554 L125.241294,161.090427 C123.207639,162.524265 121.025266,163.745094 118.739391,164.728186 C116.233088,165.805949 113.510597,166.386338 110.782454,166.410005 C110.780688,166.410005 110.77433,166.410005 110.772917,166.410005 C108.87067,166.500437 106.956413,166.183926 105.17851,165.502861 C103.398841,164.821091 101.761532,163.771588 100.406115,162.432067 C99.0895555,161.012005 98.0538291,159.319236 97.391487,157.500003 C96.7294981,155.682183 96.4370079,153.734721 96.5313254,151.802448 C96.4380676,149.812596 96.7453943,147.801902 97.4384691,145.934627 C98.1322504,144.065939 99.2149589,142.346322 100.585565,140.898707 L100.585565,140.88917 C101.988671,139.512205 103.673316,138.427377 105.509152,137.724058 C107.114316,137.109051 108.836405,136.792187 110.555668,136.779116 L110.555668,136.779116 Z M163.741208,137.383779 C163.957397,137.384585 164.177824,137.399422 164.393306,137.412139 C164.396485,137.412139 164.399664,137.412139 164.402844,137.412139 C166.127053,137.347494 167.863272,137.667891 169.449361,138.347542 C171.037922,139.028253 172.473526,140.065393 173.61664,141.361817 C176.013436,144.252455 177.285132,148.052002 177.103916,151.802448 C177.285839,155.521455 176.012023,159.28815 173.61664,162.139223 L173.61664,162.148408 C172.465401,163.431409 171.027678,164.453358 169.439823,165.124885 C167.854794,165.795352 166.12246,166.116808 164.402844,166.050751 C164.399664,166.050751 164.396485,166.051104 164.393306,166.050751 C162.670157,166.115395 160.935704,165.794998 159.347142,165.124885 C157.755402,164.453712 156.308494,163.430702 155.151249,162.148408 L155.151249,162.139223 C152.740678,159.295568 151.463329,155.52534 151.644899,151.802448 C151.472513,148.056594 152.747389,144.267998 155.151249,141.390077 C156.270696,140.056915 157.709833,138.987983 159.309345,138.300207 C160.508626,137.784463 161.795512,137.47749 163.098648,137.402601 C163.314483,137.390237 163.525373,137.382819 163.741208,137.383779 L163.741208,137.383779 Z M265.00042,149.213485 L265.05694,149.241745 L265.142073,149.241745 L265.142073,154.835445 C265.01349,159.700745 265.186582,163.786777 266.162609,168.120084 C266.833429,171.096914 267.212112,173.414229 269.442174,176.661648 C272.450443,181.042643 276.489847,184.95841 281.368217,187.243931 L281.339957,187.310342 L281.339957,187.3764 L271.284721,187.3764 L271.284721,187.310342 L271.228202,187.34814 L252.412741,158.671377 L252.478798,158.633579 L252.469614,158.557984 C254.541773,158.33579 256.566244,157.683339 258.375939,156.649379 C260.185634,155.615419 261.781614,154.202422 263.025404,152.529788 C263.791954,151.498654 264.446172,150.39687 265.00042,149.213485 L265.00042,149.213485 Z M229.174601,164.406729 L241.29917,187.272545 L241.242651,187.310342 L241.242651,187.3764 L229.108544,187.3764 L229.108544,187.310342 L229.042486,187.310342 L229.042486,164.434989 L229.118081,164.434989 L229.174601,164.406729 L229.174601,164.406729 Z M202.543857,164.623978 L202.619452,164.652591 L202.68551,164.652591 L202.68551,187.310342 L202.68551,189.228132 L202.68551,225.12354 L202.619452,225.12354 L202.553393,225.161338 L180.553393,188.132353 L180.609913,188.094555 L180.591191,188.028498 C185.223346,186.138615 189.483178,183.338056 193.055939,179.836297 C196.728317,176.24658 199.653573,171.904795 201.608453,167.156421 C201.950398,166.325579 202.261964,165.478841 202.543857,164.623978 L202.543857,164.623978 Z" id="Shape" fill="#FFFFFF"></path>
            <path d="M138.965728,237.016025 C135.555461,237.016025 132.168509,238.419484 129.75723,240.830409 C127.345952,243.241334 125.94214,246.62758 125.94214,250.03714 C125.94214,253.446701 127.345952,256.832947 129.75723,259.243872 C132.168509,261.654797 135.555461,263.053664 138.965728,263.053664 C142.375642,263.053664 145.762595,261.654797 148.173873,259.243872 C150.585151,256.832947 151.984371,253.446701 151.984371,250.03714 C151.984371,246.62758 150.585151,243.241334 148.173873,240.830409 C145.762595,238.419484 142.375642,237.016025 138.965728,237.016025 L138.965728,237.016025 Z" id="Path" fill="#FFFFFF"></path>
        </g>
    </g>
</svg>