<svg width="500" height="500" viewBox="0 0 500 500" xmlns="http://www.w3.org/2000/svg"><g fill-rule="nonzero" fill="none"><path d="M180.06 437.88c-.132-.115-3.314-.43-7.07-.698-29.705-2.123-57.564-13.842-77.493-32.6-28.992-27.286-44.482-67.282-46.318-119.59-1.556-44.332 8.298-90.071 27.749-128.808 26.067-51.913 67.025-88.28 114.121-101.328 11.16-3.092 22.027-5.497 23.447-5.19.293.064 2.236-.207 4.319-.602 12.77-2.421 49.366-2.435 69.89-.026 11.513 1.352 32.584 4.445 33.302 4.889.273.169 2.026.533 3.895.81 1.87.276 7.667 1.511 12.884 2.744 66.932 15.823 112.677 48.853 126.298 91.193 3.892 12.101 4.6 17.774 4.478 35.795-.104 15.035-.353 18.045-2.513 30.346-1.318 7.511-2.69 15.534-3.048 17.83-.358 2.294-1.677 9.122-2.93 15.172a3367.446 3367.446 0 00-3.495 17.07c-6.469 32.32-9.156 43.099-14.656 58.796-8.963 25.586-21.002 43.713-37.051 55.79-9.11 6.855-26.119 14.203-39.388 17.015-1.669.354-6.278 1.397-10.243 2.319-3.965.922-7.892 1.775-8.726 1.897-.835.122-5.445 1.136-10.244 2.254-4.8 1.117-10.946 2.512-13.658 3.1-2.713.588-7.322 1.783-10.244 2.654a615.876 615.876 0 01-10.243 2.944c-2.713.747-11.25 3.418-18.97 5.936-39.833 12.987-53.546 16.392-78.535 19.499-3.999.497-25.144 1.15-25.557.79z" fill-opacity=".5" fill="#000"/><path d="M264.493 446.382c-10.354-1.006-18.172-3.37-29.72-8.984-4.393-2.137-9.016-4.491-10.273-5.234-2.683-1.584-14.92-9.21-17.433-10.863a721.36 721.36 0 00-6.528-4.189 812.867 812.867 0 01-7.174-4.608c-4.909-3.217-21.873-13.363-23.147-13.844-.73-.275-3.211-1.584-5.516-2.91-2.304-1.324-13.102-6.971-23.995-12.547-23.666-12.114-31.125-16.329-44.074-24.9-39.665-26.256-63.393-57.939-71.464-95.42-3.317-15.406-2.615-37.834 1.707-54.55 8.89-34.387 31.713-69.063 65.004-98.762 33.974-30.31 72.936-50.998 115.1-61.117 27.588-6.62 59.5-7.441 85.631-2.2 46.248 9.274 87.713 39.695 129.171 94.767 34.318 45.587 53.105 89.295 55.17 128.335 1.937 36.727-9.909 64.656-37.617 88.674-6.673 5.784-16.687 13.503-24.774 19.097-3.436 2.375-5.556 3.865-14.095 9.904-2.247 1.59-40.401 26.722-43.91 28.923-29.517 18.525-53.682 28.353-74.543 30.317-8.682.818-10.148.827-17.52.111z" fill-opacity=".5" fill="#000"/><path d="M246.923 472.38c-1.25-.172-5.345-.679-9.098-1.132-3.752-.453-7.846-1.114-9.097-1.471-1.251-.358-3.81-1.05-5.686-1.54-10.267-2.666-17.89-5.557-29.568-11.204-39.95-19.317-79.447-59.15-104.886-105.778-3.609-6.614-6.561-12.179-6.561-12.366 0-.187-.894-2.28-1.986-4.65-4.767-10.352-11.971-31.043-14.565-41.833-4.716-19.613-6.395-33.484-6.344-52.397.065-23.714 3.679-43.257 11.757-63.58 12.737-32.045 33.636-58.034 73.708-91.664 11.064-9.285 36.058-26.489 50.772-34.946 7.519-4.322 29.307-14.727 30.388-15.138 1.075-.41 1.542-.479 2.856-1.064 6.127-2.728 21.635-7.753 28.545-9.25 1.46-.315 2.995-.662 3.412-.77 8.449-2.184 15.896-3.484 31.186-3.518 15.783-.033 17.066.695 25.674 2.743 5.004 1.19 9.307 2.658 9.818 2.843 1.317.475 1.045.27 1.896.683 1.806.007 16.545 7.681 21.596 11.243 14.277 10.07 29.235 26.71 44.404 49.393 1.812 2.71 3.493 5.097 3.735 5.306.66.568 20.522 30.302 20.522 30.723 0 .2 1.48 2.493 3.291 5.097 17.993 25.882 30.383 50.697 35.67 71.44 2.64 10.358 3.038 13.662 2.973 24.635-.11 18.569-4.512 31.329-18.961 54.956-.51.834-1.172 2.028-1.47 2.653-.3.626-.739 1.308-.978 1.516-.775.677-3.846 5.232-3.846 5.705 0 .253-.853 1.579-1.895 2.945-1.042 1.366-1.895 2.837-1.895 3.268 0 .43-.532 1.224-1.182 1.763-.649.539-1.675 2.03-2.28 3.314-.605 1.284-1.864 3.42-2.8 4.745-3.106 4.405-7.6 11.787-10.253 16.848-1.442 2.749-4.308 8.016-6.37 11.704-2.061 3.688-5.2 9.658-6.977 13.265-9.737 19.78-20.556 39.294-28.434 51.283-26.854 40.872-59.432 64.99-97.83 72.424-7.552 1.462-24.235 2.494-29.24 1.806z" fill-opacity=".5" fill="#000"/><path d="M246.922 472.38c-1.25-.172-5.345-.679-9.097-1.132-3.753-.453-7.847-1.114-9.098-1.471-1.251-.358-3.81-1.05-5.686-1.535-10.267-2.671-17.89-5.562-29.568-11.209-39.95-19.317-79.447-59.15-104.886-105.778-3.608-6.614-6.561-12.178-6.561-12.366 0-.187-.893-2.28-1.985-4.65-4.768-10.352-11.972-31.042-14.566-41.832-4.715-19.614-6.394-33.484-6.344-52.397.066-23.714 3.68-43.258 11.757-63.58 12.738-32.046 33.636-58.035 73.708-91.664 11.064-9.285 36.059-26.49 50.773-34.947 7.518-4.321 29.23-15.138 30.387-15.138.257 0 1.542-.478 2.856-1.063 6.127-2.728 21.636-7.753 28.545-9.25a145.09 145.09 0 003.412-.77c8.45-2.185 15.794-2.87 31.084-2.908 15.782-.03 17.168.084 25.777 2.133 5.003 1.19 9.422 2.47 9.818 2.842.396.373 1.249.68 1.895.683 1.806.008 16.545 7.682 21.596 11.244 14.277 10.07 29.235 26.71 44.404 49.392 1.812 2.71 3.493 5.098 3.735 5.307.66.567 20.522 30.301 20.522 30.722 0 .2 1.481 2.494 3.291 5.097 17.993 25.882 30.383 50.698 35.67 71.44 2.64 10.358 3.038 13.662 2.973 24.635-.11 18.569-4.512 31.329-18.961 54.957-.51.833-1.171 2.027-1.47 2.652-.3.626-.739 1.308-.978 1.517-.775.676-3.846 5.23-3.846 5.705 0 .253-.852 1.578-1.895 2.945-1.042 1.366-1.895 2.836-1.895 3.267 0 .43-.532 1.224-1.182 1.763-.649.54-1.675 2.03-2.28 3.315-.605 1.284-1.864 3.418-2.8 4.744-3.106 4.405-7.599 11.787-10.253 16.848-1.442 2.75-4.308 8.016-6.37 11.704-2.06 3.688-5.2 9.658-6.977 13.266-9.736 19.778-20.556 39.293-28.433 51.282-26.855 40.872-59.433 64.99-97.83 72.424-7.553 1.462-24.236 2.494-29.242 1.806z" fill-opacity=".5" fill="#000"/><path d="M271.141 479.439a852.717 852.717 0 00-8.468-1.055c-3.493-.421-7.304-1.037-8.468-1.368a259.907 259.907 0 00-5.293-1.43c-9.556-2.486-16.65-5.175-27.522-10.433-37.185-17.98-73.95-55.058-97.63-98.459-3.358-6.157-6.106-11.336-6.106-11.51 0-.175-.832-2.123-1.848-4.33-4.438-9.635-11.144-28.894-13.558-38.937-4.39-18.257-5.952-31.168-5.905-48.772.061-22.073 3.424-40.265 10.943-59.18 11.857-29.83 31.309-54.02 68.608-85.323 10.3-8.643 33.564-24.657 47.26-32.529 6.999-4.023 27.209-14.09 28.285-14.09.24 0 1.436-.446 2.659-.99 5.703-2.54 20.139-7.218 26.57-8.61 1.359-.295 2.788-.617 3.176-.717 7.864-2.034 14.701-2.672 28.933-2.707 14.69-.028 15.98.079 23.994 1.985 4.657 1.108 8.77 2.299 9.138 2.646.37.347 1.163.633 1.765.636 1.68.007 15.4 7.15 20.101 10.466 13.29 9.373 27.213 24.861 41.332 45.975 1.687 2.522 3.251 4.745 3.477 4.94.615.527 19.102 28.204 19.102 28.596 0 .186 1.379 2.32 3.063 4.744 16.748 24.092 28.281 47.19 33.202 66.497 2.458 9.642 2.83 12.717 2.77 22.931-.104 17.284-4.202 29.161-17.652 51.155-.474.776-1.09 1.887-1.368 2.469-.278.582-.687 1.217-.91 1.411-.722.63-3.58 4.87-3.58 5.31 0 .236-.794 1.47-1.764 2.741-.97 1.272-1.764 2.64-1.764 3.042 0 .4-.495 1.14-1.1 1.641-.604.502-1.56 1.89-2.122 3.085-.563 1.195-1.736 3.182-2.606 4.416-2.892 4.101-7.074 10.972-9.544 15.682-1.342 2.56-4.01 7.462-5.93 10.895-1.918 3.433-4.84 8.99-6.493 12.347-9.064 18.41-19.135 36.575-26.467 47.735-24.996 38.045-55.32 60.492-91.062 67.415-7.03 1.358-22.559 2.318-27.218 1.68z" fill-opacity=".5" fill="#000"/><path d="M163.075 163.81a59.41 59.41 0 00-20.47 3.657 47.365 47.365 0 00-16.654 10.778 49.198 49.198 0 00-10.84 16.276 51.932 51.932 0 00-3.731 20.043 50.854 50.854 0 006.565 25.903c4.486 7.9 11.295 14.467 19.355 18.662a45.18 45.18 0 0011.798 4.48c4.463 1.192 9.01 1.58 13.577 1.587a58.375 58.375 0 0011.35-1.162 63.02 63.02 0 0011.336-3.452v-.084l.824-25.286a46.94 46.94 0 0010.538 15.282c4.828 4.657 10.533 8.393 14.692 10.088 4.159 1.695 6.328 2.395 8.539 2.955l.048 92.595h33.418l.036-47.775 28.343 47.799 99.163-.024v-26.134l-31.116-.036v-9.918l27.507-.049v-24.68l-27.507-.049v-9.07h42.817v69.887h.096v.097l34.545-.048.048-69.936 19.174-.049v-26.122l-15.892-.048c6.1-3.025 11.356-7.712 15.032-13.442a30.162 30.162 0 004.336-11.154c1.003-5.58 1.344-16.93 1.344-16.93l-.048-52.292-34.665.049.084 54.629c.169 2.125-.612 6.464-2.398 10.33a8.064 8.064 0 01-3.197 2.76c-1.286.615-2.727.874-5.184.812-2.458-.062-4.892-1.196-6.323-3.463-.002-.002-.011.002-.012 0v-.012a25.682 25.682 0 01-2.156-12.547l-.049-52.558h-34.713l-.049 18.202a26.38 26.38 0 00-7.364-9.87v-.012a44.252 44.252 0 00-13.772-6.733 44.268 44.268 0 00-15.237-1.635h-.012l-43.604.048-.049 31.281c-.31-.914-.63-1.821-.992-2.713a48.48 48.48 0 00-10.853-16.215 49.736 49.736 0 00-16.74-10.851 53.805 53.805 0 00-20.3-3.718 60 60 0 00-20.311 3.718l.072.17-.012.011c-.022-.06-.038-.122-.06-.181a48.953 48.953 0 00-16.68 10.85c-4.643 5.22-8.589 10.752-10.912 16.228l-.049-25.976-.012-.073a54.891 54.891 0 00-11.107-3.67 54.843 54.843 0 00-11.567-1.21zm159.918 27.09a9.91 9.91 0 01.509 0 11.02 11.02 0 016.637 2.507c1.854 1.853 2.856 4.517 2.69 7.133v.012c.158 2.556-.847 5.16-2.69 6.94l-.073-.085.061.084c-2.134 1.718-4.921 2.611-7.655 2.434H317.07v-.097h-.085V191.01h.085v-.097H322.472c.17-.01.35-.009.52-.012zm-158.295 4.408c.315-.002.63-.001.945.013a25.078 25.078 0 0110.428 2.252 31.128 31.128 0 017.51 4.82l-.06.073.096.011a55.717 55.717 0 00-1.284 12.087 59.8 59.8 0 001.224 11.807l-.085.024.049.073a46.037 46.037 0 01-8.334 4.662 26.492 26.492 0 01-10.198 2.156h-.012a17.748 17.748 0 01-7.17-1.163 17.767 17.767 0 01-6.117-3.935 18.81 18.81 0 01-3.864-6.322 18.728 18.728 0 01-1.103-7.302c-.12-2.55.275-5.128 1.163-7.521.89-2.395 2.277-4.6 4.034-6.455v-.012a18.473 18.473 0 016.31-4.056 18.53 18.53 0 016.468-1.212zm68.167.775c.278.001.56.02.836.037h.013c2.21-.083 4.435.328 6.468 1.199a15.053 15.053 0 015.34 3.863c3.073 3.705 4.703 8.575 4.47 13.382.234 4.766-1.4 9.594-4.47 13.248v.012a15.138 15.138 0 01-11.808 5.002h-.013a15.234 15.234 0 01-11.845-5.002v-.012c-3.09-3.644-4.727-8.477-4.494-13.248-.221-4.801 1.413-9.657 4.494-13.346a14.413 14.413 0 0111.01-5.135zm129.783 15.162l.073.037h.109v7.17c-.165 6.235.057 11.472 1.308 17.026.86 3.815 1.345 6.785 4.203 10.947 3.856 5.616 9.033 10.634 15.286 13.564l-.036.085v.084h-12.888v-.084l-.072.048-24.116-36.754.085-.049-.012-.097a19.499 19.499 0 007.57-2.446 19.525 19.525 0 005.96-5.28 24.514 24.514 0 002.53-4.25zm-45.917 19.473l15.54 29.307-.073.049v.084h-15.552v-.084h-.085v-29.32h.097l.073-.036zm-34.133.279l.097.037h.085v77.505h-.085l-.084.048-28.197-47.46.072-.048-.024-.085a49.742 49.742 0 0015.976-10.5 48.736 48.736 0 0010.962-16.251c.438-1.065.837-2.15 1.198-3.246z" fill="#FFF"/><path d="M201.111 323.781c-4.37 0-8.712 1.799-11.802 4.889-3.09 3.09-4.89 7.43-4.89 11.8 0 4.37 1.8 8.71 4.89 11.8s7.431 4.883 11.802 4.883c4.37 0 8.711-1.793 11.802-4.883 3.09-3.09 4.884-7.43 4.884-11.8 0-4.37-1.793-8.71-4.884-11.8-3.09-3.09-7.432-4.889-11.802-4.889z" fill="#FFF"/></g></svg>