<?xml version="1.0" encoding="UTF-8"?>
<svg width="500px" height="500px" viewBox="0 0 500 500" version="1.1" xmlns="http://www.w3.org/2000/svg" xmlns:xlink="http://www.w3.org/1999/xlink">
    <!-- Generator: Sketch 63.1 (92452) - https://sketch.com -->
    <title>ibm</title>
    <desc>Created with Sketch.</desc>
    <g id="ibm" stroke="none" stroke-width="1" fill="none" fill-rule="evenodd">
        <path d="M346.009188,315.499964 L346.009188,330 L277.769278,330 L277.769278,315.499964 L346.009188,315.499964 Z M394.779054,315.499964 L389.510906,329.9805 L388.010364,330 L382.671715,315.499964 L394.779054,315.499964 Z M499.9995,315.499964 L499.9995,330 L431.011568,330 L431.011568,315.499964 L499.9995,315.499964 Z M111.003108,315.499964 L251.568779,315.500759 C242.723074,324.296159 230.772303,329.772316 217.587068,329.993533 L216.815571,330 L111.003108,330 L111.003108,315.499964 Z M97.0027161,315.499964 L97.0027161,330 L0,330 L0,315.499964 L97.0027161,315.499964 Z M180.00504,288.995897 L180.00504,289.000398 L221.006188,289.000398 L221.006188,288.995897 L265.881867,288.996159 C264.808438,294.15598 262.995109,299.031239 260.562465,303.497153 L111.003108,303.495934 L111.003108,289.000398 L138.972391,289.000398 L138.971891,288.995897 L180.00504,288.995897 Z M472.029717,288.995897 L472.030217,289.000398 L500,289.000398 L500,303.495934 L431.011568,303.495934 L431.011568,288.995897 L472.029717,288.995897 Z M404.422824,288.995897 L399.146676,303.495934 L378.252091,303.495934 L372.913442,288.995897 L404.422824,288.995897 Z M346.009188,288.995897 L346.009188,303.495934 L277.769278,303.495934 L277.769278,289.000398 L304.977539,289.000398 L304.977039,288.995897 L346.009188,288.995897 Z M69.0019321,288.995897 L69.0019321,289.000398 L97.0027161,289.000398 L97.0027161,303.495934 L0,303.495934 L0,289.000398 L28.000784,289.000398 L28.000784,288.995897 L69.0019321,288.995897 Z M346.009688,262.491331 L346.009688,276.991367 L304.981039,276.991367 L304.98504,262.491331 L346.009688,262.491331 Z M414.067094,262.491331 L408.790946,276.991367 L368.494318,276.991367 L363.155668,262.491331 L414.067094,262.491331 Z M472.026217,262.491331 L472.028717,276.991367 L431.012068,276.991367 L431.012068,262.491331 L472.026217,262.491331 Z M180.00454,262.491331 L180.00454,276.991367 L138.971891,276.991367 L138.971891,262.491331 L180.00454,262.491331 Z M264.734482,262.491316 C266.119423,267.083927 266.905525,271.950028 266.998212,276.991753 L221.005688,276.991367 L221.005688,262.491316 L264.734482,262.491316 Z M69.0019321,262.491331 L69.0019321,276.991367 L28.000784,276.991367 L28.000784,262.491331 L69.0019321,262.491331 Z M472.022717,235.997265 L472.024717,250.497301 L431.012068,250.497301 L431.012068,235.997265 L472.022717,235.997265 Z M423.706864,235.997265 L418.431216,250.497301 L358.740045,250.497301 L353.401395,235.997265 L423.706864,235.997265 Z M346.009688,235.997265 L346.009688,250.497301 L304.98804,250.497301 L304.99154,235.997265 L346.009688,235.997265 Z M246.643906,235.997265 L246.643952,236.193447 C251.717104,240.083492 256.057423,244.938829 259.411375,250.497098 L138.971891,250.497301 L138.971891,235.997265 L246.643906,235.997265 Z M69.0019321,235.997265 L69.0019321,250.497301 L28.000784,250.497301 L28.000784,235.997265 L69.0019321,235.997265 Z M259.411632,209.502976 C256.057645,215.061423 251.717233,219.916908 246.643952,223.807053 L246.643906,224.002735 L138.971891,224.002735 L138.971891,209.502699 L259.411632,209.502976 Z M384.63577,209.502699 L389.010892,221.445229 L393.190009,209.502699 L472.018717,209.502699 L472.020717,224.002735 L431.012068,224.002735 L431.012068,215.920215 L428.070986,224.002735 L348.985272,224.002735 L346.009688,215.920215 L346.009688,224.002735 L304.99504,224.002735 L304.99854,209.502699 L384.63577,209.502699 Z M69.0019321,209.502699 L69.0019321,224.002735 L28.000784,224.002735 L28.000784,209.502699 L69.0019321,209.502699 Z M472.014716,182.998632 L472.017216,197.498669 L397.390627,197.498669 L402.465269,182.998632 L472.014716,182.998632 Z M374.925998,182.998632 L380.238147,197.498669 L305.00154,197.498669 L305.00554,182.998632 L374.925998,182.998632 Z M266.998393,182.998858 C266.90662,188.040393 266.121486,192.906398 264.737542,197.499031 L221.005688,197.498669 L221.005688,182.998632 L266.998393,182.998858 Z M180.00454,182.998632 L180.00454,197.498669 L138.971891,197.498669 L138.971891,182.998632 L180.00454,182.998632 Z M69.0019321,182.998632 L69.0019321,197.498669 L28.000784,197.498669 L28.000784,182.998632 L69.0019321,182.998632 Z M499.513986,156.499066 L499.513986,170.999102 L406.664387,170.999102 L411.738529,156.499066 L499.513986,156.499066 Z M365.217726,156.499066 L370.529875,170.999102 L277.007756,170.999102 L277.007756,156.499066 L365.217726,156.499066 Z M260.55982,156.498492 C262.99294,160.964159 264.806775,165.839225 265.880736,170.998904 L111.003108,170.999102 L111.003108,156.499066 L260.55982,156.498492 Z M97.0027161,156.499066 L97.0027161,170.999102 L0,170.999102 L0,156.499066 L97.0027161,156.499066 Z M216.756069,130 C230.269285,130 242.536702,135.519519 251.567787,144.498755 L111.003108,144.500036 L111.003108,130 L216.756069,130 Z M97.0027161,130 L97.0027161,144.500036 L0,144.500036 L0,130 L97.0027161,130 Z M355.509954,130 L360.822103,144.499536 L277.007756,144.499536 L277.007756,130 L355.509954,130 Z M499.513986,130 L499.513986,144.499536 L415.937646,144.499536 L421.011788,130 L499.513986,130 Z" id="Shape" fill="#000000"></path>
    </g>
</svg>