<?xml version="1.0" encoding="UTF-8"?>
<svg width="500px" height="500px" viewBox="0 0 500 500" version="1.1" xmlns="http://www.w3.org/2000/svg" xmlns:xlink="http://www.w3.org/1999/xlink">
    <!-- Generator: Sketch 63.1 (92452) - https://sketch.com -->
    <title>kschool</title>
    <desc>Created with Sketch.</desc>
    <g id="kschool" stroke="none" stroke-width="1" fill="none" fill-rule="evenodd">
        <path d="M106.049585,246.820635 L94.2112519,266.130467 L72.1354953,302.145259 L97.5925075,339.673433 L111.023874,359.474304 L2.44405963e-12,359.474304 L2.43026354e-12,246.820635 L106.049585,246.820635 Z M83.3987615,259.502751 L12.6821156,259.502751 L12.6821156,346.792188 L87.096873,346.792188 L57.0463249,302.490125 L83.3987615,259.502751 Z M152.355369,275.840614 L152.355369,300.505486 L170.509814,275.840614 L183.977067,275.840614 L164.483424,300.654286 L191.697149,340.531745 L177.671459,340.531745 L152.355369,301.807046 L152.355369,330.30395 L140.71135,330.30395 L140.71135,275.840614 L152.355369,275.840614 Z M216.584608,274.539141 C219.882711,274.539141 222.728287,275.115959 225.122213,276.268719 C227.515263,277.422355 229.62997,279.226333 231.465459,281.681529 L224.583032,288.266356 C223.764634,286.67945 222.679271,285.494304 221.327819,284.714418 C219.975492,283.932782 218.345697,283.541526 216.435808,283.541526 C214.128537,283.541526 212.269415,284.118344 210.854942,285.27198 C210.771789,285.339377 210.691262,285.419904 210.622114,285.501307 C206.709556,290.083464 208.881157,294.133443 217.143045,297.641616 C218.259043,298.112523 219.114204,298.485398 219.709403,298.757614 C224.323071,300.866194 227.738463,303.24699 229.958205,305.900002 C232.177947,308.55389 233.287818,311.578901 233.287818,314.976787 C233.287818,320.085871 231.54511,324.159483 228.06057,327.198499 C224.576905,330.23664 219.89584,331.756148 214.017375,331.756148 C209.850981,331.756148 206.279787,331.035782 203.303792,329.597676 C200.326922,328.160446 198.10718,326.088628 196.644566,323.384849 L203.117355,316.056023 C203.935754,318.06482 205.250443,319.645599 207.061424,320.799234 C208.870654,321.951995 210.904834,322.528813 213.162214,322.528813 C215.889626,322.528813 218.047222,321.884597 219.635003,320.594416 C221.221909,319.305985 222.016674,317.569404 222.016674,315.386424 C222.016674,312.807812 219.375041,310.239703 214.091774,307.685599 C212.380577,306.867201 211.02825,306.196727 210.037419,305.676803 C205.274951,303.197099 201.975973,300.772538 200.14136,298.403996 C198.305871,296.035454 197.388564,293.214386 197.388564,289.940791 C197.388564,285.45229 199.168034,281.762056 202.726974,278.872715 C206.285914,275.984249 210.904834,274.539141 216.584608,274.539141 Z M372.695508,274.613191 C376.489901,274.613191 380.17926,275.345811 383.762708,276.808425 C387.347032,278.272789 390.515591,280.329727 393.268387,282.982739 C396.021182,285.66201 398.116633,288.725535 399.555614,292.173312 C400.99372,295.620215 401.71321,299.291193 401.71321,303.184494 C401.71321,307.077796 400.987593,310.761903 399.537233,314.233314 C398.085998,317.7056 395.995799,320.75687 393.268387,323.384499 C390.440316,326.089153 387.253375,328.160096 383.707565,329.598201 C380.160004,331.036307 376.489901,331.755798 372.695508,331.755798 C369.372021,331.755798 366.116808,331.190359 362.930742,330.062982 C359.743802,328.93473 356.82295,327.316313 354.169063,325.208609 C350.746668,322.479446 348.124292,319.218106 346.301057,315.423712 C344.477822,311.628443 343.566643,307.549579 343.566643,303.184494 C343.566643,299.265809 344.286133,295.58958 345.725114,292.154056 C347.16322,288.718532 349.270925,285.66201 352.049104,282.982739 C354.777391,280.329727 357.945075,278.272789 361.553907,276.808425 C365.162739,275.345811 368.87573,274.613191 372.695508,274.613191 Z M435.78958,274.613191 C439.583973,274.613191 443.273332,275.345811 446.85678,276.808425 C450.441104,278.272789 453.609663,280.329727 456.362459,282.982739 C459.115254,285.66201 461.210705,288.725535 462.649686,292.173312 C464.087792,295.620215 464.807282,299.291193 464.807282,303.184494 C464.807282,307.077796 464.081665,310.761903 462.631305,314.233314 C461.18007,317.7056 459.089871,320.75687 456.362459,323.384499 C453.534388,326.089153 450.347447,328.160096 446.801637,329.598201 C443.254076,331.036307 439.583973,331.755798 435.78958,331.755798 C432.466093,331.755798 429.21088,331.190359 426.024815,330.062982 C422.837874,328.93473 419.917022,327.316313 417.263135,325.208609 C413.84074,322.479446 411.218364,319.218106 409.395129,315.423712 C407.571894,311.628443 406.660715,307.549579 406.660715,303.184494 C406.660715,299.265809 407.380205,295.58958 408.819186,292.154056 C410.257292,288.718532 412.364997,285.66201 415.143176,282.982739 C417.870588,280.329727 421.039147,278.272789 424.647979,276.808425 C428.256811,275.345811 431.969802,274.613191 435.78958,274.613191 Z M268.183111,274.538703 C271.134598,274.538703 273.986302,274.849432 276.739097,275.468264 C279.059418,275.991848 281.352975,276.762829 283.620423,277.762794 L284.299875,278.069634 L284.299875,289.868579 C281.998731,287.839651 279.640692,286.338524 277.223134,285.382704 C274.742555,284.402377 272.089542,283.912213 269.262347,283.912213 C263.458281,283.912213 258.83236,285.649669 255.386332,289.12283 C251.938554,292.593365 250.214228,297.258675 250.214228,303.110007 C250.214228,308.839673 251.814263,313.384192 255.013458,316.744441 C258.213528,320.10469 262.577737,321.786127 268.108711,321.786127 C271.258014,321.786127 274.184993,321.258325 276.888772,320.203598 C279.37472,319.235524 281.691398,317.815301 283.841653,315.952893 L284.299875,315.547041 L284.299875,327.418635 C281.828049,328.873372 279.239808,329.960485 276.535154,330.676474 C273.819121,331.394214 270.960415,331.754835 267.959912,331.754835 C259.278759,331.754835 252.154752,329.058058 246.58789,323.66363 C241.019278,318.269201 238.235848,311.418285 238.235848,303.110007 C238.235848,294.825362 241.026281,287.994578 246.606271,282.610652 C252.186262,277.230228 259.378542,274.538703 268.183111,274.538703 Z M303.351671,275.840614 L303.351671,297.678291 L326.974945,297.678291 L326.974945,275.840614 L338.618963,275.840614 L338.618963,330.30395 L326.974945,330.30395 L326.974945,307.537587 L303.351671,307.537587 L303.351671,330.30395 L291.707652,330.30395 L291.707652,275.840614 L303.351671,275.840614 Z M481.399155,275.840614 L481.399155,320.407891 L500,320.407891 L500,330.30395 L469.755137,330.30395 L469.755137,275.840614 L481.399155,275.840614 Z M372.695508,284.880374 C367.759732,284.880374 363.667739,286.635336 360.418652,290.144384 C357.170441,293.655183 355.545898,298.001011 355.545898,303.184494 C355.545898,308.443253 357.145058,312.789081 360.345128,316.223729 C363.544323,319.658378 367.660824,321.375702 372.695508,321.375702 C377.631283,321.375702 381.70402,319.646124 384.916344,316.186092 C388.127793,312.726935 389.733955,308.39161 389.733955,303.184494 C389.733955,298.025519 388.109412,293.684943 384.860325,290.163641 C381.611239,286.642338 377.556883,284.880374 372.695508,284.880374 Z M435.78958,284.880374 C430.853804,284.880374 426.761811,286.635336 423.512725,290.144384 C420.264513,293.655183 418.63997,298.001011 418.63997,303.184494 C418.63997,308.443253 420.23913,312.789081 423.4392,316.223729 C426.638395,319.658378 430.754896,321.375702 435.78958,321.375702 C440.725355,321.375702 444.798092,319.646124 448.010416,316.186092 C451.221865,312.726935 452.828027,308.39161 452.828027,303.184494 C452.828027,298.025519 451.203484,293.684943 447.954397,290.163641 C444.705311,286.642338 440.650955,284.880374 435.78958,284.880374 Z" id="Combined-Shape" fill="#000000" fill-rule="nonzero"></path>
    </g>
</svg>