<?xml version="1.0" encoding="UTF-8"?>
<svg width="500px" height="500px" viewBox="0 0 500 500" version="1.1" xmlns="http://www.w3.org/2000/svg" xmlns:xlink="http://www.w3.org/1999/xlink">
    <!-- Generator: Sketch 63.1 (92452) - https://sketch.com -->
    <title>magnolia</title>
    <desc>Created with Sketch.</desc>
    <g id="magnolia" stroke="none" stroke-width="1" fill="none" fill-rule="evenodd">
        <path d="M203.377337,272.041552 L204.493767,272.037224 C213.674283,272.037224 219.377599,272.624777 228.874684,274.526726 L257.897102,274.533646 C258.240723,274.53665 258.560359,274.540583 258.857685,274.545349 L268.129302,274.544454 L268.129302,279.845094 C271.887615,275.871513 277.185722,273.880924 282.491427,273.880924 C288.235264,273.880924 292.879972,275.765146 296.076058,278.963764 C300.720765,283.600874 301.936392,289.015479 301.936392,295.311413 L301.936392,332.111985 L287.571735,332.111985 L287.571735,297.304535 C287.571735,289.453611 282.600327,286.809623 278.069585,286.809623 C273.533777,286.809623 268.453469,289.453611 268.453469,297.304535 L268.453469,332.111985 L254.096409,332.111985 L254.098073,281.822889 L252.333663,281.65505 C247.254053,281.226185 242.497303,281.263325 242.497303,281.263325 C247.248378,285.067224 248.514656,287.554194 248.514656,291.953244 C248.514656,306.738306 224.126142,318.45391 192.775631,318.45391 C183.90662,318.45391 175.982252,317.866357 167.741315,316.258184 L166.465532,316.765054 C161.405294,318.822857 159.505442,320.240863 159.505442,322.412295 C159.505442,324.017936 161.08829,325.636239 163.309342,326.798682 L164.165347,327.156364 C168.801133,329.017657 174.753932,330.17392 191.153785,332.375389 L201.421893,333.75748 C221.086694,336.475021 227.3901,337.903687 233.949926,340.27188 C242.497303,343.346403 246.929276,347.879678 246.929276,353.015702 C246.929276,367.800764 214.940561,378.926282 171.545214,378.926282 L169.057328,378.914879 C132.430239,378.577226 108.19839,370.769643 108.19839,359.306571 C108.19839,354.642869 112.051106,350.51637 119.456855,347.201592 L120.235629,346.861591 C125.622094,344.508002 130.441556,342.945055 142.434275,339.941132 L153.490622,337.19989 C145.448307,335.292887 140.166399,333.543118 137.189469,331.73617 L137.191091,332.111985 L123.163264,332.111985 L123.163264,327.135512 C119.293518,331.005258 115.646638,332.653952 109.018938,332.653952 C102.500139,332.653952 97.7515968,331.005258 94.3250485,327.581242 C91.2302651,324.372493 89.5739734,319.730318 89.5739734,314.647478 C89.5739734,305.482158 95.8724402,297.970597 109.239271,297.970597 L122.828966,297.970597 L122.828966,295.091081 C122.828966,288.800212 119.736715,286.032128 112.113722,286.032128 C106.590217,286.032128 104.047531,287.366785 101.06418,290.783203 L91.8937947,281.83315 C97.5287318,275.651181 103.052237,273.880924 112.665819,273.880924 C128.795668,273.880924 137.191091,280.734021 137.191091,294.212284 L137.187514,323.468116 C139.089003,321.982615 141.889088,320.416903 145.587767,318.846551 L153.174052,315.675696 L157.92766,313.621793 C149.063714,309.374697 145.25475,304.980712 145.25475,299.269798 C145.25475,283.925238 170.34508,272.29804 203.377337,272.041552 L203.377337,272.041552 Z M169.022788,340.753066 L167.761575,340.753066 C163.03076,341.049375 153.895831,343.093147 146.645123,345.567455 C136.246448,349.206738 131.201597,353.294283 131.201597,358.394851 C131.201597,367.129636 148.856044,372.951983 175.318722,372.951983 C202.11823,372.951983 222.913047,365.969726 222.913047,356.781613 C222.913047,352.835727 218.786114,349.432984 211.085413,347.108186 L209.199525,346.550671 C204.725788,345.264372 199.472878,344.301761 190.460875,343.093147 L187.143372,342.606884 C178.286807,341.338558 172.401037,340.753066 169.022788,340.753066 Z M335.771341,273.880924 C344.278196,273.880924 350.133466,277.19604 353.671446,280.954353 C358.865719,286.368958 360.190246,292.885225 360.190246,303.271237 C360.190246,313.763616 358.865719,320.282415 353.671446,325.699553 C350.133466,329.452801 344.278196,332.760319 335.771341,332.760319 C327.267018,332.760319 321.515583,329.452801 317.982667,325.699553 C312.955952,320.457162 311.558092,314.183038 311.473138,304.27432 L311.468933,303.271237 C311.468933,293.231425 312.701897,286.807675 317.476061,281.499588 L317.982667,280.954353 C321.515583,277.19604 327.267018,273.880924 335.771341,273.880924 Z M452.560161,273.880924 C468.69001,273.880924 477.082901,280.734021 477.082901,294.212284 L477.082901,332.111985 L463.050008,332.111985 L463.050008,327.135512 C459.182795,331.005258 455.546044,332.653952 448.908215,332.653952 C442.394481,332.653952 437.640873,331.005258 434.21939,327.581242 C431.117009,324.372493 429.460718,319.730318 429.460718,314.647478 C429.460718,305.482158 435.761717,297.970597 449.13108,297.970597 L462.71571,297.970597 L462.71571,295.091081 C462.71571,288.800212 459.628525,286.032128 452.005531,286.032128 C446.479494,286.032128 443.936808,287.366785 440.955989,290.783203 L431.780539,281.83315 C437.418008,275.651181 442.949111,273.880924 452.560161,273.880924 Z M60.8801139,273.880924 C66.6214183,273.880924 71.8131581,275.765146 75.0193741,278.963764 C79.6590167,283.600874 81.3178408,289.015479 81.3178408,295.311413 L81.3178408,332.111985 L66.9531832,332.111985 L66.9531832,297.304535 C66.9531832,289.453611 61.9792432,286.809623 57.451033,286.809623 C53.0317228,286.809623 47.839983,289.453611 47.839983,296.975303 L47.839983,332.111985 L33.4803904,332.111985 L33.4803904,297.304535 C33.4803904,289.453611 28.5039179,286.809623 23.9782403,286.809623 C19.4474976,286.809623 14.3621251,289.453611 14.3621251,297.304535 L14.3621251,332.111985 L0,332.111985 L0,274.544454 L14.0328928,274.544454 L14.0328928,279.845094 C17.7861408,275.985478 23.0918457,273.880924 28.395018,273.880924 C34.7998521,273.880924 39.9941245,276.198213 43.6410051,281.16962 C48.5009801,276.089313 53.6952525,273.880924 60.8801139,273.880924 Z M385.49048,253.440665 L385.49048,314.766508 C385.49048,318.190524 386.926439,319.958248 390.580918,319.958248 L396.106955,319.958248 L396.106955,332.111985 L387.919201,332.111985 C376.09723,332.111985 371.125822,323.822929 371.125822,315.650371 L371.125822,253.440665 L385.49048,253.440665 Z M419.740768,274.544454 L419.740768,332.109452 L405.37611,332.109452 L405.37611,274.544454 L419.740768,274.544454 Z M462.71571,307.804512 L451.342001,307.804512 C446.145197,307.804512 443.275811,310.230701 443.275811,314.318246 C443.275811,318.296892 445.932462,320.943413 451.559801,320.943413 C455.546044,320.943413 458.083666,320.616713 460.621287,318.190524 C462.166146,316.744435 462.71571,314.424613 462.71571,310.889165 L462.71571,307.804512 Z M122.828966,307.804512 L111.450192,307.804512 C106.253387,307.804512 103.384001,310.230701 103.384001,314.318246 C103.384001,318.296892 106.035587,320.943413 111.667992,320.943413 C115.646638,320.943413 118.189324,320.616713 120.73201,318.190524 C122.271804,316.744435 122.828966,314.424613 122.828966,310.889165 L122.828966,307.804512 Z M335.771341,286.809623 C332.89689,286.809623 330.799933,287.690952 329.141109,289.344711 C326.289891,292.203196 325.867017,296.875987 325.835635,302.498697 L325.833591,303.271237 C325.833591,309.237939 326.160291,314.318246 329.141109,317.293999 C330.799933,318.960421 332.89689,319.844283 335.771341,319.844283 C338.643259,319.844283 340.85418,318.960421 342.513005,317.293999 C345.369067,314.447627 345.796787,309.675726 345.828581,304.044375 L345.830653,303.271237 C345.830653,297.304535 345.498888,292.333127 342.513005,289.344711 C340.85418,287.690952 338.643259,286.809623 335.771341,286.809623 Z M200.223878,278.112825 L198.962665,278.112825 C181.624787,278.112825 169.967431,286.855209 169.967431,299.089987 C169.967431,308.128679 178.157717,313.229247 192.656601,313.229247 C209.994479,313.229247 222.913047,304.623622 222.913047,292.680088 C222.913047,283.798414 214.089622,278.112825 200.223878,278.112825 Z M488.990979,260.729361 C495.058983,260.729361 500,265.670378 500,271.743447 C500,277.819049 495.058983,282.760066 488.990979,282.760066 C482.920442,282.760066 477.979426,277.819049 477.979426,271.743447 C477.979426,265.670378 482.920442,260.729361 488.990979,260.729361 Z M488.990979,263.439196 C484.28549,263.439196 480.871604,266.931591 480.871604,271.743447 C480.871604,276.555303 484.28549,280.047698 488.990979,280.047698 C493.693936,280.047698 497.107821,276.555303 497.107821,271.743447 C497.107821,266.931591 493.693936,263.439196 488.990979,263.439196 Z M489.874841,266.151563 C492.364344,266.151563 493.579971,267.924353 493.579971,269.757923 C493.579971,271.272392 492.779683,272.217035 491.888223,272.662765 L493.990245,277.342928 L490.657401,277.342928 L488.970719,273.166743 L487.742429,273.166743 L487.742429,277.342928 L484.87051,277.342928 L484.87051,266.151563 L489.874841,266.151563 Z M489.459502,268.636001 L487.742429,268.636001 L487.742429,270.887443 L489.459502,270.887443 C490.201541,270.887443 490.647271,270.353074 490.647271,269.757923 C490.647271,269.167838 490.201541,268.636001 489.459502,268.636001 Z M419.849667,253 L419.849667,264.710539 L405.153245,264.710539 L405.153245,253 L419.849667,253 Z" id="Shape" fill="#000000"></path>
    </g>
</svg>