<?xml version="1.0" encoding="UTF-8"?>
<svg width="500px" height="500px" viewBox="0 0 500 500" version="1.1" xmlns="http://www.w3.org/2000/svg" xmlns:xlink="http://www.w3.org/1999/xlink">
    <!-- Generator: Sketch 63.1 (92452) - https://sketch.com -->
    <title>morfeo</title>
    <desc>Created with Sketch.</desc>
    <g id="morfeo" stroke="none" stroke-width="1" fill="none" fill-rule="evenodd">
        <path d="M335.233897,296.51518 C338.167836,296.51518 341.200895,296.974628 344.333073,297.893525 C347.464084,298.814754 350.515801,300.554594 353.490553,303.113044 C356.462974,305.672661 358.683252,308.85265 360.150222,312.651844 C361.617191,316.449872 362.350676,320.229242 362.350676,323.986457 L362.350676,327.945408 L320.486074,327.945408 C321.436455,331.384274 323.420012,334.223758 326.433247,336.46386 C329.444149,338.702795 332.776898,339.821097 336.422166,339.821097 C341.100609,339.821097 345.105039,338.103414 348.436622,334.665714 L356.522446,344.381763 C353.905689,346.621865 350.832983,348.361705 347.305493,349.59895 C343.776837,350.837361 340.151393,351.458899 336.422166,351.458899 C332.459716,351.458899 328.651193,350.759232 325.004759,349.359897 C321.359492,347.959396 318.1865,345.999161 315.491614,343.481524 C312.795562,340.961555 310.672071,338.021786 309.125806,334.665714 C307.581873,331.306144 306.809907,327.744837 306.809907,323.986457 C306.809907,320.229242 307.522402,316.670267 308.950889,313.309531 C310.377045,309.951127 312.35827,307.011358 314.895731,304.492555 C317.434357,301.973752 320.46625,300.01585 323.996072,298.616515 C327.522396,297.213681 331.271447,296.51518 335.233897,296.51518 Z M200.489723,296.51483 C215.580384,296.51483 227.816402,308.813818 227.816402,323.987273 C227.816402,339.159562 215.580384,351.458549 200.489723,351.458549 C185.399063,351.458549 173.163045,339.159562 173.163045,323.987273 C173.163045,308.813818 185.399063,296.51483 200.489723,296.51483 Z M394.448153,296.51483 C409.541146,296.51483 421.774832,308.813818 421.774832,323.987273 C421.774832,339.159562 409.541146,351.458549 394.448153,351.458549 C379.357492,351.458549 367.123807,339.159562 367.123807,323.987273 C367.123807,308.813818 379.357492,296.51483 394.448153,296.51483 Z M300.842327,274.894186 L300.842327,286.836447 C293.738158,286.836447 290.535719,291.437363 289.723001,296.327212 L289.680299,296.59914 L305.468295,296.59914 L305.468295,308.807171 L289.50888,308.807171 L289.50888,350.032744 L275.949325,350.032744 L275.949325,308.807171 L266.637917,308.807171 L266.637917,296.59914 L275.999468,296.59914 C276.277002,292.502587 277.791782,286.293039 282.676627,281.620426 C289.036407,275.542885 296.908964,274.936555 299.745197,274.896502 L300.842327,274.894186 Z M259.992242,296.599037 L259.992242,308.807171 C251.745569,308.807171 248.753933,315.007505 248.661038,320.661609 L248.658796,320.93474 L248.658796,350.032744 L235.099241,350.032744 L235.099241,319.738309 C235.099241,315.789852 236.329489,308.583278 241.830041,303.325277 C248.186501,297.247736 256.059939,296.641406 258.895274,296.601353 L259.992242,296.599037 Z M141.619704,296.632141 C144.234128,296.632141 146.95117,297.029786 149.763833,297.822742 C152.578828,298.615698 155.178093,299.962558 157.555796,301.86682 C159.9335,303.769915 161.914725,306.208256 163.499471,309.180677 C165.087716,312.154264 165.879507,315.542986 165.879507,319.349177 L165.879507,350.033094 L152.321118,350.033094 L152.321118,321.251107 C152.321118,317.209361 151.331088,314.017711 149.349863,311.677324 C147.36514,309.340434 144.709902,308.169658 141.380651,308.169658 C139.001782,308.169658 136.840975,308.823847 134.898232,310.132225 C132.955489,311.440603 131.607463,313.144293 130.852988,315.245628 C130.099679,317.348128 129.724191,319.349177 129.724191,321.251107 L129.724191,350.033094 L116.046858,350.033094 L116.046858,321.251107 C116.046858,319.349177 115.67137,317.348128 114.916896,315.245628 C114.164753,313.144293 112.816727,311.440603 110.873984,310.132225 C108.93124,308.823847 106.731952,308.169658 104.272621,308.169658 C101.0215,308.169658 98.4047436,309.340434 96.4235186,311.677324 C94.4422936,314.017711 93.4510981,317.209361 93.4510981,321.251107 L93.4510981,350.033094 L79.8927089,350.033094 L79.8927089,319.349177 C79.8927089,317.128899 80.288021,314.751196 81.0821436,312.213735 C81.8739339,309.676275 83.3793851,307.11899 85.6008292,304.540716 C87.8199412,301.964773 90.6337704,300.002206 94.0434832,298.655346 C97.454362,297.30732 100.944536,296.632141 104.510508,296.632141 C108.237404,296.632141 111.726412,297.287496 114.977533,298.595875 C118.228655,299.904253 120.923541,301.666249 123.063357,303.887693 C125.284801,301.666249 128.000677,299.904253 131.212151,298.595875 C134.422458,297.287496 137.890476,296.632141 141.619704,296.632141 Z M200.489723,310.109369 C192.866847,310.109369 186.687617,316.322416 186.687617,323.987273 C186.687617,331.650964 192.866847,337.864011 200.489723,337.864011 C208.1126,337.864011 214.294162,331.650964 214.294162,323.987273 C214.294162,316.322416 208.1126,310.109369 200.489723,310.109369 Z M394.448153,310.109369 C386.825276,310.109369 380.646047,316.322416 380.646047,323.987273 C380.646047,331.650964 386.825276,337.864011 394.448153,337.864011 C402.07103,337.864011 408.252592,331.650964 408.252592,323.987273 C408.252592,316.322416 402.07103,310.109369 394.448153,310.109369 Z M335.233897,308.151816 C332.299959,308.151816 329.623731,308.931945 327.205213,310.491038 C324.786696,312.05013 322.944239,314.11065 321.675508,316.667935 L347.960848,316.667935 C346.928839,314.191112 345.282288,312.151582 343.023528,310.552841 C340.763602,308.951769 338.167836,308.151816 335.233897,308.151816 Z M216.611461,151.675505 L250.000758,185.064802 L200.870109,234.194284 C159.440187,275.625302 127.70096,248.359029 124.041401,244.937925 L123.688626,244.598339 L216.611461,151.675505 Z M213.155454,148.220313 L127.180317,234.194284 L127.180317,234.194284 C83.1059317,278.269835 50,244.598339 50,244.598339 L147.468341,147.129998 L147.468341,147.129998 C184.385128,110.212045 213.155454,148.220313 213.155454,148.220313 Z M250.000292,185.064802 L283.389589,151.675505 L376.311257,244.598339 L375.958483,244.937925 C372.298927,248.359029 340.559766,275.625302 299.13094,234.194284 L250.000292,185.064802 Z M372.819683,234.194284 L286.844546,148.220313 L287.057738,147.949368 C289.713581,144.641987 316.878846,112.739946 351.426586,146.044825 L352.646274,147.244611 L352.646274,147.244611 L450,244.598339 L449.654199,244.931403 C446.066734,248.288123 414.946943,275.073386 374.138568,235.493338 L372.819683,234.194284 Z" id="Shape" fill="#000000"></path>
    </g>
</svg>