<?xml version="1.0" encoding="UTF-8"?>
<svg width="500px" height="500px" viewBox="0 0 500 500" version="1.1" xmlns="http://www.w3.org/2000/svg" xmlns:xlink="http://www.w3.org/1999/xlink">
    <!-- Generator: Sketch 63.1 (92452) - https://sketch.com -->
    <title>nomasystems</title>
    <desc>Created with Sketch.</desc>
    <g id="nomasystems" stroke="none" stroke-width="1" fill="none" fill-rule="evenodd">
        <path d="M44.6539976,120.003636 C44.9103752,119.937446 47.3122127,120.77143 50.59331,122.787924 C53.6515657,122.269356 56.7943271,122 60,122 C64.3853325,122 68.6529325,122.504072 72.7480203,123.457437 C74.7487006,120.916379 77.9003199,120.475023 82.2024139,122.133935 C104.781733,130.840645 120.785537,152.604724 120.785537,178.0758 C120.785537,205.775268 101.858985,229.090736 76.1315397,235.996757 C75.8707259,236.064093 73.3895624,235.199832 70.0211219,233.106729 C66.7691204,233.693356 63.4203705,234 60,234 C55.8513893,234 51.8081436,233.548879 47.9166419,232.693016 C45.9110485,235.100736 42.7996747,235.492384 38.5831234,233.866458 C16.0038047,225.159748 -3.69482223e-13,203.395669 -3.69482223e-13,177.924593 C-3.69482223e-13,150.225125 18.9265524,126.909657 44.6539976,120.003636 Z M33.6489258,154.72928 C17.8337402,154.72928 22.4853516,187.360628 25.2519531,202.421663 C26.8846509,211.309867 30.0977032,218.351419 34.8911101,223.546319 C42.3344848,227.659345 50.8938977,230 60,230 C61.7974957,230 63.5736899,229.908797 65.3242075,229.730767 C60.6828045,225.908684 55.5875463,220.151157 52.3139648,211.949495 C39.9023437,180.853304 50.2167969,154.72928 33.6489258,154.72928 Z M60,126 C58.4429768,126 56.9019369,126.068433 55.3797238,126.202454 C60.0428685,130.024219 65.1787805,135.801106 68.4715724,144.050898 C80.8831935,175.147089 70.5687404,201.271113 87.1366115,201.271113 C102.951797,201.271113 98.3001857,168.639765 95.5335841,153.57873 C93.9952725,145.204352 91.0540451,138.469289 86.7099019,133.373539 C78.9025541,128.691999 69.7656521,126 60,126 Z" id="Shape" fill="#000000" fill-rule="nonzero"></path>
        <path d="M128.07373,278 L128.07373,253.927734 C128.07373,248.283203 129.228923,244.451009 131.539307,242.431152 C133.849691,240.411296 136.595866,239.401367 139.777832,239.401367 C141.77002,239.401367 143.506266,239.850993 144.986572,240.750244 C146.466878,241.649495 147.497559,242.853109 148.078613,244.361084 C148.659668,245.869059 148.950195,248.144857 148.950195,251.188477 L148.950195,251.188477 L148.950195,278 L156.420898,278 L156.420114,250.452704 C156.408607,247.230725 156.270522,244.958079 156.005859,243.634766 C155.563151,241.504232 154.788411,239.664225 153.681641,238.114746 C152.57487,236.565267 150.907796,235.313232 148.68042,234.358643 C146.453044,233.404053 144.01123,232.926758 141.35498,232.926758 C135.240072,232.926758 130.563965,235.347819 127.32666,240.189941 L127.32666,240.189941 L127.32666,233.922852 L120.603027,233.922852 L120.603027,278 L128.07373,278 Z M182.36416,278.996094 C186.210189,278.996094 189.758773,278.096842 193.009912,276.29834 C196.261051,274.499837 198.737451,271.975016 200.439111,268.723877 C202.140771,265.472738 202.991602,261.011068 202.991602,255.338867 C202.991602,248.338542 201.068587,242.853109 197.222559,238.882568 C193.37653,234.912028 188.42373,232.926758 182.36416,232.926758 C176.913314,232.926758 172.292546,234.559245 168.501855,237.824219 C163.964095,241.753255 161.695215,247.798991 161.695215,255.961426 C161.695215,263.40446 163.597477,269.104329 167.402002,273.061035 C171.206527,277.017741 176.193913,278.996094 182.36416,278.996094 Z M182.36416,272.853516 C178.628809,272.853516 175.52985,271.4493 173.067285,268.640869 C170.60472,265.832438 169.373438,261.605957 169.373438,255.961426 C169.373438,250.316895 170.60472,246.097331 173.067285,243.302734 C175.52985,240.508138 178.628809,239.11084 182.36416,239.11084 C186.044173,239.11084 189.12238,240.515055 191.598779,243.323486 C194.075179,246.131917 195.313379,250.261556 195.313379,255.712402 C195.313379,261.49528 194.082096,265.797852 191.619531,268.620117 C189.156966,271.442383 186.071842,272.853516 182.36416,272.853516 Z M215.819629,278 L215.819629,255.131348 C215.819629,251.119303 216.220833,248.048014 217.023242,245.91748 C217.825651,243.786947 219.119189,242.168294 220.903857,241.061523 C222.688525,239.954753 224.632292,239.401367 226.735156,239.401367 C229.502083,239.401367 231.494271,240.231445 232.711719,241.891602 C233.929167,243.551758 234.537891,246.041992 234.537891,249.362305 L234.537891,249.362305 L234.537891,278 L242.008594,278 L242.008594,252.39209 C242.008594,247.854329 243.032357,244.554769 245.079883,242.493408 C247.127409,240.432048 249.700651,239.401367 252.799609,239.401367 C254.515104,239.401367 256.009245,239.802572 257.282031,240.60498 C258.554818,241.407389 259.433317,242.465739 259.917529,243.780029 C260.401742,245.09432 260.643848,247.245605 260.643848,250.233887 L260.643848,250.233887 L260.643848,278 L268.073047,278 L268.073047,247.743652 C268.073047,242.707845 266.897103,238.979411 264.545215,236.55835 C262.193327,234.137288 258.83151,232.926758 254.459766,232.926758 C248.870573,232.926758 244.332813,235.5 240.846484,240.646484 C239.988737,238.211589 238.515348,236.316243 236.426318,234.960449 C234.337288,233.604655 231.660286,232.926758 228.395313,232.926758 C225.46237,232.926758 222.847624,233.583903 220.551074,234.898193 C218.254525,236.212484 216.414518,237.94873 215.031055,240.106934 L215.031055,240.106934 L215.031055,233.922852 L208.348926,233.922852 L208.348926,278 L215.819629,278 Z M288.28877,278.996094 C291.221712,278.996094 293.967887,278.511882 296.527295,277.543457 C299.086702,276.575033 301.74987,274.914876 304.516797,272.562988 C304.738151,274.638184 305.236198,276.450521 306.010938,278 L306.010938,278 L313.813672,278 C312.872917,276.312174 312.243441,274.548258 311.925244,272.708252 C311.607048,270.868245 311.447949,266.475749 311.447949,259.530762 L311.447949,259.530762 L311.447243,249.142546 C311.436887,246.051747 311.31261,243.897624 311.074414,242.680176 C310.631706,240.63265 309.856966,238.937907 308.750195,237.595947 C307.643424,236.253988 305.914095,235.140299 303.562207,234.254883 C301.210319,233.369466 298.152865,232.926758 294.389844,232.926758 C290.599154,232.926758 287.265007,233.445557 284.387402,234.483154 C281.509798,235.520752 279.310091,237.001058 277.788281,238.924072 C276.266471,240.847087 275.173535,243.371908 274.509473,246.498535 L274.509473,246.498535 L281.81416,247.494629 C282.616569,244.368001 283.854769,242.189046 285.52876,240.957764 C287.202751,239.726481 289.796745,239.11084 293.310742,239.11084 C297.073763,239.11084 299.909863,239.954753 301.819043,241.642578 C303.230176,242.887695 303.935742,245.032064 303.935742,248.075684 C303.935742,248.352376 303.921908,249.002604 303.894238,250.026367 C301.044303,251.022461 296.603385,251.880208 290.571484,252.599609 C287.610872,252.95931 285.397331,253.332845 283.930859,253.720215 C281.938672,254.2736 280.147087,255.089844 278.556104,256.168945 C276.96512,257.248047 275.678499,258.679932 274.69624,260.4646 C273.713981,262.249268 273.222852,264.220703 273.222852,266.378906 C273.222852,270.058919 274.523307,273.081787 277.124219,275.44751 C279.72513,277.813232 283.446647,278.996094 288.28877,278.996094 Z M290.073438,273.144043 C287.168164,273.144043 284.96154,272.47998 283.453564,271.151855 C281.945589,269.82373 281.191602,268.163574 281.191602,266.171387 C281.191602,264.870931 281.537467,263.68807 282.229199,262.622803 C282.920931,261.557536 283.90319,260.74821 285.175977,260.194824 C286.448763,259.641439 288.620801,259.143392 291.69209,258.700684 C297.115267,257.925944 301.18265,256.985189 303.894238,255.878418 L303.894238,255.878418 L303.894238,258.617676 C303.894238,261.910319 303.493034,264.400553 302.690625,266.088379 C301.639193,268.274251 299.992871,269.996663 297.75166,271.255615 C295.510449,272.514567 292.951042,273.144043 290.073438,273.144043 Z" id="noma" fill="#000000" fill-rule="nonzero"></path>
        <path d="M215.962402,333.019531 C219.502441,333.019531 222.674316,332.403564 225.478027,331.171631 C228.281738,329.939697 230.427002,328.197998 231.913818,325.946533 C233.400635,323.695068 234.144043,321.294922 234.144043,318.746094 C234.144043,316.140625 233.535156,313.959961 232.317383,312.204102 C231.099609,310.448242 229.421631,309.110107 227.283447,308.189697 C225.145264,307.269287 221.371582,306.086914 215.962402,304.642578 C212.224121,303.623047 209.972656,302.97168 209.208008,302.688477 C207.876953,302.150391 206.899902,301.470703 206.276855,300.649414 C205.653809,299.856445 205.342285,298.964355 205.342285,297.973145 C205.342285,296.415527 206.092773,295.056152 207.59375,293.89502 C209.094727,292.733887 211.601074,292.15332 215.112793,292.15332 C218.086426,292.15332 220.387451,292.804688 222.015869,294.107422 C223.644287,295.410156 224.628418,297.222656 224.968262,299.544922 L224.968262,299.544922 L232.444824,298.525391 C231.963379,295.608398 231.085449,293.279053 229.811035,291.537354 C228.536621,289.795654 226.561279,288.415039 223.88501,287.395508 C221.20874,286.375977 218.100586,285.866211 214.560547,285.866211 C212.209961,285.866211 210.008057,286.170654 207.954834,286.779541 C205.901611,287.388428 204.280273,288.131836 203.09082,289.009766 C201.504883,290.142578 200.251709,291.565674 199.331299,293.279053 C198.410889,294.992432 197.950684,296.854492 197.950684,298.865234 C197.950684,301.074219 198.51001,303.092041 199.628662,304.918701 C200.747314,306.745361 202.389893,308.175537 204.556396,309.209229 C206.7229,310.24292 210.609863,311.467773 216.217285,312.883789 C220.380371,313.931641 222.98584,314.79541 224.033691,315.475098 C225.534668,316.466309 226.285156,317.825684 226.285156,319.553223 C226.285156,321.479004 225.435547,323.156982 223.736328,324.587158 C222.037109,326.017334 219.431641,326.732422 215.919922,326.732422 C212.436523,326.732422 209.724854,325.925293 207.784912,324.311035 C205.844971,322.696777 204.662598,320.374512 204.237793,317.344238 L204.237793,317.344238 L196.67627,318.533691 C197.525879,323.319824 199.487061,326.930664 202.559814,329.366211 C205.632568,331.801758 210.100098,333.019531 215.962402,333.019531 Z M246.36671,350.309082 C248.802257,350.309082 250.89796,349.721436 252.653819,348.546143 C254.409679,347.37085 255.967296,345.522949 257.326671,343.002441 C258.346202,341.133301 259.776378,337.720703 261.617198,332.764648 L261.617198,332.764648 L278.779308,286.885742 L271.132823,286.885742 L261.489757,313.181152 C260.271983,316.522949 259.224132,319.949707 258.346202,323.461426 C257.383311,319.808105 256.292979,316.324707 255.075206,313.01123 L255.075206,313.01123 L245.687022,286.885742 L237.445811,286.885742 L254.56544,332.084961 C254.253917,332.90625 254.027354,333.529297 253.885753,333.954102 C252.809581,336.984375 252.030772,338.881836 251.549327,339.646484 C250.89796,340.666016 250.062511,341.458984 249.042979,342.025391 C248.023448,342.591797 246.664073,342.875 244.964854,342.875 C243.718761,342.875 242.260265,342.648438 240.589366,342.195312 L240.589366,342.195312 L241.438976,349.374512 C243.251476,349.997559 244.894054,350.309082 246.36671,350.309082 Z M300.050314,333.019531 C303.590353,333.019531 306.762228,332.403564 309.565939,331.171631 C312.36965,329.939697 314.514914,328.197998 316.00173,325.946533 C317.488547,323.695068 318.231955,321.294922 318.231955,318.746094 C318.231955,316.140625 317.623068,313.959961 316.405295,312.204102 C315.187521,310.448242 313.509543,309.110107 311.371359,308.189697 C309.233176,307.269287 305.459494,306.086914 300.050314,304.642578 C296.312033,303.623047 294.060568,302.97168 293.29592,302.688477 C291.964865,302.150391 290.987814,301.470703 290.364767,300.649414 C289.741721,299.856445 289.430197,298.964355 289.430197,297.973145 C289.430197,296.415527 290.180685,295.056152 291.681662,293.89502 C293.182639,292.733887 295.688986,292.15332 299.200705,292.15332 C302.174338,292.15332 304.475363,292.804688 306.103781,294.107422 C307.732199,295.410156 308.71633,297.222656 309.056174,299.544922 L309.056174,299.544922 L316.532736,298.525391 C316.051291,295.608398 315.173361,293.279053 313.898947,291.537354 C312.624533,289.795654 310.649191,288.415039 307.972922,287.395508 C305.296652,286.375977 302.188498,285.866211 298.648459,285.866211 C296.297873,285.866211 294.095969,286.170654 292.042746,286.779541 C289.989523,287.388428 288.368185,288.131836 287.178732,289.009766 C285.592795,290.142578 284.339621,291.565674 283.419211,293.279053 C282.498801,294.992432 282.038596,296.854492 282.038596,298.865234 C282.038596,301.074219 282.597922,303.092041 283.716574,304.918701 C284.835226,306.745361 286.477805,308.175537 288.644308,309.209229 C290.810812,310.24292 294.697775,311.467773 300.305197,312.883789 C304.468283,313.931641 307.073752,314.79541 308.121603,315.475098 C309.62258,316.466309 310.373068,317.825684 310.373068,319.553223 C310.373068,321.479004 309.523459,323.156982 307.82424,324.587158 C306.125021,326.017334 303.519553,326.732422 300.007834,326.732422 C296.524435,326.732422 293.812766,325.925293 291.872824,324.311035 C289.932883,322.696777 288.75051,320.374512 288.325705,317.344238 L288.325705,317.344238 L280.764182,318.533691 C281.613791,323.319824 283.574973,326.930664 286.647726,329.366211 C289.72048,331.801758 294.18801,333.019531 300.050314,333.019531 Z M337.888704,332.594727 C339.587923,332.594727 341.513704,332.368164 343.666048,331.915039 L343.666048,331.915039 L342.561556,325.160645 C341.17386,325.358887 340.055208,325.458008 339.205598,325.458008 C338.072786,325.458008 337.201936,325.273926 336.59305,324.905762 C335.984163,324.537598 335.545198,324.041992 335.276155,323.418945 C335.007112,322.795898 334.872591,321.394043 334.872591,319.213379 L334.872591,319.213379 L334.872591,292.833008 L342.561556,292.833008 L342.561556,286.885742 L334.872591,286.885742 L334.872591,271.125488 L327.268587,275.713379 L327.268587,286.885742 L321.661165,286.885742 L321.661165,292.833008 L327.268587,292.833008 L327.268587,318.788574 C327.268587,323.376465 327.58011,326.385498 328.203157,327.815674 C328.826204,329.24585 329.902376,330.399902 331.431673,331.277832 C332.96097,332.155762 335.113313,332.594727 337.888704,332.594727 Z M367.528363,333.019531 C372.767621,333.019531 377.072308,331.745117 380.442426,329.196289 C383.812543,326.647461 386.120648,323.064941 387.366742,318.44873 L387.366742,318.44873 L379.465375,317.47168 C378.304242,320.700195 376.732465,323.050781 374.750043,324.523438 C372.767621,325.996094 370.374554,326.732422 367.570844,326.732422 C363.804242,326.732422 360.660687,325.415527 358.140179,322.781738 C355.619672,320.147949 354.217816,316.353027 353.934613,311.396973 L353.934613,311.396973 L387.579144,311.396973 C387.607465,310.490723 387.621625,309.811035 387.621625,309.35791 C387.621625,301.909668 385.710004,296.132324 381.886762,292.025879 C378.063519,287.919434 373.135785,285.866211 367.103558,285.866211 C360.87309,285.866211 355.803754,287.961914 351.895551,292.15332 C347.987347,296.344727 346.033246,302.235352 346.033246,309.825195 C346.033246,317.160156 347.966107,322.859619 351.83183,326.923584 C355.697553,330.987549 360.92973,333.019531 367.528363,333.019531 Z M379.550336,305.109863 L354.359418,305.109863 C354.614301,301.17334 355.938275,298.029785 358.331342,295.679199 C360.724408,293.328613 363.676801,292.15332 367.188519,292.15332 C371.068402,292.15332 374.226117,293.625977 376.661664,296.571289 C378.247601,298.46875 379.210492,301.314941 379.550336,305.109863 L379.550336,305.109863 Z M403.157768,332 L403.157768,308.593262 C403.157768,304.486816 403.568413,301.343262 404.389702,299.162598 C405.210991,296.981934 406.534966,295.325195 408.361626,294.192383 C410.188286,293.05957 412.177788,292.493164 414.330132,292.493164 C417.162163,292.493164 419.201225,293.342773 420.447319,295.041992 C421.693413,296.741211 422.31646,299.290039 422.31646,302.688477 L422.31646,302.688477 L422.31646,332 L429.962944,332 L429.962944,305.789551 C429.962944,301.14502 431.010796,297.767822 433.106499,295.657959 C435.202202,293.548096 437.835991,292.493164 441.007866,292.493164 C442.763725,292.493164 444.293022,292.903809 445.595757,293.725098 C446.898491,294.546387 447.797661,295.629639 448.293266,296.974854 C448.788872,298.320068 449.036675,300.521973 449.036675,303.580566 L449.036675,303.580566 L449.036675,332 L456.640678,332 L456.640678,301.031738 C456.640678,295.877441 455.437065,292.061279 453.029839,289.583252 C450.622612,287.105225 447.181694,285.866211 442.707085,285.866211 C436.986382,285.866211 432.34185,288.5 428.773491,293.767578 C427.895561,291.275391 426.387505,289.335449 424.249321,287.947754 C422.111137,286.560059 419.371147,285.866211 416.02935,285.866211 C413.027397,285.866211 410.351128,286.538818 408.000542,287.884033 C405.649956,289.229248 403.766655,291.006348 402.350639,293.215332 L402.350639,293.215332 L402.350639,286.885742 L395.511284,286.885742 L395.511284,332 L403.157768,332 Z M482.754459,333.019531 C486.294498,333.019531 489.466373,332.403564 492.270084,331.171631 C495.073795,329.939697 497.219058,328.197998 498.705875,325.946533 C500.192691,323.695068 500.936099,321.294922 500.936099,318.746094 C500.936099,316.140625 500.327213,313.959961 499.109439,312.204102 C497.891666,310.448242 496.213687,309.110107 494.075504,308.189697 C491.93732,307.269287 488.163638,306.086914 482.754459,304.642578 C479.016177,303.623047 476.764713,302.97168 476.000064,302.688477 C474.669009,302.150391 473.691959,301.470703 473.068912,300.649414 C472.445865,299.856445 472.134341,298.964355 472.134341,297.973145 C472.134341,296.415527 472.88483,295.056152 474.385806,293.89502 C475.886783,292.733887 478.393131,292.15332 481.904849,292.15332 C484.878482,292.15332 487.179507,292.804688 488.807925,294.107422 C490.436343,295.410156 491.420474,297.222656 491.760318,299.544922 L491.760318,299.544922 L499.236881,298.525391 C498.755435,295.608398 497.877506,293.279053 496.603091,291.537354 C495.328677,289.795654 493.353336,288.415039 490.677066,287.395508 C488.000797,286.375977 484.892642,285.866211 481.352603,285.866211 C479.002017,285.866211 476.800113,286.170654 474.74689,286.779541 C472.693668,287.388428 471.07233,288.131836 469.882877,289.009766 C468.296939,290.142578 467.043765,291.565674 466.123355,293.279053 C465.202945,294.992432 464.74274,296.854492 464.74274,298.865234 C464.74274,301.074219 465.302066,303.092041 466.420718,304.918701 C467.539371,306.745361 469.181949,308.175537 471.348453,309.209229 C473.514957,310.24292 477.40192,311.467773 483.009341,312.883789 C487.172427,313.931641 489.777896,314.79541 490.825748,315.475098 C492.326724,316.466309 493.077213,317.825684 493.077213,319.553223 C493.077213,321.479004 492.227603,323.156982 490.528384,324.587158 C488.829166,326.017334 486.223697,326.732422 482.711978,326.732422 C479.22858,326.732422 476.51691,325.925293 474.576968,324.311035 C472.637027,322.696777 471.454654,320.374512 471.029849,317.344238 L471.029849,317.344238 L463.468326,318.533691 C464.317935,323.319824 466.279117,326.930664 469.351871,329.366211 C472.424625,331.801758 476.892154,333.019531 482.754459,333.019531 Z" id="systems" fill="#000000" fill-rule="nonzero"></path>
    </g>
</svg>