<?xml version="1.0" encoding="UTF-8"?>
<svg width="500px" height="500px" viewBox="0 0 500 500" version="1.1" xmlns="http://www.w3.org/2000/svg" xmlns:xlink="http://www.w3.org/1999/xlink">
    <!-- Generator: Sketch 63.1 (92452) - https://sketch.com -->
    <title>panel</title>
    <desc>Created with Sketch.</desc>
    <g id="panel" stroke="none" stroke-width="1" fill="none" fill-rule="evenodd">
        <path d="M25,310 C36.5862191,310 46,319.16605 46,330.5 C46,341.83395 36.5862191,351 25,351 C13.4137809,351 4,341.83395 4,330.5 C4,319.16605 13.4137809,310 25,310 Z M25,314 C15.5993986,314 8,321.399414 8,330.5 C8,339.600586 15.5993986,347 25,347 C34.4006014,347 42,339.600586 42,330.5 C42,321.399414 34.4006014,314 25,314 Z M44.5,140 C55.9232947,140 65.3583019,148.512871 66.8071306,159.54072 C72.1736317,158.342905 77.7612256,157.710526 83.5,157.710526 C124.633453,157.710526 158,190.199006 158,230.302632 C158,260.901105 138.575784,287.066448 111.097921,297.750695 C111.686293,299.901219 112,302.164447 112,304.5 C112,318.868739 100.126421,330.5 85.5,330.5 C70.873579,330.5 59,318.868739 59,304.5 C59,302.637373 59.1995245,300.820746 59.5787057,299.069494 C30.1725196,289.362166 9,262.248469 9,230.302632 C9,210.641354 17.0198723,192.810428 30.043014,179.740869 C25.1258323,175.61407 22,169.422073 22,162.5 C22,150.073593 32.0735931,140 44.5,140 Z M107.318026,299.104102 L107.043246,299.195106 C99.642705,301.595198 91.7266906,302.894737 83.5,302.894737 C76.5446083,302.894737 69.8112921,301.965808 63.423821,300.228209 C63.1458453,301.610041 63,303.038487 63,304.5 C63,316.640929 73.0644682,326.5 85.5,326.5 C97.9355318,326.5 108,316.640929 108,304.5 C108,302.63863 107.763434,300.830896 107.318026,299.104102 Z M21,282 C28.1679411,282 34,287.678584 34,294.710526 C34,301.742469 28.1679411,307.421053 21,307.421053 C13.8320589,307.421053 8,301.742469 8,294.710526 C8,287.678584 13.8320589,282 21,282 Z M21,286 C16.0176766,286 12,289.911948 12,294.710526 C12,299.509104 16.0176766,303.421053 21,303.421053 C25.9823234,303.421053 30,299.509104 30,294.710526 C30,289.911948 25.9823234,286 21,286 Z M85.5,282.5 C75.9957562,282.5 67.8765119,288.258938 64.5768831,296.39407 C70.5984126,298.024376 76.9444452,298.894737 83.5,298.894737 C91.3542942,298.894737 98.9078247,297.645356 105.962482,295.339921 C102.408804,287.764977 94.587504,282.5 85.5,282.5 Z M83.5,161.710526 C77.8076791,161.710526 72.2733336,162.366761 66.9723776,163.605638 C66.3956661,175.519638 56.5549617,185 44.5,185 C40.4558812,185 36.6609603,183.933057 33.3813686,182.065304 C20.779089,194.457238 13,211.498725 13,230.302632 C13,260.424861 32.9621262,286.024498 60.7301082,295.238688 C64.536403,285.447177 74.196086,278.5 85.5,278.5 C96.3156024,278.5 105.625962,284.859926 109.743274,293.98374 C135.687783,283.854952 154,259.153187 154,230.302632 C154,192.432371 122.447836,161.710526 83.5,161.710526 Z M62.8709126,164.696936 L62.2663743,164.876012 C52.6121344,167.838991 43.8561305,172.768722 36.4939733,179.181556 C38.9175089,180.347637 41.6325707,181 44.5,181 C53.9739004,181 61.7845229,173.878661 62.8709126,164.696936 Z M44.5,144 C34.2827321,144 26,152.282732 26,162.5 C26,168.355395 28.7202978,173.57543 32.9660401,176.965253 C41.3780402,169.392835 51.585435,163.688171 62.8942665,160.523182 C61.9100681,151.236364 54.0501057,144 44.5,144 Z M24,102 C32.2842712,102 39,108.715729 39,117 C39,125.284271 32.2842712,132 24,132 C15.7157288,132 9,125.284271 9,117 C9,108.715729 15.7157288,102 24,102 Z M24,106 C17.9248678,106 13,110.924868 13,117 C13,123.075132 17.9248678,128 24,128 C30.0751322,128 35,123.075132 35,117 C35,110.924868 30.0751322,106 24,106 Z" id="Shape" fill="#000000" fill-rule="nonzero"></path>
        <path d="M228.287109,280.446289 C238.753031,280.446289 247.983264,286.087249 248.194071,293.447158 L248.197754,293.70459 L248.197754,318.969238 C248.197754,326.893844 239.370398,331.494266 228.665691,331.600181 L228.287109,331.602051 L190.338,331.602 L190.338867,340.88623 C190.338867,343.84971 187.995087,346.26577 185.060074,346.381863 L184.838867,346.38623 C181.875388,346.38623 179.459328,344.04245 179.343234,341.107438 L179.338867,340.88623 L179.338867,293.70459 C179.338867,285.144778 187.626335,280.553764 198.761108,280.448153 L199.155273,280.446289 L228.287109,280.446289 Z M387.802246,280.446289 C394.938863,280.446289 403.736548,286.155527 403.95813,293.946402 L403.962402,294.24707 L403.962402,327 C403.962402,330.037566 401.499968,332.5 398.462402,332.5 C395.498923,332.5 393.082863,330.15622 392.96677,327.221207 L392.962402,327 L392.962402,294.24707 C392.962402,294.275876 392.946962,294.232459 392.820901,294.055911 C392.556986,293.686299 392.084045,293.253597 391.450468,292.838173 C390.244286,292.047303 388.716567,291.51218 387.938989,291.451961 L387.802246,291.446289 L352.611328,291.446289 C348.364247,291.446289 346.73463,292.42544 346.657663,294.118738 L346.654785,294.24707 L346.654785,327 C346.654785,330.037566 344.192351,332.5 341.154785,332.5 C338.191306,332.5 335.775246,330.15622 335.659152,327.221207 L335.654785,327 L335.654785,294.24707 C335.654785,285.229202 342.754776,280.562282 352.253992,280.448424 L352.611328,280.446289 L387.802246,280.446289 Z M307.996582,280.446289 C311.681223,280.446289 315.894359,281.161731 319.419238,282.727362 C324.827111,285.129356 328.366027,289.407542 328.502729,295.36422 L328.506836,295.723633 L328.506836,318.395996 C328.506836,323.727563 325.346784,327.610391 320.570102,329.869501 C317.654665,331.248342 314.132883,331.992077 311.187505,332.066545 L310.702148,332.072754 L274.173828,332.072754 C271.198946,332.072754 267.035319,330.906038 263.6134,329.146815 C258.850013,326.697936 255.597267,323.339582 255.455053,318.713387 L255.450195,318.395996 L255.450195,308.660156 C255.450195,303.677658 258.555364,299.95938 263.222822,297.664404 C266.351844,296.125873 270.211275,295.249108 273.659777,295.169095 L274.173828,295.163086 L317.428,295.163 C316.838135,293.078326 313.035774,291.515493 308.312787,291.448527 L307.996582,291.446289 L296.45459,291.446289 C293.417024,291.446289 290.95459,288.983855 290.95459,285.946289 C290.95459,282.98281 293.29837,280.56675 296.233383,280.450656 L296.45459,280.446289 L307.996582,280.446289 Z M460.833008,280.446289 C463.80789,280.446289 467.971517,281.613005 471.393436,283.372228 C476.156823,285.821107 479.409569,289.179461 479.551783,293.805656 L479.556641,294.123047 L479.556641,312.359175 L421.500641,312.356043 L421.5,312.542969 C421.5,318.108476 424.708325,320.969607 430.681694,321.070015 L431.010254,321.072754 L442.552246,321.072754 C445.589812,321.072754 448.052246,323.535188 448.052246,326.572754 C448.052246,329.536233 445.708466,331.952293 442.773453,332.068387 L442.552246,332.072754 L431.010254,332.072754 C419.210671,332.072754 410.679247,324.834653 410.502789,312.920749 L410.5,312.542969 L410.5,296.123047 C410.5,291.079312 413.357373,286.952133 417.746843,284.038935 C420.918587,281.933916 424.847212,280.555407 427.937926,280.452482 L428.304687,280.446289 L460.833008,280.446289 Z M492.5,267 C495.463479,267 497.879539,269.34378 497.995633,272.278793 L498,272.5 L498,326.5 C498,329.537566 495.537566,332 492.5,332 C489.536521,332 487.120461,329.65622 487.004367,326.721207 L487,326.5 L487,272.5 C487,269.462434 489.462434,267 492.5,267 Z M317.506,306.163 L274.173828,306.163 C272.228672,306.163 269.797115,306.689645 268.076495,307.535669 C266.86136,308.133147 266.488971,308.533928 266.453138,308.644441 L266.45,308.660156 L266.45,317.86 L266.461261,317.8727 C266.846671,318.277343 267.513164,318.756551 268.37763,319.224099 L268.642826,319.363928 C270.518769,320.328359 272.8752,321.008612 274.018878,321.068461 L274.173828,321.072754 L310.702148,321.072754 C314.075012,321.072754 317.335319,319.571709 317.500296,318.481201 L317.506836,318.395996 L317.506,306.163 Z M228.287109,291.446289 L199.155273,291.446289 C195.718443,291.446289 192.99419,292.005338 191.355519,292.893433 L191.061155,293.058711 C190.492502,293.391268 190.35713,293.563141 190.340692,293.67884 L190.338867,293.70459 L190.338,320.602051 L228.287109,320.602051 C231.398668,320.602051 234.08768,320.067184 235.907177,319.210877 L236.161142,319.086384 C236.581178,318.871865 236.900916,318.66304 237.118028,318.485356 L237.197,318.417 L237.197,294.336 L237.101211,294.230254 C236.873862,293.991407 236.549595,293.721887 236.138748,293.449851 L235.926157,293.313753 C234.163634,292.222382 231.65386,291.512985 228.710504,291.450749 L228.287109,291.446289 Z M460.833008,291.446289 L428.304687,291.446289 C427.477068,291.446289 425.423423,292.146303 423.829573,293.204107 C422.306399,294.215006 421.574816,295.212243 421.505466,296.000372 L421.5,296.123047 L421.500641,301.356043 L468.557641,301.359043 L468.557641,294.660043 L468.545575,294.646343 C468.160165,294.2417 467.493672,293.762492 466.629206,293.294944 L466.36401,293.155115 C464.488067,292.190684 462.131636,291.510431 460.987958,291.450582 L460.833008,291.446289 Z" id="Shape" fill="#000000" fill-rule="nonzero"></path>
    </g>
</svg>