<?xml version="1.0" encoding="UTF-8"?>
<svg width="500px" height="500px" viewBox="0 0 500 500" version="1.1" xmlns="http://www.w3.org/2000/svg" xmlns:xlink="http://www.w3.org/1999/xlink">
    <!-- Generator: Sketch 63.1 (92452) - https://sketch.com -->
    <title>payvision</title>
    <desc>Created with Sketch.</desc>
    <g id="payvision" stroke="none" stroke-width="1" fill="none" fill-rule="evenodd">
        <g id="Group" transform="translate(0.000000, 276.000000)" fill="#000000" fill-rule="nonzero">
            <g transform="translate(342.783505, 0.000000)" id="Path">
                <polygon points="21.5154639 0.12371134 39.5412371 54.0592784 18.4278351 54.0592784 0.402061856 0.12371134"></polygon>
                <polygon points="57.507732 0.12371134 30.1881443 82.1675258 51.3015464 82.1675258 78.621134 0.12371134"></polygon>
                <polygon points="78.6134021 0.12371134 96.6056701 54.0592784 117.680412 54.0592784 99.6907216 0.12371134"></polygon>
                <polygon points="135.67268 0.12371134 117.646907 54.0592784 138.760309 54.0592784 156.786082 0.12371134"></polygon>
            </g>
            <g id="payvision-word">
                <path d="M26.8840206,43.6005155 C25.0592784,45.9587629 22.5231959,47.1391753 19.2706186,47.1391753 C12.6082474,47.1391753 8.8814433,41.871134 8.8814433,34.9510309 C8.8814433,28.0309278 12.6082474,22.7603093 19.2706186,22.7603093 C22.5206186,22.7603093 25.0592784,23.9407216 26.8840206,26.2989691 C28.7087629,28.6572165 29.6597938,31.5670103 29.6597938,34.9484536 C29.6597938,38.3298969 28.7087629,41.2396907 26.8840206,43.5979381 L26.8840206,43.6005155 Z M19.9046392,14.6623711 C15.3840206,14.6623711 11.6572165,16.6134021 8.8814433,19.5231959 L8.8814433,15.6056701 L-1.14455982e-15,15.6056701 L-1.14455982e-15,69.3943299 L9.04123711,69.3943299 L9.04123711,51.306701 C12.0541237,53.7448454 15.7010309,55.0025773 19.9072165,55.0025773 C25.4587629,55.0025773 29.9768041,53.1159794 33.5463918,49.3402062 C37.1159794,45.4871134 38.8608247,40.6907216 38.8608247,34.871134 C38.8608247,29.0515464 37.1159794,24.2551546 33.5463918,20.4020619 C29.9768041,16.5489691 25.4587629,14.6623711 19.9072165,14.6623711 L19.9046392,14.6623711 Z" id="Shape"></path>
                <polygon id="Path" points="100.871134 46.3891753 90.2551546 15.6056701 80.5670103 15.6056701 93.8865979 54.2293814 98.0927835 54.2293814 92.7448454 69.3273196 102.43299 69.3273196 121.46134 15.6056701 111.773196 15.6056701"></polygon>
                <polygon id="Path" points="141.574742 45.8298969 131.152062 15.6056701 121.463918 15.6056701 134.783505 54.2293814 148.311856 54.2293814 161.868557 15.6778351 152.18299 15.6185567"></polygon>
                <polygon id="Path" points="223.31701 54.1391753 232.358247 54.1391753 232.358247 15.6056701 223.31701 15.6056701"></polygon>
                <path d="M304.873711,14.6623711 C300.590206,14.6623711 297.260309,16.4587629 294.801546,19.2113402 L294.801546,15.6082474 L285.920103,15.6082474 L285.920103,54.1417526 L294.96134,54.1417526 L294.96134,32.8324742 C294.96134,26.6185567 298.054124,22.7654639 303.525773,22.7654639 C308.363402,22.7654639 311.216495,26.3041237 311.216495,31.7293814 L311.216495,54.1417526 L320.257732,54.1417526 L320.257732,31.7293814 C320.257732,20.9561856 314.469072,14.6649485 304.873711,14.6649485 L304.873711,14.6623711 Z" id="Path"></path>
                <polygon id="Path" points="167.226804 54.1391753 176.268041 54.1391753 176.268041 15.6056701 167.226804 15.6056701"></polygon>
                <polygon id="Path" points="167.221649 0 167.265464 9.03092784 176.286082 9.07474227 176.244845 0.043814433"></polygon>
                <polygon id="Path" points="232.257732 0.043814433 223.237113 0 223.280928 9.03092784 232.301546 9.07216495"></polygon>
                <path d="M67.9329897,43.8376289 C65.6340206,46.0386598 62.5412371,47.1391753 58.814433,47.1391753 C55.007732,47.1391753 52.9458763,45.4046392 52.9458763,42.8092784 C52.9458763,39.7680412 55.6005155,38.0412371 59.7448454,38.0128866 L67.935567,38.0128866 L67.935567,43.8376289 L67.9329897,43.8376289 Z M60.3994845,14.6623711 C54.056701,14.6623711 48.2268041,17.3685567 45.3273196,22.257732 L52.0438144,26.8402062 C53.8762887,24.5489691 56.2783505,22.7628866 60.3221649,22.7628866 C64.685567,22.7628866 67.935567,25.2783505 67.935567,29.1314433 L67.935567,30.8118557 L59.8298969,30.8118557 C50.314433,30.8118557 43.9097938,34.8737113 43.9097938,43.2860825 C43.9097938,46.8247423 45.1778351,49.7345361 47.6365979,51.8582474 C50.1752577,53.9819588 53.2680412,55.0051546 56.9948454,55.0051546 C61.435567,55.0051546 65.1623711,53.7474227 68.0979381,51.1520619 L68.0979381,54.1417526 L76.9793814,54.1417526 L76.9793814,29.2139175 C76.9793814,19.6984536 70.4768041,14.6649485 60.4046392,14.6649485 L60.3994845,14.6623711 Z" id="Shape"></path>
                <path d="M203.791237,31.0180412 L197.309278,29.6030928 C194.615979,28.9742268 193.268041,27.7938144 193.268041,25.9845361 C193.268041,24.0180412 195.456186,22.3685567 198.909794,22.3685567 C202.865979,22.3685567 206.064433,24.0206186 208.592784,27.2448454 L214.737113,21.1108247 C210.275773,16.7860825 205.139175,14.6623711 199.159794,14.6623711 C190.319588,14.6623711 184.090206,19.1443299 184.090206,26.1443299 C184.090206,32.5154639 188.298969,36.5257732 196.634021,38.3324742 L202.108247,39.5902062 C205.896907,40.5335052 207.159794,41.7139175 207.159794,43.3634021 C207.159794,45.564433 205.306701,47.2963918 200.845361,47.2963918 C196.046392,47.2963918 192.090206,45.4097938 189.059278,41.7139175 L182.997423,47.5335052 C187.206186,52.4896907 192.93299,55.0051546 200.087629,55.0051546 C210.528351,55.0051546 216.42268,50.0489691 216.42268,43.0515464 C216.42268,36.8376289 212.213918,32.8273196 203.793814,31.0180412 L203.791237,31.0180412 Z" id="Path"></path>
                <path d="M259.386598,46.0335052 C253.149485,46.0335052 248.092784,40.9716495 248.092784,34.7268041 C248.092784,28.4819588 253.149485,23.4201031 259.386598,23.4201031 C265.623711,23.4201031 270.680412,28.4819588 270.680412,34.7268041 C270.680412,40.9716495 265.623711,46.0335052 259.386598,46.0335052 Z M259.386598,14.5206186 C248.239691,14.5206186 239.201031,23.5670103 239.201031,34.7268041 C239.201031,45.8865979 248.237113,54.9329897 259.386598,54.9329897 C270.533505,54.9329897 279.572165,45.8865979 279.572165,34.7268041 C279.572165,23.5670103 270.536082,14.5206186 259.386598,14.5206186 Z" id="Shape"></path>
            </g>
        </g>
    </g>
</svg>