<?xml version="1.0" encoding="UTF-8"?>
<svg width="500px" height="500px" viewBox="0 0 500 500" version="1.1" xmlns="http://www.w3.org/2000/svg" xmlns:xlink="http://www.w3.org/1999/xlink">
    <!-- Generator: Sketch 63.1 (92452) - https://sketch.com -->
    <title>stackscale</title>
    <desc>Created with Sketch.</desc>
    <g id="stackscale" stroke="none" stroke-width="1" fill="none" fill-rule="evenodd">
        <path d="M55.3245784,242 L55.6936266,242.003846 C57.1682047,242.034611 58.6164084,242.249943 59.7863618,242.649182 L60.0729075,242.752822 L91.4370088,254.70165 L77.4307466,261.316852 L77.2741751,261.388113 C76.2806717,261.824982 75.1968994,262.004681 73.8790465,261.528076 L73.6572123,261.442497 L60.1524826,256.48476 L59.8699297,256.382462 C57.2759024,255.495449 53.3367475,255.517383 50.7463505,256.435589 L50.4642159,256.5413 L26.8722971,265.94163 L26.7120701,266.006581 C24.2526068,267.041215 24.1790713,268.868459 26.5274994,270.120802 L26.6806886,270.199945 L51.1290867,282.499531 L51.3738443,282.616589 C53.8670062,283.749418 57.6978673,283.749418 60.1781457,282.616589 L60.4215721,282.499531 L100.225868,261.861313 L100.485657,261.737408 C102.926512,260.615671 105.801734,260.463545 107.610511,261.078426 L107.800159,261.147231 L107.993124,261.225454 C110.484211,262.277118 112.285881,264.681551 112.374407,268.028721 L112.377821,268.288048 L109.835606,317.3597 L109.818827,317.601991 C109.580483,320.366479 107.712963,323.816843 105.532391,325.503826 L105.333332,325.652262 L71.5369551,349.950933 L71.5369551,339.135004 L71.5290026,338.848655 C71.4807367,335.449486 73.1162575,333.279065 75.3404048,331.546885 L75.532462,331.399468 L94.5760365,317.898926 L94.7830193,317.743279 C96.8706443,316.10259 97.3842402,313.469161 97.5398388,310.747424 L99.0165357,282.410532 L99.0229637,282.242304 C99.0882467,279.525637 97.2201671,278.279978 94.7913761,279.414243 L94.6388589,279.488242 L66.6933453,293.634807 L66.5028187,293.736126 C64.1021894,295.068004 62.1329714,298.255749 61.9989502,301.03109 L61.992133,301.255169 L61.9628158,352.046061 L61.9669279,352.341004 C61.9778011,355.169343 61.1494648,357.335642 59.325912,358.693325 L59.1337121,358.830885 L58.9421115,358.962211 C56.6727483,360.449485 53.1735158,360.411614 50.9357908,358.864512 L50.7416817,358.724086 L5.41843512,324.352885 L5.22863773,324.203696 C3.08946361,322.461891 1.3023954,318.962173 1.1237333,316.189868 L1.11195712,315.939913 L0,281.254599 L10.3876898,287.339999 L10.5857116,287.457815 C11.9382475,288.293675 12.6540992,289.401881 12.8472505,290.753938 L12.8723172,290.958572 L13.5507995,309.37811 L13.5616132,309.621523 C13.732046,312.399558 15.5200528,315.892008 17.6587761,317.6373 L17.8541364,317.791081 L44.7295745,338.175915 L44.8635618,338.274819 C47.0442457,339.839879 48.8351716,338.940857 48.9455482,336.22129 L48.9501952,336.052516 L49.3679644,301.219569 L49.3672925,301.006256 C49.3103248,298.224249 47.3850375,295.042302 44.9675001,293.720589 L44.7756443,293.620149 L5.80584014,271.704542 L5.57898161,271.589859 C-0.696543934,268.362667 -0.551871485,263.798251 4.26946432,261.195376 L4.44364032,261.103256 L50.3919701,242.813551 C51.656516,242.306364 53.3023149,242.037233 54.9675717,242.003603 L55.3245784,242 Z M338.483935,318.028236 C341.538153,318.028236 343.064738,319.555868 343.064738,322.609038 L343.064738,325.472694 C343.064738,328.5311 341.538153,330.053497 338.483935,330.053497 L333.333543,330.053497 L333.333543,334.065757 L329.330707,334.065757 L329.321283,318.028236 L338.483935,318.028236 Z M369.409222,318.028864 L372.850383,326.621038 L376.281997,318.028864 L380.294256,318.028864 L375.205639,330.053078 L370.553637,330.053078 L365.401151,318.028864 L369.409222,318.028864 Z M390.036131,318.028236 C393.471471,318.028236 395.186524,319.270026 395.186524,321.750465 L395.186524,330.053497 L386.594509,330.053497 C383.164404,330.053497 381.443069,328.909082 381.443069,326.621298 L381.443069,326.034955 C381.443069,323.791147 383.164404,322.666626 386.594509,322.666626 L389.4634,322.666626 C390.607815,322.666626 391.178453,322.26875 391.178453,321.464623 C391.178453,320.699236 390.607815,320.321255 389.4634,320.321255 L381.443069,320.321255 L381.443069,318.028236 L390.036131,318.028236 Z M445.031939,318.028236 L445.031939,320.321255 L439.866888,320.321255 C437.95185,320.321255 436.996949,321.082453 436.996949,322.609038 L436.996949,325.472694 C436.996949,326.99928 437.95185,327.765713 439.866888,327.765713 L445.01728,327.765713 L445.031939,330.053497 L437.569681,330.053497 C434.51651,330.053497 432.994113,328.5311 432.994113,325.472694 L432.994113,322.609038 C432.994113,319.555868 434.51651,318.028236 437.569681,318.028236 L445.031939,318.028236 Z M465.06748,318.027922 C467.732198,318.027922 469.075551,319.555554 469.075551,322.608724 L469.075551,325.47238 C469.075551,328.530786 467.544778,330.053183 464.49056,330.053183 L459.909758,330.053183 C456.856587,330.053183 455.325814,328.530786 455.325814,325.47238 L455.325814,322.608724 C455.325814,319.555554 456.856587,318.027922 459.909758,318.027922 L465.06748,318.027922 Z M353.950505,318.028864 C357.003676,318.028864 358.534449,319.555449 358.534449,322.60862 L354.521142,322.60862 C354.521142,321.082034 353.567288,320.320836 351.661674,320.320836 L348.792783,320.320836 L348.792783,330.053078 L344.785759,330.053078 L344.785759,318.028864 L353.950505,318.028864 Z M415.809664,318.02855 C419.245004,318.02855 420.966339,319.172965 420.966339,321.464937 L420.966339,322.036621 C420.966339,324.324405 419.245004,325.473009 415.809664,325.473009 L412.946008,325.473009 C411.796357,325.473009 411.223626,325.856225 411.223626,326.621612 C411.223626,327.382811 411.796357,327.766027 412.946008,327.766027 L420.966339,327.766027 L420.966339,330.052764 L412.373277,330.052764 C408.936889,330.052764 407.215555,328.812021 407.215555,326.330535 L407.215555,321.464937 C407.215555,319.172965 408.743187,318.02855 411.796357,318.02855 L415.809664,318.02855 Z M474.798256,318.028445 L474.798256,325.472904 C474.798256,326.999489 475.753157,327.765923 477.669242,327.765923 C479.571714,327.765923 480.527662,326.999489 480.527662,325.472904 L480.527662,318.028445 L484.538875,318.028445 L484.538875,325.472904 C484.538875,328.531309 483.008102,330.052659 479.954931,330.052659 L475.376223,330.052659 C472.317817,330.052659 470.79542,328.531309 470.79542,325.472904 L470.79542,318.028445 L474.798256,318.028445 Z M402.636323,315.727364 L402.636323,318.014101 L404.351375,318.014101 L404.351375,320.301884 L402.636323,320.301884 L402.636323,325.458559 C402.636323,326.989333 403.587035,327.754719 405.49579,327.754719 L405.49579,330.04355 L403.208007,330.04355 C400.153789,330.04355 398.623016,328.51173 398.623016,325.458559 L398.623016,320.301884 L396.90901,320.301884 L396.90901,318.014101 L398.623016,318.014101 L398.623016,315.727364 L402.636323,315.727364 Z M364.263332,318.005724 L364.263332,330.03308 L360.251072,330.03308 L360.251072,318.005724 L364.263332,318.005724 Z M499.990577,313.99692 L500,330.032347 L490.840489,330.032347 C487.782083,330.032347 486.255498,328.501573 486.255498,325.448403 L486.255498,322.588935 C486.255498,319.531577 487.782083,318.004991 490.840489,318.004991 L495.991929,318.004991 L495.991929,313.99692 L499.990577,313.99692 Z M450.747315,313.996187 L450.747315,325.448717 C450.747315,326.975302 451.701169,327.740689 453.610971,327.740689 L453.610971,330.032661 L451.323187,330.032661 C448.260593,330.032661 446.739243,328.501888 446.739243,325.448717 L446.739243,313.996187 L450.747315,313.996187 Z M391.178453,324.886352 L387.166193,324.90101 C386.023872,324.935563 385.45114,325.322968 385.45114,326.049614 L385.45114,326.621298 C385.45114,327.382496 386.023872,327.765713 387.166193,327.765713 L391.178453,327.765713 L391.178453,324.886352 Z M462.198588,320.320941 C460.289833,320.320941 459.339121,321.082139 459.339121,322.608724 L459.339121,325.47238 C459.339121,326.998966 460.289833,327.765399 462.198588,327.765399 C464.107343,327.765399 465.06748,326.998966 465.06748,325.47238 L465.06748,322.608724 C465.06748,321.082139 464.107343,320.320941 462.198588,320.320941 Z M336.193011,320.321255 L333.333543,320.321255 L333.333543,327.765713 L336.193011,327.765713 C338.102813,327.765713 339.057714,326.99928 339.057714,325.472694 L339.057714,322.609038 C339.057714,321.082453 338.102813,320.321255 336.193011,320.321255 Z M495.991929,320.291728 L493.128273,320.291728 C491.21847,320.291728 490.268805,321.058162 490.268805,322.588935 L490.268805,325.448403 C490.268805,326.974988 491.21847,327.740375 493.128273,327.740375 L495.991929,327.740375 L495.991929,320.291728 Z M415.236933,320.320522 L412.946008,320.320522 C411.796357,320.320522 411.223626,320.708974 411.223626,321.483784 L411.223626,323.238624 C411.583808,323.199883 411.960743,323.17999 412.373277,323.17999 L415.236933,323.17999 C416.381348,323.17999 416.951985,322.803055 416.951985,322.036621 L416.951985,321.464937 C416.951985,320.69955 416.381348,320.320522 415.236933,320.320522 Z M363.686412,313.996606 C364.069629,313.996606 364.263332,314.185073 364.263332,314.569337 L364.263332,316.288578 C364.263332,316.667606 364.069629,316.860262 363.686412,316.860262 L360.822756,316.860262 C360.439539,316.860262 360.251072,316.667606 360.251072,316.288578 L360.251072,314.569337 C360.251072,314.185073 360.439539,313.996606 360.822756,313.996606 L363.686412,313.996606 Z M186.197534,260.817833 L186.197534,267.739818 L190.614998,267.739818 L190.614998,274.665992 L186.197534,274.665992 L186.197534,290.241768 C186.197534,294.860264 188.651797,297.167941 193.562417,297.167941 L193.562417,304.093068 L187.67072,304.093068 C179.816868,304.093068 175.887325,299.476666 175.887325,290.241768 L175.887325,274.665992 L171.469861,274.665992 L171.469861,267.739818 L175.887325,267.739818 L175.887325,260.817833 L186.197534,260.817833 Z M165.255779,267.730185 L165.255779,274.654265 L144.638503,274.654265 C141.690037,274.654265 140.217898,275.810198 140.217898,278.113687 C140.217898,280.423458 141.690037,281.577297 144.638503,281.577297 L151.999198,281.577297 C160.838315,281.577297 165.255779,285.03986 165.255779,291.962893 L165.255779,293.694698 C165.255779,300.620872 160.838315,304.081341 151.999198,304.081341 L129.908736,304.081341 L129.908736,297.157261 L150.528106,297.157261 C153.472385,297.157261 154.948712,296.00447 154.948712,293.694698 L154.948712,291.962893 C154.948712,289.655215 153.472385,288.502424 150.528106,288.502424 L143.16427,288.502424 C134.3262,288.502424 129.908736,285.03986 129.908736,278.113687 C129.908736,271.192748 134.3262,267.730185 143.16427,267.730185 L165.255779,267.730185 Z M355.393851,267.730185 L355.393851,274.654265 L334.778668,274.654265 C331.830202,274.654265 330.357016,275.810198 330.357016,278.113687 C330.357016,280.423458 331.830202,281.577297 334.778668,281.577297 L342.139364,281.577297 C350.974292,281.577297 355.393851,285.03986 355.393851,291.962893 L355.393851,293.694698 C355.393851,300.620872 350.974292,304.081341 342.139364,304.081341 L320.043666,304.081341 L320.043666,297.157261 L340.666177,297.157261 C343.61255,297.157261 345.080501,296.00447 345.080501,293.694698 L345.080501,291.962893 C345.080501,289.655215 343.61255,288.502424 340.666177,288.502424 L333.304435,288.502424 C324.464271,288.502424 320.043666,285.03986 320.043666,278.113687 C320.043666,271.192748 324.464271,267.730185 333.304435,267.730185 L355.393851,267.730185 Z M486.294553,267.731128 C495.133669,267.731128 499.554275,271.192644 499.554275,278.114629 L499.554275,279.846434 C499.554275,286.769467 495.133669,290.233077 486.294553,290.233077 L478.938045,290.233077 C475.990626,290.233077 474.51744,291.384822 474.51744,293.694593 C474.51744,296.004365 475.990626,297.158204 478.938045,297.158204 L499.554275,297.158204 L499.554275,304.081236 L477.464859,304.081236 C468.624695,304.081236 464.210372,300.32969 464.210372,292.827644 L464.210372,278.114629 C464.210372,271.192644 468.13468,267.731128 475.990626,267.731128 L486.294553,267.731128 Z M221.873348,267.730813 C230.709324,267.730813 235.129929,271.479219 235.129929,278.979171 L235.129929,304.080922 L213.034232,304.080922 C204.20035,304.080922 199.779745,300.620453 199.779745,293.695326 L199.779745,291.928969 C199.779745,285.144146 204.20035,281.750687 213.034232,281.750687 L220.400162,281.750687 C223.34444,281.750687 224.817626,280.540308 224.817626,278.114315 C224.817626,275.809779 223.34444,274.653846 220.400162,274.653846 L199.779745,274.653846 L199.779745,267.730813 L221.873348,267.730813 Z M420.844777,267.730813 C429.678659,267.730813 434.099264,271.479219 434.099264,278.979171 L434.099264,304.080922 L412.009849,304.080922 C403.169685,304.080922 398.750127,300.620453 398.750127,293.695326 L398.750127,291.928969 C398.750127,285.144146 403.169685,281.750687 412.009849,281.750687 L419.371591,281.750687 C422.317964,281.750687 423.790103,280.540308 423.790103,278.114315 C423.790103,275.809779 422.317964,274.653846 419.371591,274.653846 L398.750127,274.653846 L398.750127,267.730813 L420.844777,267.730813 Z M272.297044,267.730604 L272.297044,274.653636 L259.019522,274.653636 C254.103666,274.653636 251.653591,276.961314 251.653591,281.577716 L251.653591,290.232554 C251.653591,294.848956 254.103666,297.15768 259.019522,297.15768 L272.268774,297.15768 L272.297044,304.080713 L253.123636,304.080713 C245.269785,304.080713 241.342335,299.465358 241.342335,290.232554 L241.342335,281.577716 C241.342335,272.343865 245.269785,267.730604 253.123636,267.730604 L272.297044,267.730604 Z M392.56463,267.730604 L392.56463,274.653636 L379.281873,274.653636 C374.371252,274.653636 371.921177,276.961314 371.921177,281.577716 L371.921177,290.232554 C371.921177,294.848956 374.371252,297.15768 379.281873,297.15768 L392.53636,297.15768 L392.56463,304.080713 L373.393316,304.080713 C365.537371,304.080713 361.60678,299.465358 361.60678,290.232554 L361.60678,281.577716 C361.60678,272.343865 365.537371,267.730604 373.393316,267.730604 L392.56463,267.730604 Z M450.625649,255.578651 L450.625649,290.201142 C450.625649,294.817544 453.076771,297.126269 457.986344,297.126269 L457.986344,304.050348 L452.097788,304.050348 C444.237654,304.050348 440.311252,299.43604 440.311252,290.201142 L440.311252,255.578651 L450.625649,255.578651 Z M288.79453,255.578023 L288.79453,282.967558 L303.524297,267.698565 L315.303504,267.698565 L296.568806,287.121168 L315.303504,304.04972 L303.524297,304.04972 L291.092784,292.796128 L288.79453,295.461893 L288.79453,304.04972 L278.487462,304.04972 L278.487462,293.664125 L278.516779,255.578023 L288.79453,255.578023 Z M224.817626,288.4685 L214.510559,288.502005 C211.563139,288.616132 210.089953,289.772065 210.089953,291.962474 L210.089953,293.695326 C210.089953,296.005098 211.563139,297.15789 214.510559,297.15789 L224.817626,297.15789 L224.817626,288.4685 Z M423.790103,288.4685 L413.483035,288.502005 C410.535616,288.616132 409.063477,289.772065 409.063477,291.962474 L409.063477,293.695326 C409.063477,296.005098 410.535616,297.15789 413.483035,297.15789 L423.790103,297.15789 L423.790103,288.4685 Z M484.826602,274.65416 L478.938045,274.65416 C475.990626,274.65416 474.51744,275.831034 474.51744,278.184781 L474.51744,283.481759 C475.438836,283.364491 476.427242,283.306904 477.464859,283.306904 L484.826602,283.306904 C487.777162,283.306904 489.24616,282.153065 489.24616,279.846434 L489.24616,278.114629 C489.24616,275.810093 487.777162,274.65416 484.826602,274.65416 Z" id="Shape" fill="#000000" fill-rule="nonzero"></path>
    </g>
</svg>