<?xml version="1.0" encoding="UTF-8"?>
<svg width="500px" height="500px" viewBox="0 0 500 500" version="1.1" xmlns="http://www.w3.org/2000/svg" xmlns:xlink="http://www.w3.org/1999/xlink">
    <!-- Generator: Sketch 63.1 (92452) - https://sketch.com -->
    <title>str</title>
    <desc>Created with Sketch.</desc>
    <g id="str" stroke="none" stroke-width="1" fill="none" fill-rule="evenodd">
        <path d="M243.227932,312.551547 L245.575934,312.551547 L248.379126,320.351241 C248.67477,321.187868 248.942614,322.061561 249.182659,322.97232 C249.397057,322.114728 249.647023,321.274921 249.932558,320.452898 L250.078289,320.043368 L252.825694,312.551547 L255.004253,312.551547 L250.052224,325.790232 C249.55772,327.112008 249.17104,328.028513 248.892185,328.539748 C248.504885,329.257866 248.061105,329.784351 247.560843,330.119203 C247.060581,330.454056 246.463495,330.621482 245.769584,330.621482 C245.391967,330.621482 244.975136,330.54959 244.519091,330.405805 L244.365623,330.355214 L244.123561,328.309789 L244.280005,328.350432 C244.691212,328.452436 245.054604,328.503439 245.370181,328.503439 C245.854305,328.503439 246.241605,328.422751 246.532079,328.261377 C246.822554,328.100002 247.060581,327.874077 247.246162,327.583603 C247.383331,327.365747 247.605221,326.825141 247.911833,325.961787 L247.990503,325.737879 L247.990503,325.737879 L248.105483,325.42925 L243.227932,312.551547 Z M445.809699,312.261072 C446.907047,312.261072 447.875296,312.543478 448.714444,313.108289 C449.553593,313.673101 450.186989,314.469889 450.614632,315.498653 C451.042275,316.527417 451.256096,317.655022 451.256096,318.88147 C451.256096,320.196674 451.020086,321.380762 450.548065,322.433732 C450.076044,323.486702 449.390201,324.293575 448.490537,324.854353 C447.590873,325.41513 446.644813,325.695518 445.652359,325.695518 C444.926172,325.695518 444.274622,325.542212 443.697707,325.2356 C443.168869,324.954539 442.726475,324.605679 442.370526,324.189018 L442.275593,324.073702 L442.275593,330.331008 L440.097034,330.331008 L440.097034,312.551547 L442.081943,312.551547 L442.081943,314.221775 L442.183152,314.084226 C442.625739,313.499016 443.120505,313.05469 443.66745,312.751248 C444.256467,312.424464 444.970551,312.261072 445.809699,312.261072 Z M223.439355,307.359315 L222.386385,312.551547 L226.198863,312.551547 L227.251833,307.359315 L229.079402,307.359315 L228.026432,312.551547 L230.120269,312.551547 L230.120269,314.354909 L227.663339,314.354909 L226.755606,318.748336 L230.120269,318.748336 L230.120269,320.551699 L226.392513,320.551699 L225.339543,325.707621 L223.524077,325.707621 L224.564944,320.551699 L220.764569,320.551699 L219.711599,325.707621 L217.896133,325.707621 L218.949103,320.551699 L216.903679,320.551699 L216.903679,318.748336 L219.312197,318.748336 L220.207826,314.354909 L216.903679,314.354909 L216.903679,312.551547 L220.570919,312.551547 L221.62389,307.359315 L223.439355,307.359315 Z M410.940654,312.261072 C412.659295,312.261072 414.063255,312.846055 415.152535,314.016022 C416.241814,315.185989 416.786454,316.832011 416.786454,318.954089 L416.781726,319.271796 L416.781726,319.271796 L416.774351,319.535038 L407.188692,319.535038 L407.199904,319.702894 C407.301841,321.033034 407.697506,322.058293 408.386899,322.77867 C409.105017,323.529063 410.000647,323.904259 411.073788,323.904259 C411.872593,323.904259 412.554402,323.694472 413.119213,323.274897 C413.650801,322.880004 414.078751,322.263541 414.403064,321.42551 L414.462658,321.265782 L416.713835,321.544153 L416.667881,321.70702 C416.303485,322.943904 415.661201,323.91031 414.741029,324.606239 C413.78085,325.332425 412.554402,325.695518 411.061685,325.695518 C409.18167,325.695518 407.690971,325.116587 406.589588,323.958723 C405.488206,322.800859 404.937514,321.177026 404.937514,319.087223 C404.937514,316.924802 405.494257,315.246505 406.607743,314.052332 C407.721228,312.858159 409.165532,312.261072 410.940654,312.261072 Z M362.709782,312.261072 C364.428423,312.261072 365.832383,312.846055 366.921662,314.016022 C367.976902,315.149428 368.52101,316.7296 368.553986,318.756539 L368.555581,318.954089 C368.555581,319.018639 368.554573,319.099326 368.552556,319.196151 L368.543478,319.535038 L358.957819,319.535038 L358.969032,319.702894 C359.070969,321.033034 359.466634,322.058293 360.156027,322.77867 C360.874144,323.529063 361.769774,323.904259 362.842916,323.904259 C363.641721,323.904259 364.323529,323.694472 364.888341,323.274897 C365.419928,322.880004 365.847878,322.263541 366.172191,321.42551 L366.231785,321.265782 L368.482963,321.544153 L368.437009,321.70702 C368.072613,322.943904 367.430329,323.91031 366.510157,324.606239 C365.549977,325.332425 364.323529,325.695518 362.830813,325.695518 C360.950797,325.695518 359.460098,325.116587 358.358716,323.958723 C357.257333,322.800859 356.706642,321.177026 356.706642,319.087223 C356.706642,316.924802 357.263385,315.246505 358.37687,314.052332 C359.490356,312.858159 360.93466,312.261072 362.709782,312.261072 Z M236.292853,312.261072 C237.301445,312.261072 238.186988,312.406309 238.949484,312.696784 C239.71198,312.987258 240.274774,313.380609 240.637867,313.876837 C240.976754,314.339982 241.217238,314.948974 241.35932,315.703814 L241.38826,315.867797 L239.258113,316.158272 L239.237807,316.035917 C239.125523,315.432653 238.851903,314.957039 238.416947,314.609074 C237.952995,314.237913 237.29741,314.052332 236.450193,314.052332 C235.44967,314.052332 234.735586,314.217741 234.307943,314.548559 C233.8803,314.879377 233.666479,315.266676 233.666479,315.710457 C233.666479,315.992863 233.755235,316.247028 233.932747,316.472953 C234.110259,316.706946 234.388631,316.900596 234.767861,317.053902 L234.91209,317.102986 C235.211306,317.199363 235.804694,317.368582 236.692255,317.610644 L237.053179,317.707973 C238.402427,318.075571 239.357278,318.379998 239.917732,318.621254 C240.526922,318.883488 241.004995,319.264735 241.35195,319.764997 C241.698906,320.265259 241.872384,320.886551 241.872384,321.628875 C241.872384,322.355061 241.66058,323.038887 241.236971,323.680351 C240.813362,324.321816 240.202155,324.818043 239.40335,325.169033 C238.604546,325.520023 237.700847,325.695518 236.692255,325.695518 C235.022027,325.695518 233.749183,325.348563 232.873725,324.654651 C232.033286,323.988496 231.484715,323.013741 231.228013,321.730386 L231.197445,321.56836 L233.351798,321.229473 L233.373968,321.371497 C233.510925,322.16572 233.840405,322.780015 234.362407,323.214382 C234.915116,323.6743 235.687697,323.904259 236.680152,323.904259 C237.680675,323.904259 238.422999,323.700523 238.907123,323.293052 C239.391247,322.885581 239.633309,322.407508 239.633309,321.858834 C239.633309,321.366641 239.419488,320.979342 238.991845,320.696936 C238.705243,320.511032 238.009654,320.276794 236.905076,319.99422 L236.404896,319.866513 C234.99979,319.501844 234.012348,319.183583 233.442571,318.911728 C232.825313,318.617219 232.357326,318.209748 232.038611,317.689315 C231.719896,317.168881 231.560539,316.593984 231.560539,315.964622 C231.560539,315.391742 231.691656,314.861222 231.953889,314.373064 C232.216123,313.884905 232.573165,313.479451 233.025014,313.156702 C233.363901,312.906571 233.825836,312.694767 234.41082,312.521289 C234.995803,312.347811 235.623147,312.261072 236.292853,312.261072 Z M354.007649,307.661892 L354.007649,325.405044 L351.986431,325.405044 L351.986431,323.783228 L351.91129,323.897368 C351.098518,325.096135 349.925358,325.695518 348.391809,325.695518 C347.367079,325.695518 346.425054,325.413113 345.565734,324.848301 C344.706413,324.283489 344.040743,323.494771 343.568722,322.482144 C343.096701,321.469518 342.86069,320.305602 342.86069,318.990398 C342.86069,317.707469 343.074512,316.543554 343.502155,315.498653 C343.929798,314.453751 344.571262,313.652929 345.426548,313.096186 C346.281834,312.539444 347.23798,312.261072 348.294984,312.261072 C349.069583,312.261072 349.75946,312.424464 350.364615,312.751248 C350.92322,313.052894 351.385573,313.438761 351.751674,313.908849 L351.841194,314.028125 L351.841194,307.661892 L354.007649,307.661892 Z M293.395301,307.661892 L293.395301,325.405044 L291.374082,325.405044 L291.374082,323.783228 L291.298941,323.897368 C290.486169,325.096135 289.313009,325.695518 287.77946,325.695518 C286.754731,325.695518 285.812706,325.413113 284.953385,324.848301 C284.094065,324.283489 283.428394,323.494771 282.956373,322.482144 C282.484352,321.469518 282.248341,320.305602 282.248341,318.990398 C282.248341,317.707469 282.462163,316.543554 282.889806,315.498653 C283.317449,314.453751 283.958913,313.652929 284.8142,313.096186 C285.669486,312.539444 286.625631,312.261072 287.682635,312.261072 C288.457234,312.261072 289.147111,312.424464 289.752266,312.751248 C290.310871,313.052894 290.773224,313.438761 291.139325,313.908849 L291.228845,314.028125 L291.228845,307.661892 L293.395301,307.661892 Z M261.080011,312.261072 C262.088603,312.261072 262.974147,312.406309 263.736643,312.696784 C264.499138,312.987258 265.061933,313.380609 265.425026,313.876837 C265.763913,314.339982 266.004397,314.948974 266.146478,315.703814 L266.175418,315.867797 L264.045272,316.158272 L264.024966,316.035917 C263.912681,315.432653 263.639061,314.957039 263.204106,314.609074 C262.740154,314.237913 262.084569,314.052332 261.237351,314.052332 C260.236828,314.052332 259.522745,314.217741 259.095102,314.548559 C258.667459,314.879377 258.453637,315.266676 258.453637,315.710457 C258.453637,315.992863 258.542393,316.247028 258.719906,316.472953 C258.897418,316.706946 259.175789,316.900596 259.55502,317.053902 L259.699249,317.102986 C259.998464,317.199363 260.591853,317.368582 261.479414,317.610644 L261.840338,317.707973 C263.189585,318.075571 264.144437,318.379998 264.704891,318.621254 C265.314081,318.883488 265.792153,319.264735 266.139109,319.764997 C266.486065,320.265259 266.659542,320.886551 266.659542,321.628875 C266.659542,322.355061 266.447738,323.038887 266.024129,323.680351 C265.600521,324.321816 264.989314,324.818043 264.190509,325.169033 C263.391704,325.520023 262.488006,325.695518 261.479414,325.695518 C259.809185,325.695518 258.536342,325.348563 257.660884,324.654651 C256.820444,323.988496 256.271874,323.013741 256.015172,321.730386 L255.984604,321.56836 L258.138957,321.229473 L258.161127,321.371497 C258.298084,322.16572 258.627563,322.780015 259.149566,323.214382 C259.702274,323.6743 260.474856,323.904259 261.46731,323.904259 C262.467834,323.904259 263.210158,323.700523 263.694282,323.293052 C264.178406,322.885581 264.420468,322.407508 264.420468,321.858834 C264.420468,321.366641 264.206647,320.979342 263.779003,320.696936 C263.492402,320.511032 262.796812,320.276794 261.692235,319.99422 L261.192054,319.866513 C259.786948,319.501844 258.799507,319.183583 258.22973,318.911728 C257.612472,318.617219 257.144485,318.209748 256.82577,317.689315 C256.507055,317.168881 256.347697,316.593984 256.347697,315.964622 C256.347697,315.391742 256.478814,314.861222 256.741048,314.373064 C257.003282,313.884905 257.360324,313.479451 257.812173,313.156702 C258.15106,312.906571 258.612995,312.694767 259.197978,312.521289 C259.782962,312.347811 260.410306,312.261072 261.080011,312.261072 Z M493.750097,312.261072 C494.847445,312.261072 495.739041,312.390172 496.424883,312.648371 C497.110726,312.906571 497.615022,313.231338 497.937771,313.622671 C498.260521,314.014005 498.486445,314.508215 498.615545,315.105302 C498.680095,315.435223 498.715956,316.001031 498.723128,316.802725 L498.724473,317.114417 L498.724601,320.201226 C498.727328,322.121363 498.77368,323.341587 498.863659,323.861898 C498.946139,324.33885 499.100342,324.79827 499.326266,325.240158 L499.41435,325.405044 L497.138966,325.405044 L497.07361,325.26719 C496.884801,324.846728 496.76135,324.364177 496.703255,323.819537 C495.896381,324.50538 495.119765,324.989504 494.373407,325.27191 C493.627049,325.554315 492.826227,325.695518 491.970941,325.695518 C490.558912,325.695518 489.473667,325.35058 488.715206,324.660703 C487.956744,323.970826 487.577514,323.089316 487.577514,322.016175 C487.577514,321.386813 487.720734,320.811916 488.007174,320.291482 C488.293614,319.771049 488.66881,319.353491 489.132763,319.038811 C489.596715,318.72413 490.119166,318.486102 490.700115,318.324728 C491.099248,318.219296 491.688158,318.117379 492.466845,318.018976 L492.636611,317.997944 C494.395596,317.788157 495.690628,317.538026 496.521708,317.247551 L496.533327,316.740189 C496.53365,316.715337 496.533811,316.694843 496.533811,316.678705 C496.533811,315.791144 496.328058,315.165817 495.916553,314.802724 C495.35981,314.310531 494.532765,314.064435 493.435416,314.064435 C492.410687,314.064435 491.654243,314.243964 491.166084,314.603023 C490.703618,314.943184 490.35521,315.531375 490.120859,316.367595 L490.082856,316.509262 L487.95271,316.218787 L487.993107,316.038774 C488.189411,315.20963 488.49466,314.533363 488.908855,314.009971 C489.352636,313.449194 489.9941,313.017516 490.833249,312.714939 C491.672397,312.412361 492.64468,312.261072 493.750097,312.261072 Z M467.413741,312.261072 C469.132382,312.261072 470.536342,312.846055 471.625622,314.016022 C472.714901,315.185989 473.259541,316.832011 473.259541,318.954089 L473.257839,319.126558 C473.256704,319.193125 473.255002,319.26877 473.252733,319.353491 L473.247438,319.535038 L463.661779,319.535038 L463.672991,319.702894 C463.774928,321.033034 464.170593,322.058293 464.859986,322.77867 C465.578104,323.529063 466.473733,323.904259 467.546875,323.904259 C468.34568,323.904259 469.027488,323.694472 469.5923,323.274897 C470.123887,322.880004 470.551837,322.263541 470.87615,321.42551 L470.935745,321.265782 L473.186922,321.544153 L473.140968,321.70702 C472.776572,322.943904 472.134288,323.91031 471.214116,324.606239 C470.253936,325.332425 469.027488,325.695518 467.534772,325.695518 C465.654757,325.695518 464.164058,325.116587 463.062675,323.958723 C461.961292,322.800859 461.410601,321.177026 461.410601,319.087223 C461.410601,316.924802 461.967344,315.246505 463.08083,314.052332 C464.194315,312.858159 465.638619,312.261072 467.413741,312.261072 Z M384.943185,312.551547 L387.121744,312.551547 L387.122019,319.833115 L387.124388,320.1391 C387.135132,321.02662 387.178629,321.640208 387.254878,321.979865 C387.392047,322.552746 387.682521,323.002578 388.126302,323.329361 C388.570082,323.656145 389.118756,323.819537 389.772324,323.819537 C390.425892,323.819537 391.039116,323.652111 391.611996,323.317258 C392.184876,322.982406 392.59033,322.526522 392.828358,321.949607 C393.053162,321.404744 393.171809,320.627773 393.184298,319.618695 L393.1854,319.438213 L393.1854,312.551547 L395.363958,312.551547 L395.363958,325.405044 L393.415359,325.405044 L393.415359,323.51696 L393.326145,323.643225 C392.334549,325.011421 391.004705,325.695518 389.336612,325.695518 C388.578151,325.695518 387.870119,325.550281 387.212517,325.259807 C386.554915,324.969332 386.066757,324.604222 385.748042,324.164476 C385.429327,323.724729 385.205419,323.186141 385.076319,322.548711 C384.998005,322.171379 384.954241,321.599308 384.945028,320.832499 L384.943185,320.51539 L384.943185,312.551547 Z M480.146207,312.261072 C481.154799,312.261072 482.040343,312.406309 482.802839,312.696784 C483.565334,312.987258 484.128129,313.380609 484.491222,313.876837 C484.830109,314.339982 485.070593,314.948974 485.212675,315.703814 L485.241614,315.867797 L483.111468,316.158272 L483.091162,316.035917 C482.978878,315.432653 482.705258,314.957039 482.270302,314.609074 C481.80635,314.237913 481.150765,314.052332 480.303548,314.052332 C479.303024,314.052332 478.588941,314.217741 478.161298,314.548559 C477.733655,314.879377 477.519834,315.266676 477.519834,315.710457 C477.519834,315.992863 477.60859,316.247028 477.786102,316.472953 C477.963614,316.706946 478.241986,316.900596 478.621216,317.053902 L478.684505,317.076259 C478.948925,317.166248 479.569293,317.344376 480.54561,317.610644 L480.906534,317.707973 C482.255782,318.075571 483.210633,318.379998 483.771087,318.621254 C484.380277,318.883488 484.858349,319.264735 485.205305,319.764997 C485.552261,320.265259 485.725739,320.886551 485.725739,321.628875 C485.725739,322.355061 485.513934,323.038887 485.090326,323.680351 C484.666717,324.321816 484.05551,324.818043 483.256705,325.169033 C482.4579,325.520023 481.554202,325.695518 480.54561,325.695518 C478.875381,325.695518 477.602538,325.348563 476.72708,324.654651 C475.886641,323.988496 475.33807,323.013741 475.081368,321.730386 L475.0508,321.56836 L477.205153,321.229473 L477.227323,321.371497 C477.36428,322.16572 477.69376,322.780015 478.215762,323.214382 C478.768471,323.6743 479.541052,323.904259 480.533507,323.904259 C481.53403,323.904259 482.276354,323.700523 482.760478,323.293052 C483.244602,322.885581 483.486664,322.407508 483.486664,321.858834 C483.486664,321.366641 483.272843,320.979342 482.8452,320.696936 C482.558598,320.511032 481.863009,320.276794 480.758431,319.99422 L480.258251,319.866513 C478.853145,319.501844 477.865703,319.183583 477.295926,318.911728 C476.678668,318.617219 476.210681,318.209748 475.891966,317.689315 C475.573251,317.168881 475.413893,316.593984 475.413893,315.964622 C475.413893,315.391742 475.54501,314.861222 475.807244,314.373064 C476.069478,313.884905 476.42652,313.479451 476.878369,313.156702 C477.217256,312.906571 477.679191,312.694767 478.264175,312.521289 C478.849158,312.347811 479.476502,312.261072 480.146207,312.261072 Z M274.683901,312.261072 C275.781249,312.261072 276.672844,312.390172 277.358687,312.648371 C278.04453,312.906571 278.548826,313.231338 278.871575,313.622671 C279.194325,314.014005 279.420249,314.508215 279.549349,315.105302 C279.617933,315.455843 279.65413,316.072678 279.657941,316.955807 L279.659427,320.553049 C279.667096,322.271157 279.713108,323.374106 279.797463,323.861898 C279.879943,324.33885 280.034146,324.79827 280.26007,325.240158 L280.348154,325.405044 L278.07277,325.405044 L278.007413,325.26719 C277.818605,324.846728 277.695153,324.364177 277.637058,323.819537 C276.830185,324.50538 276.053569,324.989504 275.307211,325.27191 C274.560853,325.554315 273.760031,325.695518 272.904744,325.695518 C271.492716,325.695518 270.407471,325.35058 269.649009,324.660703 C268.890548,323.970826 268.511317,323.089316 268.511317,322.016175 C268.511317,321.386813 268.654538,320.811916 268.940978,320.291482 C269.227418,319.771049 269.602614,319.353491 270.066566,319.038811 C270.530519,318.72413 271.052969,318.486102 271.633918,318.324728 C272.033052,318.219296 272.621962,318.117379 273.400649,318.018976 L273.570415,317.997944 C275.3294,317.788157 276.624432,317.538026 277.455512,317.247551 L277.467615,316.678705 L277.467615,316.678705 C277.467615,315.791144 277.261862,315.165817 276.850357,314.802724 C276.293614,314.310531 275.466568,314.064435 274.36922,314.064435 C273.344491,314.064435 272.588047,314.243964 272.099888,314.603023 C271.637422,314.943184 271.289014,315.531375 271.054663,316.367595 L271.01666,316.509262 L268.886514,316.218787 L268.926911,316.038774 C269.123215,315.20963 269.428464,314.533363 269.842659,314.009971 C270.286439,313.449194 270.927904,313.017516 271.767053,312.714939 C272.606201,312.412361 273.578484,312.261072 274.683901,312.261072 Z M380.670789,308.061295 L380.670789,312.551547 L382.861451,312.551547 L382.861451,314.245981 L380.670789,314.245981 L380.671238,321.875901 C380.67573,322.432361 380.713907,322.793799 380.785769,322.960217 C380.862422,323.137729 380.987487,323.278932 381.160965,323.383825 C381.334443,323.488719 381.582557,323.541166 381.905306,323.541166 C382.120472,323.541166 382.396204,323.518852 382.732501,323.474225 L382.861451,323.456444 L383.176132,325.380838 L382.974115,325.42148 C382.441777,325.523485 381.960442,325.574487 381.53011,325.574487 C380.739374,325.574487 380.12615,325.449422 379.690438,325.199291 C379.254726,324.94916 378.948114,324.620359 378.770602,324.212888 C378.60019,323.821716 378.511576,323.015978 378.50476,321.795675 L378.504334,321.640978 L378.504334,314.245981 L376.906724,314.245981 L376.906724,312.551547 L378.504334,312.551547 L378.504334,309.36843 L380.670789,308.061295 Z M329.026841,312.261072 C329.80144,312.261072 330.513506,312.400258 331.163039,312.678629 C331.812573,312.957001 332.298714,313.322111 332.621463,313.77396 C332.944213,314.225809 333.170137,314.76238 333.299237,315.383673 C333.371431,315.744643 333.411328,316.347842 333.418927,317.193272 L333.420268,317.501716 L333.420268,325.405044 L331.241709,325.405044 L331.241709,317.586438 L331.240717,317.422644 C331.230788,316.616795 331.146397,316.007739 330.987544,315.595477 C330.818101,315.155731 330.51754,314.804741 330.085863,314.542507 C329.654186,314.280273 329.147872,314.149156 328.566923,314.149156 C327.639019,314.149156 326.838196,314.443665 326.164457,315.032683 C325.513175,315.602067 325.17668,316.665307 325.154971,318.222403 L325.153848,318.385243 L325.153848,325.405044 L322.975289,325.405044 L322.975289,312.551547 L324.935992,312.551547 L324.935992,314.379115 L325.017937,314.259813 C325.958297,312.927319 327.294599,312.261072 329.026841,312.261072 Z M319.659038,312.551547 L319.659038,325.405044 L317.480479,325.405044 L317.480479,312.551547 L319.659038,312.551547 Z M208.02,307.661892 L208.02,325.405044 L205.841441,325.405044 L205.841441,307.661892 L208.02,307.661892 Z M432.895686,312.261072 C434.170547,312.261072 435.150898,312.614079 435.836741,313.320094 C436.497182,313.99996 436.839633,315.033355 436.864094,316.420282 L436.865505,316.58188 L436.865505,325.405044 L434.699049,325.405044 L434.699049,317.308067 L434.698316,317.15682 C434.690499,316.363683 434.620141,315.786754 434.487245,315.426034 C434.346042,315.042769 434.089859,314.73414 433.718697,314.500146 C433.347536,314.266153 432.911824,314.149156 432.411562,314.149156 C431.507864,314.149156 430.757471,314.449717 430.160385,315.050838 C429.587182,315.627914 429.289116,316.537757 429.266188,317.780369 L429.264755,317.937428 L429.264755,325.405044 L427.086196,325.405044 L427.086196,317.053902 L427.084552,316.894768 C427.065925,316.005713 426.88896,315.332571 426.553659,314.875343 C426.198635,314.391219 425.617686,314.149156 424.810812,314.149156 C424.197588,314.149156 423.63076,314.310531 423.110326,314.633281 C422.589893,314.95603 422.212679,315.428051 421.978686,316.049344 C421.757692,316.63612 421.641057,317.467599 421.628779,318.543779 L421.627696,318.736233 L421.627696,325.405044 L419.449137,325.405044 L419.449137,312.551547 L421.397737,312.551547 L421.397737,314.354909 L421.486225,314.221929 C421.878506,313.653845 422.385581,313.191858 423.00745,312.83597 C423.677155,312.452705 424.43965,312.261072 425.294937,312.261072 C426.247047,312.261072 427.027698,312.458756 427.636887,312.854124 C428.246077,313.249492 428.675737,313.802201 428.925868,314.51225 C429.942529,313.011465 431.265802,312.261072 432.895686,312.261072 Z M458.602681,312.261072 C459.291045,312.261072 459.990047,312.46673 460.699686,312.878047 L460.841755,312.963052 L460.091363,314.984271 L459.96847,314.914445 C459.476897,314.646315 458.985325,314.51225 458.493753,314.51225 C458.017697,314.51225 457.590054,314.65547 457.210824,314.94191 C456.831593,315.22835 456.561291,315.625735 456.399916,316.134066 C456.178026,316.844114 456.057835,317.615183 456.039344,318.447272 L456.036823,318.675718 L456.036823,325.405044 L453.858264,325.405044 L453.858264,312.551547 L455.818967,312.551547 L455.818967,314.500146 L455.897637,314.358765 C456.367747,313.525964 456.803459,312.97197 457.204772,312.696784 C457.628381,312.406309 458.09435,312.261072 458.602681,312.261072 Z M310.267029,312.261072 C311.541889,312.261072 312.522241,312.614079 313.208083,313.320094 C313.868524,313.99996 314.210975,315.033355 314.235436,316.420282 L314.236847,316.58188 L314.236847,325.405044 L312.070391,325.405044 L312.069659,317.15682 C312.061841,316.363683 311.991484,315.786754 311.858587,315.426034 C311.717384,315.042769 311.461202,314.73414 311.09004,314.500146 C310.718878,314.266153 310.283166,314.149156 309.782905,314.149156 C308.879206,314.149156 308.128814,314.449717 307.531727,315.050838 C306.958524,315.627914 306.660459,316.537757 306.63753,317.780369 L306.636097,317.937428 L306.636097,325.405044 L304.457539,325.405044 L304.457539,317.053902 L304.455895,316.894768 C304.437267,316.005713 304.260303,315.332571 303.925002,314.875343 C303.569978,314.391219 302.989029,314.149156 302.182155,314.149156 C301.568931,314.149156 301.002102,314.310531 300.481669,314.633281 C299.961235,314.95603 299.584022,315.428051 299.350028,316.049344 C299.129035,316.63612 299.012399,317.467599 299.000122,318.543779 L298.999038,318.736233 L298.999038,325.405044 L296.820479,325.405044 L296.820479,312.551547 L298.769079,312.551547 L298.769079,314.354909 L298.857568,314.221929 C299.249848,313.653845 299.756923,313.191858 300.378792,312.83597 C301.048497,312.452705 301.810993,312.261072 302.666279,312.261072 C303.61839,312.261072 304.39904,312.458756 305.00823,312.854124 C305.617419,313.249492 306.04708,313.802201 306.297211,314.51225 C307.313871,313.011465 308.637144,312.261072 310.267029,312.261072 Z M202.513087,307.661892 L202.513087,309.755729 L192.031798,309.755729 L192.031798,315.190023 L201.847416,315.190023 L201.847416,317.271757 L192.031798,317.271757 L192.031798,323.311207 L202.924593,323.311207 L202.924593,325.405044 L189.683796,325.405044 L189.683796,307.661892 L202.513087,307.661892 Z M496.521708,318.954089 L496.416326,318.995912 C495.66296,319.286753 494.579995,319.537234 493.167432,319.747357 L492.963395,319.7771 C492.067766,319.9062 491.43437,320.051437 491.063208,320.212812 C490.692046,320.374187 490.405606,320.610197 490.203887,320.920844 C490.002169,321.23149 489.90131,321.576428 489.90131,321.955659 C489.90131,322.536608 490.121183,323.020732 490.560929,323.408032 C491.000675,323.795331 491.644157,323.988981 492.491374,323.988981 C493.330523,323.988981 494.076881,323.805417 494.730449,323.438289 C495.384016,323.071162 495.864106,322.568883 496.170718,321.931453 C496.390947,321.468212 496.507539,320.797698 496.520494,319.919908 L496.521708,319.752894 L496.521708,318.954089 Z M277.455512,318.954089 L277.35013,318.995912 C276.596763,319.286753 275.513799,319.537234 274.101236,319.747357 L273.897199,319.7771 C273.001569,319.9062 272.368173,320.051437 271.997012,320.212812 C271.62585,320.374187 271.33941,320.610197 271.137691,320.920844 C270.935973,321.23149 270.835114,321.576428 270.835114,321.955659 C270.835114,322.536608 271.054987,323.020732 271.494733,323.408032 C271.934479,323.795331 272.577961,323.988981 273.425178,323.988981 C274.264327,323.988981 275.010685,323.805417 275.664252,323.438289 C276.31782,323.071162 276.79791,322.568883 277.104522,321.931453 C277.324751,321.468212 277.441343,320.797698 277.454297,319.919908 L277.455512,319.752894 L277.455512,318.954089 Z M348.500737,314.064435 C347.532488,314.064435 346.723598,314.459803 346.074064,315.250539 C345.424531,316.041275 345.099764,317.287895 345.099764,318.990398 C345.099764,320.636421 345.44672,321.866903 346.140631,322.681845 C346.834543,323.496788 347.653519,323.904259 348.597562,323.904259 C349.549673,323.904259 350.358563,323.514942 351.024234,322.736309 C351.689905,321.957676 352.02274,320.769555 352.02274,319.171945 C352.02274,317.41296 351.683853,316.121963 351.00608,315.298951 C350.328306,314.47594 349.493191,314.064435 348.500737,314.064435 Z M445.603946,313.96761 C444.676042,313.96761 443.855048,314.401304 443.140965,315.268694 C442.426881,316.136083 442.06984,317.396823 442.06984,319.050914 C442.06984,320.705005 442.404692,321.927418 443.074397,322.718155 C443.744103,323.508891 444.555011,323.904259 445.507122,323.904259 C446.47537,323.904259 447.304433,323.494771 447.99431,322.675794 C448.684187,321.856817 449.029125,320.588008 449.029125,318.869367 C449.029125,317.231414 448.692255,316.004966 448.018516,315.190023 C447.344776,314.375081 446.53992,313.96761 445.603946,313.96761 Z M287.888388,314.064435 C286.92014,314.064435 286.111249,314.459803 285.461716,315.250539 C284.812182,316.041275 284.487416,317.287895 284.487416,318.990398 C284.487416,320.636421 284.834371,321.866903 285.528283,322.681845 C286.222194,323.496788 287.041171,323.904259 287.985213,323.904259 C288.937324,323.904259 289.746215,323.514942 290.411886,322.736309 C291.077556,321.957676 291.410392,320.769555 291.410392,319.171945 C291.410392,317.41296 291.071505,316.121963 290.393731,315.298951 C289.715957,314.47594 288.880843,314.064435 287.888388,314.064435 Z M34.5042484,258.739393 L44.164158,258.926149 L44.0639602,264.087124 L44.1258625,264.101288 C47.5260072,264.820588 50.6755637,266.203356 53.4329444,268.110394 L53.6902956,268.290711 L57.4128283,264.711917 L64.1108692,271.669109 L60.3878119,275.247902 L60.401976,275.268361 C61.1752304,276.453249 61.8493034,277.70602 62.4213664,279.01415 L62.6126233,279.459358 L62.7077063,279.687492 L62.8098713,279.941462 L62.9132167,280.214449 L63.1248912,280.79157 L63.2216791,281.063573 L63.25945,281.18423 C63.4708622,281.817417 63.6576184,282.461621 63.8202431,283.115267 L63.8490959,283.225433 C63.8924625,283.403096 63.9320986,283.581925 63.9704913,283.761298 L64.0993281,284.371675 C64.1276563,284.515414 64.1527203,284.659853 64.1770072,284.80468 L64.2131655,285.022174 L69.3841076,285.122372 L69.1963022,294.774412 L64.0232617,294.674739 C63.5999128,296.695482 62.9452171,298.629668 62.0801584,300.444771 L62.0418629,300.525557 C61.9551297,300.706018 61.8667644,300.885314 61.7763008,301.063288 L61.6116942,301.380649 C61.4973323,301.597132 61.380872,301.811983 61.2612253,302.024891 L61.0755572,302.349577 L61.0388354,302.409906 C60.9157303,302.619045 60.7907599,302.827018 60.6626807,303.032893 L60.4638783,303.346834 L60.4255828,303.402966 C60.2965322,303.601613 60.1663158,303.798628 60.0330685,303.993389 L59.8238713,304.294255 L63.4042385,308.012591 L56.4412767,314.70591 L52.8609094,310.987049 L52.8519913,310.99282 C52.6652351,311.114876 52.4761474,311.232735 52.2858163,311.348729 L51.9832604,311.531055 L51.8830626,311.592958 C51.6847653,311.710118 51.4843697,311.82378 51.2824974,311.935033 L50.8606251,312.165292 C50.6679235,312.267763 50.4733567,312.36697 50.2775464,312.464001 L49.8680896,312.664183 C49.6834318,312.752665 49.4976083,312.838582 49.3104636,312.922245 L49.0287361,313.046089 L48.8823738,313.10904 C48.6914209,313.190527 48.4997685,313.270382 48.306795,313.347828 L47.9971182,313.46911 L47.9779704,313.475733 C47.2117606,313.769356 46.428207,314.026366 45.6296221,314.24643 L45.2290877,314.353382 C45.1598411,314.371742 45.0916436,314.391153 45.0223969,314.40794 C44.7658695,314.47194 44.5077683,314.530695 44.2480933,314.587351 C44.1347806,314.612007 44.0214679,314.635614 43.9081552,314.658696 L43.5351019,314.732337 L43.0782444,314.816075 L42.9780466,319.976001 L33.3186616,319.789245 L33.4188595,314.629844 L33.3223338,314.607811 L33.050462,314.548335 L32.7610162,314.481908 L32.4918984,314.414235 C32.1287469,314.324135 31.7688413,314.226364 31.4119603,314.121363 L30.9920787,313.994558 C30.6407305,313.883999 30.2917431,313.767834 29.9464442,313.643849 L29.4980294,313.479405 L29.2346167,313.374551 L28.6554628,313.137106 L28.3706728,313.016711 L28.1369653,312.911202 L27.8450276,312.775922 L27.800437,312.754413 C27.5902489,312.655789 27.3812266,312.555533 27.1739917,312.452401 L26.8493446,312.288047 L26.7108512,312.21303 C26.5118545,312.108111 26.3137904,312.002259 26.1174361,311.893299 L25.815366,311.722533 L25.6107736,311.599253 C25.4313617,311.493285 25.2519499,311.386617 25.0744034,311.277384 L24.7976499,311.10351 L24.541647,310.931967 C24.3765742,310.823201 24.2117345,310.714668 24.0488377,310.603881 L23.7919995,310.425207 L20.0705159,314.002952 L13.372475,307.046285 L17.0944831,303.468016 L17.088188,303.459098 C16.7637779,302.962201 16.4588407,302.453217 16.1698849,301.934563 L15.8737484,301.393764 C15.7646324,301.187073 15.6599464,300.979916 15.5579805,300.771671 L15.3475787,300.338277 C14.7676379,299.106263 14.2837928,297.821353 13.9029128,296.493647 L13.797201,296.114886 L13.7932009,296.098492 C13.6161498,295.442747 13.4660571,294.775345 13.3411012,294.099927 L13.2691296,293.693744 L8.09976124,293.593547 L8.28704199,283.941506 L13.4485414,284.041179 C14.1652984,280.620178 15.5573612,277.452724 17.4774022,274.680885 L17.6589484,274.422188 L14.0780565,270.702278 L21.0410184,264.010008 L24.6219102,267.728869 C25.4261158,267.203748 26.2632561,266.72562 27.126654,266.291673 L27.5769591,266.069572 C27.7707099,265.976893 27.9656264,265.886779 28.1618642,265.798919 L28.5474616,265.629436 C29.6300702,265.164381 30.7496471,264.771564 31.9012207,264.455955 L32.4399634,264.313225 C32.7085566,264.246076 32.9792481,264.184174 33.2515134,264.124895 L33.5515822,264.061943 C33.7246989,264.02697 33.8980487,263.992696 34.072098,263.960366 L34.4040506,263.900368 L34.5042484,258.739393 Z M225.83577,314.354909 L222.023292,314.354909 L221.127662,318.748336 L224.928037,318.748336 L225.83577,314.354909 Z M467.437947,314.052332 C466.437424,314.052332 465.596258,314.387184 464.91445,315.056889 C464.263633,315.696153 463.89035,316.54127 463.7946,317.59224 L463.78281,317.743779 L470.959951,317.743779 C470.863126,316.662568 470.588789,315.85166 470.13694,315.311054 C469.443028,314.471906 468.543364,314.052332 467.437947,314.052332 Z M410.964861,314.052332 C409.964337,314.052332 409.123171,314.387184 408.441363,315.056889 C407.790546,315.696153 407.417263,316.54127 407.321513,317.59224 L407.309723,317.743779 L414.486864,317.743779 C414.390039,316.662568 414.115702,315.85166 413.663853,315.311054 C412.969942,314.471906 412.070277,314.052332 410.964861,314.052332 Z M362.733988,314.052332 C361.733465,314.052332 360.892299,314.387184 360.210491,315.056889 C359.559674,315.696153 359.18639,316.54127 359.090641,317.59224 L359.07885,317.743779 L366.255992,317.743779 C366.159167,316.662568 365.88483,315.85166 365.43298,315.311054 C364.739069,314.471906 363.839405,314.052332 362.733988,314.052332 Z M319.659038,307.661892 L319.659038,310.167235 L317.480479,310.167235 L317.480479,307.661892 L319.659038,307.661892 Z M38.742459,271.418352 C28.833891,271.418352 20.801278,279.45044 20.801278,289.359533 C20.801278,299.267576 28.833891,307.300714 38.742459,307.300714 C48.651027,307.300714 56.68364,299.267576 56.68364,289.359533 C56.68364,279.45044 48.651027,271.418352 38.742459,271.418352 Z M142.991683,239.597595 L142.991683,254.726476 L150.73767,254.726476 L150.73767,263.763461 L142.991683,263.763461 L142.991999,281.420149 C142.99737,284.678695 143.071228,286.586187 143.213573,287.142625 C143.3615,287.720885 143.697697,288.198285 144.222165,288.574826 C144.746633,288.951367 145.385408,289.139638 146.13849,289.139638 C147.151255,289.139638 148.602797,288.801154 150.493113,288.124186 L150.697326,288.050358 L151.665574,296.845281 L151.409407,296.952836 C148.836815,298.010756 145.936772,298.539716 142.709277,298.539716 C140.665197,298.539716 138.822835,298.196794 137.182192,297.510952 C135.541549,296.825109 134.337963,295.937548 133.571433,294.848269 C132.804903,293.758989 132.273711,292.286445 131.977857,290.430635 L131.94881,290.262467 C131.744977,289.009049 131.634428,286.719152 131.617161,283.392775 L131.614909,282.681421 L131.614764,263.763461 L126.410429,263.763461 L126.410429,254.726476 L131.614764,254.726476 L131.614764,246.213959 L142.991683,239.597595 Z M100.751847,253.758228 C106.615129,253.758228 110.972247,254.713029 113.8232,256.62263 C116.614759,258.492447 118.555353,261.239016 119.644983,264.862336 L119.713378,265.094803 L109.022302,267.071643 L108.971744,266.894471 C108.502594,265.313348 107.652058,264.094856 106.420134,263.238993 C105.142585,262.351432 103.320395,261.907652 100.953565,261.907652 C97.968133,261.907652 95.8299178,262.324537 94.53892,263.158306 C93.6782547,263.750013 93.2479221,264.516543 93.2479221,265.457896 C93.2479221,266.26477 93.6244631,266.950612 94.3775452,267.515424 C95.3286102,268.216209 98.4514647,269.184828 103.746109,270.421282 L104.967762,270.702575 C111.005866,272.07426 115.221781,273.755247 117.615506,275.745535 C119.982336,277.762719 121.16575,280.573329 121.16575,284.177365 C121.16575,288.10415 119.525107,291.479571 116.243821,294.303629 C112.962535,297.127687 108.107845,298.539716 101.679752,298.539716 C95.8433657,298.539716 91.224014,297.356301 87.8216968,294.989472 C84.4848088,292.668158 82.2797893,289.531899 81.2066384,285.580695 L81.1448173,285.347331 L92.5217358,283.612553 L92.5685802,283.817758 C93.0677019,285.92213 94.0337834,287.527992 95.4668247,288.635342 C96.946093,289.778413 99.0170687,290.349948 101.679752,290.349948 C104.611393,290.349948 106.816847,289.812032 108.296116,288.736201 C109.29126,287.983119 109.788832,286.974527 109.788832,285.710425 C109.788832,284.849759 109.519874,284.137021 108.981958,283.572209 C108.417147,283.034294 107.153045,282.536722 105.189652,282.079493 L103.99022,281.811571 C95.5364947,279.898889 90.1402632,278.145835 87.801525,276.552409 C84.4126556,274.239371 82.718221,271.025324 82.718221,266.910269 C82.718221,263.19865 84.1840414,260.078738 87.1156824,257.550534 C90.0473233,255.02233 94.5927115,253.758228 100.751847,253.758228 Z M481.401562,253.364781 C484.763536,253.364781 487.715349,253.848905 490.257001,254.817154 C492.798653,255.785402 494.674634,257.096572 495.884944,258.750663 C497.056213,260.351396 497.874841,262.474792 498.340829,265.12085 L498.386253,265.387198 L491.285765,266.355447 L491.254738,266.156285 C490.905809,264.046114 489.981523,262.391171 488.481879,261.191455 C486.935371,259.954249 484.750088,259.335646 481.92603,259.335646 C478.590952,259.335646 476.210675,259.88701 474.785198,260.989737 C473.359722,262.092464 472.646983,263.383462 472.646983,264.862731 C472.646983,265.804083 472.942837,266.651301 473.534544,267.404383 C474.126252,268.18436 475.054156,268.829859 476.318258,269.340879 L476.458044,269.390921 C477.295862,269.682378 479.387482,270.284301 482.732904,271.196689 L483.829078,271.492018 C488.383073,272.730389 491.601546,273.754845 493.484495,274.565386 C495.515127,275.439499 497.108703,276.710325 498.265222,278.377864 C499.421741,280.045403 500,282.116379 500,284.590791 C500,287.011412 499.293986,289.29083 497.881957,291.429046 C496.469928,293.567261 494.432572,295.221352 491.769889,296.391319 C489.107206,297.561285 486.094877,298.146269 482.732904,298.146269 C477.165476,298.146269 472.922665,296.98975 470.004472,294.676712 C467.14032,292.406508 465.29309,289.061086 464.462784,284.640446 L464.416872,284.389073 L471.598047,283.25945 L471.629654,283.474028 C472.058079,286.247152 473.170443,288.38108 474.966745,289.875814 C476.809106,291.408874 479.384378,292.175404 482.69256,292.175404 C486.027638,292.175404 488.50205,291.496285 490.115798,290.138048 C491.729545,288.77981 492.536419,287.186235 492.536419,285.357321 C492.536419,283.716678 491.82368,282.42568 490.398204,281.484328 L490.279226,281.410506 C489.25597,280.801525 486.968306,280.043115 483.416233,279.135274 L482.410643,278.879973 C477.388009,277.595717 473.88467,276.48027 471.900625,275.533635 C469.843097,274.551938 468.283142,273.193701 467.220758,271.458923 C466.158374,269.724144 465.627182,267.807819 465.627182,265.709948 C465.627182,263.800347 466.064239,262.031949 466.938352,260.404754 C467.812465,258.777558 469.002604,257.426045 470.508768,256.350214 C471.638391,255.516444 473.178175,254.81043 475.12812,254.23217 C477.078064,253.653911 479.169212,253.364781 481.401562,253.364781 Z M440.664817,253.364781 C444.322644,253.364781 447.294629,253.795114 449.580771,254.655779 C451.866913,255.516444 453.5479,256.599 454.623731,257.903445 C455.699563,259.207891 456.452645,260.855258 456.882977,262.845546 L456.917537,263.033705 C457.114096,264.172736 457.222455,266.036961 457.242615,268.626381 L457.246071,269.542598 L457.246439,279.789669 L457.250676,281.168904 C457.27842,286.802055 457.431536,290.423821 457.710023,292.034201 C458.003045,293.728635 458.567634,295.356687 459.403787,296.918357 L459.54566,297.17802 L451.961048,297.17802 L451.860022,296.971051 C451.164511,295.511176 450.714062,293.818492 450.508676,291.892998 C447.819097,294.17914 445.230377,295.792887 442.742517,296.73424 C440.254656,297.675592 437.585249,298.146269 434.734296,298.146269 C430.027533,298.146269 426.410049,296.996474 423.881845,294.696884 C421.353641,292.397294 420.089539,289.458929 420.089539,285.881789 C420.089539,283.783918 420.566939,281.867593 421.52174,280.132814 C422.47654,278.398036 423.727194,277.006179 425.273702,275.957243 C426.82021,274.908308 428.561712,274.114882 430.498209,273.576966 L430.773996,273.506522 C432.19548,273.155091 434.255214,272.815479 436.953198,272.487687 L437.59831,272.409434 C443.13412,271.726451 447.235857,270.918766 449.90352,269.986378 L449.937112,268.602607 C449.941613,268.371047 449.943864,268.200253 449.943864,268.090225 C449.943864,265.131688 449.258021,263.047265 447.886336,261.836954 C446.030527,260.196311 443.273709,259.37599 439.615881,259.37599 C436.200116,259.37599 433.678636,259.974421 432.051441,261.171284 C430.463933,262.338954 429.279623,264.383418 428.498509,267.304675 L428.440681,267.525414 L421.340193,266.557165 L421.40193,266.273952 C422.052498,263.365122 423.094303,261.005286 424.527344,259.194443 C426.006612,257.325186 428.144828,255.886261 430.94199,254.877669 C433.739152,253.869077 436.980094,253.364781 440.664817,253.364781 Z M327.723254,253.364781 C333.452057,253.364781 338.131924,255.314726 341.762856,259.214615 C345.393787,263.114504 347.209253,268.601245 347.209253,275.674838 L347.207639,275.958857 C347.204053,276.303123 347.19449,276.743019 347.17895,277.278544 L347.168909,277.611334 L315.216713,277.611334 L315.232748,277.871687 C315.535344,282.451202 316.86134,285.968453 319.210737,288.423441 C321.604462,290.92475 324.589895,292.175404 328.167035,292.175404 C330.829718,292.175404 333.102412,291.476113 334.985117,290.077532 C336.818277,288.715756 338.281704,286.563515 339.375398,283.620811 L339.463266,283.380481 L346.967191,284.308386 L346.896415,284.565136 C345.697427,288.825446 343.529012,292.142179 340.39117,294.515337 C337.190572,296.935958 333.102412,298.146269 328.126691,298.146269 C321.859972,298.146269 316.890975,296.216496 313.2197,292.35695 C309.548425,288.497405 307.712788,283.084627 307.712788,276.118618 C307.712788,268.910547 309.568597,263.316223 313.280216,259.335646 C316.991835,255.355069 321.806181,253.364781 327.723254,253.364781 Z M262.306549,253.364781 C265.668523,253.364781 268.620335,253.848905 271.161987,254.817154 C273.703639,255.785402 275.579621,257.096572 276.789931,258.750663 C277.961199,260.351396 278.779828,262.474792 279.245816,265.12085 L279.29124,265.387198 L272.190751,266.355447 L272.159725,266.156285 C271.810796,264.046114 270.886509,262.391171 269.386865,261.191455 C267.840358,259.954249 265.655075,259.335646 262.831017,259.335646 C259.495939,259.335646 257.115662,259.88701 255.690185,260.989737 C254.264708,262.092464 253.55197,263.383462 253.55197,264.862731 C253.55197,265.804083 253.847824,266.651301 254.439531,267.404383 C255.031238,268.18436 255.959143,268.829859 257.223245,269.340879 L257.415892,269.409153 C258.286743,269.707076 260.360742,270.302921 263.637891,271.196689 L264.734065,271.492018 C269.28806,272.730389 272.506532,273.754845 274.389482,274.565386 C276.420114,275.439499 278.01369,276.710325 279.170208,278.377864 C280.326727,280.045403 280.904987,282.116379 280.904987,284.590791 C280.904987,287.011412 280.198972,289.29083 278.786943,291.429046 C277.374915,293.567261 275.337559,295.221352 272.674876,296.391319 C270.012193,297.561285 266.999864,298.146269 263.637891,298.146269 C258.070463,298.146269 253.827652,296.98975 250.909459,294.676712 C248.045306,292.406508 246.198077,289.061086 245.367771,284.640446 L245.321859,284.389073 L252.503034,283.25945 L252.534641,283.474028 C252.963066,286.247152 254.075429,288.38108 255.871732,289.875814 C257.714093,291.408874 260.289365,292.175404 263.597547,292.175404 C266.932625,292.175404 269.407037,291.496285 271.020785,290.138048 C272.634532,288.77981 273.441406,287.186235 273.441406,285.357321 C273.441406,283.716678 272.728667,282.42568 271.30319,281.484328 L271.184213,281.410506 C270.160957,280.801525 267.873293,280.043115 264.32122,279.135274 L263.31563,278.879973 C258.292996,277.595717 254.789657,276.48027 252.805612,275.533635 C250.748084,274.551938 249.188128,273.193701 248.125745,271.458923 C247.063361,269.724144 246.532169,267.807819 246.532169,265.709948 C246.532169,263.800347 246.969226,262.031949 247.843339,260.404754 C248.681031,258.845358 249.808961,257.53915 251.22713,256.486128 L251.413755,256.350214 C252.543378,255.516444 254.083162,254.81043 256.033107,254.23217 C257.983051,253.653911 260.074199,253.364781 262.306549,253.364781 Z M204.998924,253.364781 C208.360898,253.364781 211.312711,253.848905 213.854363,254.817154 C216.396015,255.785402 218.271996,257.096572 219.482306,258.750663 C220.653575,260.351396 221.472203,262.474792 221.938191,265.12085 L221.983615,265.387198 L214.883127,266.355447 L214.8521,266.156285 C214.503171,264.046114 213.578885,262.391171 212.079241,261.191455 C210.532733,259.954249 208.34745,259.335646 205.523392,259.335646 C202.188315,259.335646 199.808037,259.88701 198.382561,260.989737 C196.957084,262.092464 196.244345,263.383462 196.244345,264.862731 C196.244345,265.804083 196.540199,266.651301 197.131906,267.404383 C197.723614,268.18436 198.651518,268.829859 199.91562,269.340879 L200.108268,269.409153 C200.979118,269.707076 203.053118,270.302921 206.330266,271.196689 L207.157018,271.418926 C211.853707,272.690132 215.161987,273.738952 217.081857,274.565386 C219.112489,275.439499 220.706065,276.710325 221.862584,278.377864 C223.019103,280.045403 223.597362,282.116379 223.597362,284.590791 C223.597362,287.011412 222.891348,289.29083 221.479319,291.429046 C220.06729,293.567261 218.029934,295.221352 215.367251,296.391319 C212.704568,297.561285 209.69224,298.146269 206.330266,298.146269 C200.762838,298.146269 196.520027,296.98975 193.601834,294.676712 C190.737682,292.406508 188.890452,289.061086 188.060146,284.640446 L188.014234,284.389073 L195.19541,283.25945 L195.227016,283.474028 C195.655441,286.247152 196.767805,288.38108 198.564107,289.875814 C200.406469,291.408874 202.98174,292.175404 206.289922,292.175404 C209.625,292.175404 212.099413,291.496285 213.71316,290.138048 C215.326907,288.77981 216.133781,287.186235 216.133781,285.357321 C216.133781,283.716678 215.421042,282.42568 213.995566,281.484328 L213.876588,281.410506 C212.853332,280.801525 210.565668,280.043115 207.013595,279.135274 L206.008005,278.879973 C200.985371,277.595717 197.482032,276.48027 195.497987,275.533635 C193.440459,274.551938 191.880504,273.193701 190.81812,271.458923 C189.755736,269.724144 189.224545,267.807819 189.224545,265.709948 C189.224545,263.800347 189.661601,262.031949 190.535714,260.404754 C191.373406,258.845358 192.501336,257.53915 193.919506,256.486128 L194.10613,256.350214 C195.235753,255.516444 196.775537,254.81043 198.725482,254.23217 C200.675426,253.653911 202.766574,253.364781 204.998924,253.364781 Z M296.911055,239.365523 L296.911055,254.333029 L304.213261,254.333029 L304.213261,259.981145 L296.911055,259.981145 L296.911407,285.220805 C296.918915,287.185556 297.046552,288.45482 297.29432,289.028596 C297.54983,289.620304 297.966714,290.09098 298.544974,290.440625 C299.123233,290.790271 299.950279,290.965093 301.02611,290.965093 C301.785521,290.965093 302.771265,290.881707 303.983344,290.714934 L304.213261,290.682687 L305.262197,297.097333 L304.941236,297.163492 C303.026196,297.549719 301.304269,297.742832 299.775456,297.742832 C297.139669,297.742832 295.095589,297.325947 293.643216,296.492178 C292.190844,295.658408 291.168804,294.562405 290.577097,293.204168 C289.985389,291.84593 289.689536,288.988253 289.689536,284.631135 L289.689536,259.981145 L284.364169,259.981145 L284.364169,254.333029 L289.689536,254.333029 L289.689536,243.722641 L296.911055,239.365523 Z M178.413436,253.758228 C180.914744,253.758228 183.327709,254.427116 185.65233,255.764893 L185.877017,255.896443 L182.367117,265.780645 L182.176605,265.658987 C180.339324,264.502886 178.627706,263.924836 177.041751,263.924836 C175.454899,263.924836 174.11011,264.361893 173.007383,265.236006 C171.938071,266.083631 171.090051,267.595129 170.463322,269.770502 L170.405215,269.976388 C169.808278,272.135523 169.493228,276.525762 169.460065,283.147107 L169.457138,284.338739 L169.457138,297.571467 L158.120564,297.571467 L158.120564,254.726476 L168.650265,254.726476 L168.650265,260.818372 L168.781796,260.60955 C170.531222,257.848612 172.10785,256.022066 173.511679,255.129913 C174.950603,254.215456 176.584522,253.758228 178.413436,253.758228 Z M399.726353,253.364781 C403.975888,253.364781 407.243726,254.541472 409.529868,256.894853 C411.775902,259.206947 412.918622,262.745668 412.958026,267.511016 L412.959081,267.767476 L412.959081,297.17802 L405.737562,297.17802 L405.736986,269.941111 C405.723922,267.164522 405.488776,265.155703 405.031548,263.914654 C404.560871,262.637104 403.70693,261.60834 402.469724,260.828362 C401.232518,260.048384 399.780145,259.658396 398.112606,259.658396 C395.100278,259.658396 392.598969,260.660264 390.608681,262.664 C388.65458,264.631305 387.659765,267.758827 387.624236,272.046567 L387.623249,272.285968 L387.623249,297.17802 L380.361386,297.17802 L380.361386,269.340879 L380.36033,269.106161 C380.33217,265.995786 379.740815,263.653404 378.586264,262.079017 C377.402849,260.465269 375.466352,259.658396 372.776773,259.658396 C370.732693,259.658396 368.843264,260.196311 367.108486,261.272143 C365.373708,262.347974 364.11633,263.921378 363.336352,265.992354 C362.575873,268.011555 362.186128,270.900062 362.167116,274.657874 L362.166385,274.948651 L362.166385,297.17802 L354.904522,297.17802 L354.904522,254.333029 L361.399855,254.333029 L361.399855,260.344238 L361.540554,260.12868 C362.868522,258.130461 364.610192,256.514603 366.765565,255.281106 C368.997915,254.003556 371.539567,253.364781 374.390521,253.364781 C377.564224,253.364781 380.166391,254.023728 382.197023,255.341622 C384.227655,256.659515 385.659856,258.501877 386.493625,260.868706 C389.882495,255.866089 394.293404,253.364781 399.726353,253.364781 Z M238.352776,254.333029 L238.352776,297.17802 L231.090913,297.17802 L231.090913,254.333029 L238.352776,254.333029 Z M449.90352,275.674838 L449.740499,275.740503 C447.215588,276.744284 443.529219,277.605845 438.68139,278.325187 L438.042478,278.418208 C435.057045,278.848541 432.945726,279.332665 431.70852,279.870581 C430.471313,280.408496 429.516513,281.195198 428.844118,282.230686 C428.171723,283.266174 427.835526,284.415969 427.835526,285.680071 C427.835526,287.616568 428.568436,289.230315 430.034257,290.521313 C431.500077,291.812311 433.645016,292.457809 436.469074,292.457809 C439.266236,292.457809 441.754096,291.84593 443.932655,290.622172 C446.111214,289.398414 447.711514,287.724151 448.733554,285.599383 C449.491865,284.004314 449.881553,281.671997 449.902618,278.602432 L449.90352,278.337521 L449.90352,275.674838 Z M327.803941,259.335646 C324.468864,259.335646 321.664978,260.451821 319.392284,262.684172 C317.166937,264.870015 315.915043,267.777889 315.6366,271.407793 L315.620149,271.640469 L339.543953,271.640469 C339.221204,268.036434 338.306747,265.333407 336.800583,263.531389 C334.487545,260.734227 331.488664,259.335646 327.803941,259.335646 Z M63.3193589,204.234662 L72.6015594,206.913249 L71.1678387,211.872254 L71.232364,211.906353 C71.8308405,212.210619 72.4129234,212.537107 72.9792199,212.883692 L73.3391413,213.107678 C75.5491765,214.509311 77.5067536,216.219771 79.1629307,218.167493 L79.3772405,218.422884 L83.9003066,215.92843 L88.5676367,224.381244 L84.0445705,226.875173 L84.0524394,226.898256 C84.119238,227.101799 84.1816066,227.306741 84.2420323,227.51246 L84.3378196,227.843053 L84.399722,228.052891 C84.456728,228.258183 84.5093042,228.464641 84.5599374,228.671798 L84.6919219,229.21697 C84.7419334,229.4373 84.7877481,229.658563 84.8310758,229.880603 L84.9248425,230.370556 C84.9650615,230.594384 85.0010838,230.819377 85.034619,231.04507 L85.1042543,231.528339 L85.1358612,231.767358 L85.168255,232.036148 L85.1976324,232.328348 L85.2521904,232.937273 L85.274748,233.223833 L85.2799939,233.343966 C85.3118894,233.869821 85.3269977,234.398697 85.3261248,234.929521 L85.321437,235.483793 C85.3172402,235.668101 85.3090799,235.852642 85.2994428,236.037416 L85.2756004,236.488918 L85.2658298,236.656789 C85.2560374,236.800878 85.2432139,236.9452 85.2293801,237.089445 L85.2081243,237.305714 L90.1765724,238.739435 L87.494838,248.014291 L82.5232423,246.579521 C81.3070191,248.984269 79.7475339,251.142932 77.9157984,253.003527 L77.6585986,253.260972 L77.6203687,253.297497 C77.4315142,253.482854 77.2403281,253.665413 77.0464996,253.844709 L76.7014733,254.157572 L76.6739976,254.181441 C76.5218648,254.316437 76.369732,254.4512 76.2157339,254.583553 L75.976285,254.785775 L78.4712633,259.30412 L70.0121538,263.968827 L67.5171756,259.450483 L67.5093066,259.453106 C67.3124083,259.517456 67.1138779,259.57761 66.9148034,259.636209 L66.532509,259.747928 C66.2869981,259.817525 66.0400883,259.883391 65.7920904,259.945837 L65.2949872,260.067407 C65.0840996,260.11637 64.8725126,260.161601 64.6602261,260.204502 L64.2101228,260.292984 C63.9058572,260.350165 63.6005423,260.400526 63.2936537,260.44669 L63.1493898,260.467149 C61.9978493,260.633341 60.8297368,260.721773 59.6507887,260.729001 L59.0727548,260.727349 C58.8004895,260.723152 58.5276996,260.713185 58.2549097,260.70007 C58.1478922,260.694824 58.0408746,260.689054 57.9343816,260.682234 C57.7602158,260.671742 57.5862831,260.660084 57.4121172,260.646484 L57.0766673,260.618758 L55.6429466,265.577238 L46.3612707,262.898652 L47.7944668,257.940695 L47.7184004,257.900826 L47.4579385,257.766071 L47.1927553,257.625413 L47.0846885,257.56574 L46.9713758,257.502133 C46.6385196,257.318393 46.31068,257.128162 45.9880781,256.931217 L45.6226396,256.704223 C45.3082755,256.504745 44.9983377,256.300251 44.6937114,256.08897 L44.3106252,255.819754 L44.0731144,255.642834 L43.5924533,255.276535 L43.3395981,255.079549 L43.1392025,254.91581 L42.9277903,254.740136 L42.8506747,254.674037 C42.6723121,254.524002 42.4953484,254.372102 42.3207162,254.217716 L42.0553873,253.979472 L41.9735503,253.902356 C41.8004336,253.742879 41.6289491,253.582003 41.4600292,253.41864 L41.2044927,253.167397 L41.1095408,253.069298 C40.9451674,252.902826 40.7821929,252.735188 40.6220163,252.565297 L40.3824508,252.306535 L40.2402853,252.14496 C40.0947974,251.982335 39.9500089,251.819011 39.8077851,251.653743 L39.585065,251.390066 L35.0635726,253.88347 L30.395718,245.431181 L34.917735,242.937776 L34.9135382,242.925711 C34.5931849,241.94833 34.3337625,240.94981 34.1323235,239.935678 L34.0592337,239.553805 C34.0111458,239.293124 33.9676043,239.031832 33.9280653,238.769713 L33.8674939,238.348086 C33.7371318,237.382764 33.6613933,236.406196 33.6423869,235.421545 L33.6377209,234.96182 C33.6364094,234.282905 33.6642421,233.601076 33.7184868,232.917243 L33.7541812,232.506711 L28.7873069,231.07299 L31.4685167,221.798134 L36.4275221,223.229232 C38.006524,220.110397 40.1710541,217.410361 42.7436495,215.229574 L42.9860204,215.02665 L40.4910422,210.50778 L48.9501516,205.843598 L51.4456545,210.362467 C51.6631869,210.291122 51.8823515,210.223974 52.1022155,210.159312 L52.4350424,210.062923 C53.0150357,209.89841 53.6017438,209.754376 54.1940923,209.630555 L54.7317234,209.523638 C54.9415618,209.484119 55.1518665,209.447397 55.3627929,209.413318 L55.7329148,209.356554 L55.7861613,209.348948 C56.9466724,209.180395 58.1241804,209.090453 59.3129489,209.083329 L59.8864031,209.084551 C60.0686128,209.087699 60.2512887,209.093178 60.4341201,209.100522 L60.7084449,209.11288 C60.8144133,209.1176 60.9203817,209.123371 61.0263501,209.129667 C61.2008656,209.140508 61.3751481,209.152283 61.5496637,209.166077 L61.8488509,209.191044 L61.8856382,209.193667 L63.3193589,204.234662 Z M59.4808904,216.839128 C49.5025512,216.839128 41.4138064,224.928398 41.4138064,234.906212 C41.4138064,244.884552 49.5025512,252.973297 59.4808904,252.973297 C69.4592297,252.973297 77.5479744,244.884552 77.5479744,234.906212 C77.5479744,224.928398 69.4592297,216.839128 59.4808904,216.839128 Z M108.321402,208.140279 L108.743177,211.670285 L108.791964,211.673957 C109.235143,211.705852 109.673957,211.754199 110.108406,211.818191 L110.453359,211.872254 C111.11435,211.982419 111.764549,212.129585 112.401314,212.311768 L112.729057,212.408916 C113.659165,212.694086 114.559954,213.051918 115.422627,213.480118 L115.708761,213.625454 L117.908917,210.831456 L123.138089,214.942714 L120.938458,217.736712 C121.74569,218.662099 122.45816,219.676438 123.063489,220.762812 L123.238812,221.085208 C123.604652,221.774199 123.926713,222.490904 124.20148,223.233213 L124.336791,223.610088 L124.407677,223.825173 L124.475809,224.041831 L128.012635,223.619531 L128.800578,230.221571 L125.261129,230.643871 C125.15539,232.195035 124.851391,233.701476 124.36426,235.132071 L124.258101,235.433956 C124.199696,235.596231 124.139426,235.757573 124.076669,235.917672 L123.977967,236.163669 L123.958557,236.207735 C123.888611,236.375955 123.816333,236.543243 123.741569,236.709288 L123.610225,236.994104 L123.565635,237.084859 L123.400135,237.426857 L123.310681,237.604209 L126.105728,239.801742 L121.991322,245.027242 L119.195751,242.82971 L119.191554,242.833382 C118.886449,243.099037 118.5706,243.352941 118.246694,243.597244 L117.939868,243.825393 C117.556388,244.102904 117.160318,244.364153 116.753757,244.611762 L116.708117,244.639041 C116.022798,245.053078 115.30615,245.422533 114.560987,245.74354 L114.186909,245.900694 C113.875692,246.026204 113.559754,246.143156 113.239538,246.25155 L112.901977,246.362666 L112.886435,246.368634 L113.307686,249.898115 L106.7004,250.686058 L106.278625,247.157101 L106.21305,247.151331 L106.020327,247.136314 L105.816981,247.118806 L105.618683,247.096773 C105.278745,247.060576 104.940905,247.01546 104.605689,246.960378 L104.562147,246.953034 C104.340068,246.915962 104.118922,246.875393 103.899174,246.83055 L103.491971,246.743195 C103.336341,246.707173 103.181644,246.66812 103.027568,246.627279 L102.681995,246.534931 L102.517075,246.486471 L102.337336,246.43211 L102.264417,246.408503 C102.112634,246.361989 101.96155,246.313843 101.811321,246.263442 L101.576672,246.182927 L101.489064,246.149877 C101.339729,246.096019 101.19086,246.041228 101.04308,245.984105 L100.817581,245.894924 L100.718957,245.852956 C100.573819,245.792802 100.428914,245.731716 100.285019,245.668454 L100.064262,245.569149 L99.8864235,245.482591 C99.7608702,245.423137 99.63555,245.36345 99.5110848,245.301819 L99.3130401,245.201408 L97.1134094,247.994881 L91.8842371,243.883623 L94.0838678,241.090149 L93.9378942,240.919792 L93.5477308,240.445421 C93.450156,240.322316 93.3551458,240.197345 93.2614569,240.071287 L93.0519876,239.788627 C92.7332956,239.34578 92.4342759,238.887269 92.1561429,238.414003 L91.9891563,238.123559 C91.728607,237.661041 91.4895515,237.18395 91.2707756,236.695019 L91.1324911,236.377704 C90.9566466,235.963483 90.7965818,235.540197 90.6520284,235.109458 L90.5465175,234.785031 L87.0102163,235.206806 L86.2217486,228.604766 L89.7638203,228.182466 C89.9279994,225.798586 90.5582039,223.51978 91.590726,221.45988 L91.711645,221.223177 L88.9155487,219.02512 L93.0299546,213.79962 L95.8260509,215.997152 C96.4966011,215.413335 97.2135748,214.880086 97.9703401,214.399986 L98.2795861,214.207755 C98.9745446,213.786374 99.7020362,213.409976 100.458898,213.083834 L100.820729,212.931938 C101.13706,212.804068 101.457818,212.684755 101.783444,212.574664 L102.11071,212.467671 L102.135891,212.458228 L101.71464,208.928222 L108.321402,208.140279 Z M72.5112764,227.721032 C76.481943,234.911144 73.8673569,243.956751 66.6714745,247.92427 C59.4750674,251.892314 50.4231646,249.280351 46.4524979,242.090239 C42.4823559,234.899603 45.096942,225.854519 52.2928245,221.886476 C59.4892315,217.918432 68.5411344,220.53092 72.5112764,227.721032 Z M238.352776,238.034182 L238.352776,246.385324 L231.090913,246.385324 L231.090913,238.034182 L238.352776,238.034182 Z M59.4829364,226.596823 C54.8932465,226.596823 51.1733367,230.317257 51.1733367,234.906422 C51.1733367,239.495588 54.8932465,243.216022 59.4829364,243.216022 C64.0721016,243.216022 67.792536,239.495588 67.792536,234.906422 C67.792536,230.317257 64.0721016,226.596823 59.4829364,226.596823 Z M65.2681279,231.714833 C67.0312948,234.907524 65.8698394,238.92488 62.6745256,240.686473 C59.4792117,242.448591 55.4592331,241.288709 53.6960661,238.095493 C51.9328992,234.902803 53.0943546,230.885972 56.2896684,229.123854 C59.4855069,227.361736 63.5049609,228.522142 65.2681279,231.714833 Z M107.510901,217.767663 C101.07883,217.767663 95.864871,222.982147 95.864871,229.413693 C95.864871,235.845764 101.07883,241.059723 107.510901,241.059723 C113.942972,241.059723 119.156931,235.845764 119.156931,229.413693 C119.156931,222.982147 113.942972,217.767663 107.510901,217.767663 Z M22.099653,184 L22.5209035,187.530006 L22.5686417,187.534203 C24.9383776,187.702423 27.2020659,188.339101 29.2510287,189.365071 L29.4864883,189.485175 L31.6866437,186.691702 L36.9163406,190.802435 L34.7161852,193.596433 C34.8106125,193.70485 34.9027082,193.815132 34.9938713,193.926346 L35.2575682,194.248506 C35.6676523,194.765608 36.0465177,195.306991 36.3964767,195.869021 L36.6388293,196.267151 L36.721781,196.40794 L36.8056508,196.553056 L36.9102421,196.74473 L37.1112279,197.122112 L37.2006716,197.293786 L37.2316227,197.358835 C37.3901818,197.678314 37.5395933,198.0034 37.6794145,198.333871 L37.8370064,198.71649 L37.9391059,198.984427 L38.1150423,199.471908 L38.185666,199.68614 L38.2535356,199.901552 L41.7903614,199.479777 L42.5788291,206.081817 L39.0393803,206.503592 C38.9146369,208.32902 38.5144589,210.092299 37.8682853,211.743025 L37.7562187,212.022341 L37.733661,212.073751 C37.6703598,212.226584 37.6056596,212.378483 37.5386279,212.52914 L37.4330676,212.760972 L37.3989688,212.830743 C37.3328697,212.971335 37.265838,213.111694 37.1966302,213.250886 L37.088408,213.463931 L39.8839798,215.661463 L35.7695738,220.886963 L32.9734775,218.689431 L32.9692807,218.693103 C32.6616577,218.960857 32.3432909,219.217195 32.0163291,219.46373 L31.7217916,219.681966 C31.4349688,219.889706 31.1410639,220.088594 30.8409622,220.279293 L30.4926633,220.49509 C29.8064263,220.910045 29.088861,221.280418 28.3424276,221.601992 L27.9667339,221.759366 C27.6551239,221.885269 27.3387926,222.002615 27.0177399,222.111403 L26.6641622,222.228355 L27.0854127,225.757836 L20.4781269,226.54578 L20.0568764,223.016823 L19.7996277,222.99656 L19.5915598,222.978527 L19.406902,222.958068 C19.177129,222.933937 18.9487549,222.905375 18.7216243,222.872384 L18.3440707,222.813804 C18.1202431,222.776383 17.8973481,222.735464 17.6756966,222.690271 L17.2723212,222.603441 C17.1208878,222.568468 16.9706202,222.530464 16.8208967,222.490983 L16.462345,222.395176 L16.2946055,222.346324 L16.1276528,222.295503 L16.1124396,222.291307 L16.0347994,222.266126 C15.8844152,222.219612 15.7347305,222.171932 15.5860561,222.122153 L15.2468563,222.002779 C15.1024175,221.950319 14.9584451,221.89716 14.8154052,221.841903 L14.5958327,221.755169 L14.4924873,221.711103 C14.3473491,221.65095 14.2029104,221.589863 14.0594819,221.526601 L13.8419883,221.428871 L13.7050688,221.362772 C13.5704225,221.299121 13.4360094,221.235003 13.3026066,221.168865 L13.090767,221.061129 L10.8916608,223.854602 L5.66196393,219.743869 L7.86159469,216.950395 L7.85320115,216.940428 C7.5888048,216.637002 7.33582366,216.323167 7.09264616,216.001074 L6.82656691,215.643627 C6.73318883,215.513877 6.64214229,215.382028 6.55249467,215.249014 L6.36807006,214.973193 C6.06730172,214.511549 5.78584143,214.035332 5.52733221,213.543936 L5.37500995,213.247273 C5.26659346,213.031139 5.16377266,212.812674 5.06514862,212.592188 L4.90916876,212.233753 C4.81928799,212.021816 4.73313768,211.807781 4.6510287,211.591492 L4.49001661,211.151512 L4.40568781,210.899116 L4.32529349,210.644752 L0.787943095,211.067052 L0,204.464487 L3.5368258,204.042712 C3.69898423,201.658327 4.33495138,199.380475 5.36837157,197.319709 L5.48937187,197.082898 L2.69380013,194.884841 L6.80820605,189.659341 L9.60430238,191.857398 C10.2753189,191.272648 10.9931734,190.738882 11.7508655,190.258309 L12.0667557,190.062755 C12.7594191,189.642751 13.4842139,189.268132 14.2379773,188.943116 L14.6021279,188.79061 C14.9176723,188.66274 15.2382332,188.544017 15.5633679,188.434 L15.9136177,188.318474 L15.4923672,184.788468 L22.099653,184 Z M21.2891522,193.311053 C14.6834402,193.311053 9.32836492,198.666129 9.32836492,205.271841 C9.32836492,211.877553 14.6834402,217.232628 21.2891522,217.232628 C27.8948643,217.232628 33.2499396,211.877553 33.2499396,205.271841 C33.2499396,198.666129 27.8948643,193.311053 21.2891522,193.311053 Z" id="Shape" fill="#000000" fill-rule="nonzero"></path>
    </g>
</svg>