<?xml version="1.0" encoding="UTF-8"?>
<svg width="500px" height="500px" viewBox="0 0 500 500" version="1.1" xmlns="http://www.w3.org/2000/svg" xmlns:xlink="http://www.w3.org/1999/xlink">
    <!-- Generator: Sketch 63.1 (92452) - https://sketch.com -->
    <title>zara-tech</title>
    <desc>Created with Sketch.</desc>
    <g id="zara-tech" stroke="none" stroke-width="1" fill="none" fill-rule="evenodd">
        <g id="Group" transform="translate(25.000000, 147.000000)" fill="#000000" fill-rule="nonzero">
            <path d="M426.918793,183.674804 L360.248104,0.121124461 L360.202159,-6.39488462e-14 L358.886455,-6.39488462e-14 L345.157188,37.7198279 L320.16299,106.389044 L320.104514,106.334747 C311.441752,98.6913758 299.220324,93.9132246 283.828675,92.133948 L279.133909,91.6494502 L283.791084,91.0521813 C309.173729,86.4912188 326.236112,70.4610229 326.236112,51.1479363 C326.236112,24.6634464 301.32545,6.17734753 265.642723,6.17734753 L191.399426,6.17734753 L191.399426,7.51807001 L212.972795,7.51807001 L212.972795,144.367828 L160.578538,0.121124461 L160.532593,-6.39488462e-14 L159.216889,-6.39488462e-14 L145.487623,37.7198279 L92.53367,183.202836 L92.2078766,183.240426 C91.3027558,183.351945 90.4076594,183.440908 89.5221697,183.507736 C88.1897584,183.612153 86.8657007,183.674804 85.5374662,183.674804 L32.0321709,183.674804 L133.738177,7.51807001 L134.494185,6.19405435 L10.1037712,6.19405435 L10.1037712,60.6875318 L11.423652,60.6875318 C11.657555,34.144568 27.1160326,7.51807001 61.2700372,7.51807001 L102.474544,7.51807001 L0,184.994643 L138.052851,184.994643 L138.052851,132.785823 L136.73297,132.785823 C136.553366,155.920595 123.438095,177.894243 94.9186445,182.85617 L94.0122706,183.010708 L115.731828,123.313055 L176.575828,123.313055 L198.500051,183.674804 L176.872384,183.674804 L176.872384,184.994643 L261.758263,184.994643 L261.758263,183.674804 L240.038705,183.674804 L240.038705,92.6226226 L265.099734,92.6226226 C290.603507,92.6226226 305.230794,104.016675 305.230794,123.872734 L305.230794,140.024054 C305.230794,141.803331 305.351922,144.405418 305.485581,146.581482 L305.485581,146.660839 L292.015278,183.66645 L274.418259,183.66645 L274.418259,184.986289 L310.844464,184.986289 L310.844464,183.66645 L293.435403,183.66645 L305.702776,149.96879 C305.727837,150.294573 305.740368,150.490878 305.740368,150.490878 L306.078692,153.527343 L306.404485,155.536338 C308.451136,167.962038 313.204377,177.096493 320.526374,182.684925 L321.578938,183.449262 C327.142486,187.316891 334.055153,189.275766 342.137334,189.275766 C352.84257,189.275766 359.980787,186.606851 365.874305,180.325086 L365.10159,179.598339 C359.671701,184.610386 355.11477,186.640265 349.405033,186.640265 C339.677177,186.640265 334.585611,174.841072 334.585611,163.20477 L334.585611,140.575379 C334.637404,134.960216 333.75818,129.375543 331.983441,124.048155 L331.741185,123.346469 L331.741185,123.321408 L376.245394,123.321408 L398.169617,183.683157 L376.541949,183.683157 L376.541949,185.002996 L450,185.002996 L450,183.683157 L426.918793,183.674804 Z M116.216342,121.993216 L146.189331,39.6494659 L176.095492,121.993216 L116.216342,121.993216 Z M240.051236,91.2986069 L240.051236,7.51807001 L259.181154,7.51807001 C284.735049,7.51807001 298.226236,22.7087481 298.226236,51.4319523 C298.226236,81.9803768 290.482378,91.2986069 265.099734,91.2986069 L240.051236,91.2986069 Z M331.223257,121.993216 L331.093775,121.667433 C329.116042,116.850856 326.236947,112.456127 322.610617,108.719646 L321.357565,107.466634 L321.223906,107.341333 L345.84219,39.6494659 L375.74835,121.993216 L331.223257,121.993216 Z" id="Shape"></path>
            <path d="M220.408631,256.206823 L229.180975,256.206823 L229.180975,220.845555 L244.854229,220.845555 L244.854229,214.266715 L204.735376,214.266715 L204.735376,220.845555 L220.408631,220.845555 L220.408631,256.206823 Z M265.318533,256.206823 L302.045413,256.206823 L302.045413,249.627982 L274.090877,249.627982 L274.090877,237.997532 L300.466391,237.997532 L300.466391,231.418692 L274.090877,231.418692 L274.090877,220.845555 L301.577555,220.845555 L301.577555,214.266715 L265.318533,214.266715 L265.318533,256.206823 Z M368.652247,229.773982 C367.71653,220.728076 360.230796,213.091922 345.844152,213.091922 C329.410628,213.091922 322.509717,223.4301 322.509717,235.236769 C322.509717,247.043438 329.703039,257.381616 344.791471,257.381616 C361.985265,257.381616 367.424118,248.511929 368.652247,240.170899 L359.178115,240.170899 C358.476328,244.576373 355.435248,250.802775 346.312011,250.802775 C337.656631,250.802775 331.632955,244.752592 331.632955,236.000384 C331.632955,225.07481 337.656631,219.670762 345.727188,219.670762 C353.095957,219.670762 358.300881,223.4301 359.178115,229.773982 L368.652247,229.773982 Z M391.923701,256.206823 L391.923701,214.266715 L400.696045,214.266715 L400.696045,230.596337 L426.603701,230.596337 L426.603701,214.266715 L435.376045,214.266715 L435.376045,256.206823 L426.603701,256.206823 L426.603701,237.175177 L400.696045,237.175177 L400.696045,256.206823 L391.923701,256.206823 Z" id="TECH"></path>
        </g>
    </g>
</svg>