<svg width="500" height="500" viewBox="0 0 500 500" xmlns="http://www.w3.org/2000/svg"><g fill="#000" fill-rule="nonzero"><path d="M474.354 311.083l-74.078-203.948-.051-.135h-1.462l-15.255 41.91-27.771 76.3-.065-.06c-9.626-8.493-23.205-13.802-40.307-15.779l-5.216-.538 5.174-.664c28.203-5.068 47.162-22.879 47.162-44.338 0-29.427-27.679-49.967-67.326-49.967h-82.493v1.49h23.97v152.055l-58.215-160.274-.051-.135h-1.462l-15.255 41.91-58.838 161.649-.362.041c-1.005.124-2 .223-2.984.297-1.48.117-2.952.186-4.427.186h-59.45l113.006-195.73.84-1.47H11.226v60.548h1.467c.26-29.493 17.436-59.078 55.385-59.078h45.783L0 312.55h153.392v-58.01h-1.466c-.2 25.705-14.773 50.12-46.46 55.634l-1.008.171 24.133-66.33h67.604l24.36 67.068h-24.03v1.467h94.318v-1.467H266.71V209.914h27.845c28.338 0 44.59 12.66 44.59 34.722v17.946c0 1.977.135 4.868.283 7.286v.088l-14.967 41.118H304.91v1.466h40.474v-1.466h-19.344l13.63-37.442c.029.362.043.58.043.58l.375 3.374.362 2.232c2.274 13.806 7.556 23.956 15.691 30.165l1.17.85c6.182 4.297 13.862 6.473 22.843 6.473 11.894 0 19.826-2.965 26.374-9.945l-.859-.807c-6.033 5.569-11.096 7.824-17.44 7.824-10.809 0-16.466-13.11-16.466-26.04v-25.143a56.454 56.454 0 00-2.892-18.364l-.269-.78v-.027h49.45l24.36 67.068H418.38v1.467H500v-1.467l-25.646-.009zM129.13 242.548l33.304-91.493 33.229 91.493h-66.533zm137.595-34.105v-93.09h21.255c28.393 0 43.383 16.879 43.383 48.794 0 33.942-8.604 44.296-36.807 44.296h-27.831zm101.302 34.105l-.144-.362a45.438 45.438 0 00-9.426-14.386l-1.392-1.393-.149-.139 27.354-75.213 33.23 91.493h-49.473zM244.898 391.674h9.748v-39.29h17.414v-7.31h-44.576v7.31h17.414v39.29zm49.9 0h40.808v-7.31h-31.06v-12.922h29.306v-7.31h-29.307v-11.748h30.541v-7.31h-40.288v46.6zm114.816-29.37c-1.04-10.05-9.358-18.535-25.343-18.535-18.26 0-25.927 11.487-25.927 24.605 0 13.119 7.993 24.606 24.758 24.606 19.104 0 25.147-9.856 26.512-19.123h-10.527c-.78 4.895-4.159 11.813-14.296 11.813-9.617 0-16.31-6.723-16.31-16.447 0-12.14 6.693-18.144 15.66-18.144 8.188 0 13.971 4.177 14.946 11.225h10.527zm25.857 29.37v-46.6h9.747v18.144h28.786v-18.144h9.747v46.6h-9.747v-21.146h-28.786v21.146h-9.747z"/></g></svg>